<?xml version="1.0" encoding="utf-8"?>
<!-- Generator: Adobe Illustrator 27.5.0, SVG Export Plug-In . SVG Version: 6.00 Build 0)  -->
<svg version="1.1" xmlns="http://www.w3.org/2000/svg" xmlns:xlink="http://www.w3.org/1999/xlink" x="0px" y="0px"
	 viewBox="0 0 750 500" style="enable-background:new 0 0 750 500;" xml:space="preserve">
<g id="Background_Simple">
	<g>
		<path style="fill:#92E3A9;" d="M697.69,188.523c0,0-105.497-115.31-266.604-154.564s-184.813,89.187-230.62,139.844
			c-45.807,50.657-129.213,44.979-170.103,107.132c-40.89,62.153,4.089,171.738,204.451,199.544
			c200.361,27.805,188.094-79.327,312.4-59.699C671.52,440.406,814.635,334.909,697.69,188.523z"/>
		<path style="opacity:0.8;fill:#FFFFFF;" d="M697.69,188.523c0,0-105.497-115.31-266.604-154.564s-184.813,89.187-230.62,139.844
			c-45.807,50.657-129.213,44.979-170.103,107.132c-40.89,62.153,4.089,171.738,204.451,199.544
			c200.361,27.805,188.094-79.327,312.4-59.699C671.52,440.406,814.635,334.909,697.69,188.523z"/>
	</g>
</g>
<g id="Scale">
	<g>
		<g>
			<rect x="46.773" y="104.606" style="fill:#92E3A9;" width="654.283" height="10.703"/>
			<rect x="46.773" y="104.606" style="opacity:0.51;fill:#FFFFFF;" width="654.283" height="10.703"/>
		</g>
		<g>
			<rect x="46.773" y="154.552" style="fill:#92E3A9;" width="654.283" height="10.703"/>
			<rect x="46.773" y="154.552" style="opacity:0.51;fill:#FFFFFF;" width="654.283" height="10.703"/>
		</g>
		<g>
			<rect x="46.773" y="204.497" style="fill:#92E3A9;" width="654.283" height="10.703"/>
			<rect x="46.773" y="204.497" style="opacity:0.51;fill:#FFFFFF;" width="654.283" height="10.703"/>
		</g>
		<g>
			<rect x="46.773" y="254.442" style="fill:#92E3A9;" width="654.283" height="10.703"/>
			<rect x="46.773" y="254.442" style="opacity:0.51;fill:#FFFFFF;" width="654.283" height="10.703"/>
		</g>
		<g>
			<rect x="46.773" y="304.388" style="fill:#92E3A9;" width="654.283" height="10.703"/>
			<rect x="46.773" y="304.388" style="opacity:0.51;fill:#FFFFFF;" width="654.283" height="10.703"/>
		</g>
	</g>
</g>
<g id="Plants">
	<g style="opacity:0.2;">
		<path d="M498.584,91.146c2.027,4.842,10.717,12.778,10.723,12.784c0.09,0.082,3.492-7.316,3.653-7.807
			c1.865-5.688,2.122-17.774-3.301-21.715c-3.906-2.838-9.139-1.213-11.471,2.79C495.808,81.288,496.859,87.021,498.584,91.146z"/>
		<path d="M637.685,168.662c-4.322-5.123-16.358-3.991-21.896-1.719c-0.478,0.197-7.611,4.126-7.521,4.21
			c0,0,0.084,0.078,0.104,0.097c-1.902,0.163-3.937,0.362-6.159,0.623c-4.098,0.515-8.722,1.133-13.709,2.147
			c-4.988,0.999-10.378,2.226-15.94,4.029c-5.577,1.801-11.35,3.98-17.01,6.995c-0.064,0.033-0.126,0.078-0.191,0.112
			c1.382-1.395,5.115-5.428,5.365-5.769c3.544-4.823,7.559-16.226,3.634-21.661c-2.827-3.915-8.305-4.004-11.769-0.926
			c-3.537,3.144-4.325,8.918-3.972,13.375c0.398,5.026,5.698,14.588,6.121,15.348c-5.363,2.919-10.629,6.353-15.768,10.119
			c-2.94,2.152-5.834,4.409-8.708,6.71c1.156-1.246,2.181-2.368,2.306-2.54c3.545-4.824,7.558-16.225,3.634-21.661
			c-2.827-3.916-8.305-4.004-11.768-0.926c-3.538,3.143-4.326,8.917-3.973,13.374c0.359,4.522,4.713,12.766,5.894,14.932
			c-1.093,0.893-2.195,1.775-3.284,2.673c-5.229,4.308-10.427,8.63-15.656,12.713c-1.842,1.441-3.709,2.79-5.572,4.147
			c1.025-1.106,1.879-2.048,1.994-2.204c3.544-4.824,7.558-16.226,3.635-21.661c-2.829-3.915-8.306-4.004-11.771-0.926
			c-3.537,3.141-4.325,8.919-3.971,13.375c0.341,4.315,4.293,11.96,5.685,14.541c-1.95,1.333-3.9,2.671-5.851,3.875
			c-1.35,0.792-2.594,1.647-3.994,2.368c-1.37,0.741-2.728,1.476-4.072,2.204c-2.641,1.305-5.356,2.668-7.963,3.878
			c-1.808,0.855-3.546,1.635-5.293,2.427c1.85-1.413,5.414-4.252,5.685-4.523c2.812-2.811,6.257-8.46,7.365-13.688
			c0.418-0.413,0.798-0.859,1.133-1.344c2.629-3.815,1.868-9.241-2.364-11.566c-5.875-3.227-16.7,2.155-21.05,6.265
			c-0.257,0.243-2.748,3.184-4.289,5.066c0.737-1.245,1.468-2.443,2.211-3.733c1.488-2.541,2.898-5.12,4.427-7.889
			c0.69-1.363,1.387-2.74,2.092-4.132c0.727-1.363,1.323-2.897,1.998-4.357c1.493-3.417,2.841-6.954,4.119-10.546
			c2.229,1.298,10.206,5.792,14.67,6.276c4.445,0.483,10.241-0.138,13.485-3.582c3.177-3.373,3.248-8.851-0.583-11.791
			c-5.318-4.08-16.834-0.4-21.758,3.003c-0.307,0.213-3.565,3.052-5.326,4.645c0.751-2.164,1.512-4.322,2.201-6.537
			c1.992-6.395,3.807-12.929,5.647-19.44c0.563-1.994,1.147-3.975,1.724-5.96c0.789,0.471,10.155,6.017,15.156,6.56
			c4.444,0.483,10.24-0.138,13.484-3.583c3.176-3.372,3.248-8.851-0.584-11.789c-5.318-4.081-16.833-0.4-21.757,3.002
			c-0.371,0.257-5.054,4.348-6.194,5.447c1.273-4.37,2.583-8.715,4.048-12.946c2.014-5.839,4.312-11.458,6.941-16.736
			c0.368,0.22,10.117,6.052,15.239,6.609c4.445,0.482,10.241-0.138,13.485-3.583c3.177-3.372,3.248-8.85-0.584-11.79
			c-5.318-4.081-16.833-0.4-21.757,3.003c-0.386,0.267-5.423,4.672-6.277,5.535c0.156-0.313,0.284-0.656,0.444-0.966
			c2.88-5.6,6.371-10.662,9.873-15.242c2.029-2.665,4.118-5.098,6.203-7.421c1.705,1.272,9.559,7.003,14.113,8.012
			c4.366,0.968,10.194,0.987,13.797-2.079c3.528-3.004,4.2-8.442,0.715-11.783c-4.838-4.64-16.688-2.246-21.955,0.595
			c-0.287,0.155-3.026,2.048-5,3.456c0.957-1.034,1.926-2.119,2.862-3.091c3.509-3.658,6.946-6.793,10.014-9.544
			c1.758-1.551,3.377-2.918,4.905-4.179c2.324,0.375,11.71,1.774,16.135,0.593c4.32-1.153,9.502-3.821,11.286-8.203
			c1.747-4.292-0.163-9.427-4.795-10.788c-6.432-1.888-15.845,5.697-19.213,10.646c-0.289,0.428-4.07,7.641-3.95,7.662
			c0,0,0.114,0.018,0.14,0.022c-1.496,1.185-3.085,2.475-4.792,3.917c-3.134,2.689-6.65,5.757-10.251,9.354
			c-3.608,3.585-7.428,7.581-11.072,12.154c-3.657,4.578-7.272,9.581-10.328,15.217c-0.034,0.064-0.062,0.135-0.096,0.199
			c0.382-1.927,1.269-7.349,1.29-7.773c0.296-5.979-2.648-17.703-8.918-20.071c-4.518-1.705-9.136,1.242-10.327,5.72
			c-1.216,4.574,1.313,9.825,4.065,13.346c3.105,3.973,12.8,9.026,13.574,9.424c-2.862,5.395-5.361,11.163-7.568,17.14
			c-1.267,3.415-2.435,6.895-3.563,10.399c0.276-1.676,0.511-3.177,0.522-3.39c0.296-5.98-2.648-17.704-8.919-20.071
			c-4.518-1.707-9.135,1.241-10.327,5.719c-1.218,4.571,1.312,9.826,4.065,13.347c2.793,3.575,10.973,8.047,13.154,9.202
			c-0.419,1.349-0.852,2.691-1.264,4.041c-1.984,6.478-3.936,12.95-6.046,19.241c-0.741,2.217-1.554,4.373-2.359,6.534
			c0.245-1.489,0.437-2.745,0.448-2.94c0.295-5.977-2.648-17.703-8.919-20.071c-4.518-1.706-9.136,1.242-10.327,5.719
			c-1.216,4.574,1.312,9.826,4.066,13.347c2.666,3.411,10.178,7.608,12.763,8.992c-0.892,2.188-1.78,4.38-2.742,6.46
			c-0.689,1.405-1.254,2.806-2.025,4.178c-0.734,1.376-1.462,2.736-2.182,4.085c-1.481,2.545-2.994,5.181-4.502,7.627
			c-1.036,1.71-2.055,3.32-3.076,4.945c0.765-2.198,2.17-6.533,2.247-6.91c1.198-5.863,0.064-17.898-5.775-21.19
			c-4.208-2.37-9.218-0.156-11.073,4.09c-1.896,4.335-0.193,9.909,1.995,13.808c2.41,4.292,10.853,10.541,11.913,11.315
			c-1.699,2.682-3.378,5.276-5.001,7.698c-0.821,1.231-1.622,2.414-2.409,3.565l2.88,3.024c0.929-1.417,1.879-2.883,2.856-4.42
			c1.737-2.716,3.538-5.655,5.36-8.69c0.781,0.316,5.237,2.087,9.605,3.217c-0.086,5.056,3.266,14.273,3.707,15.459
			c-2.898,1.301-5.728,2.538-8.418,3.661c-0.753,0.317-2.031,0.647-3.395,0.974l3.067,3.22c0.813-0.187,1.513-0.372,1.907-0.548
			c2.948-1.308,6.072-2.765,9.265-4.291c0.73,1.062,6.742,9.703,10.967,12.24c3.833,2.3,9.356,4.165,13.747,2.396
			c4.297-1.73,6.656-6.676,4.407-10.951c-3.118-5.932-15.117-7.415-21.013-6.387c-0.348,0.059-4.049,1.139-6.372,1.858
			c1.301-0.63,2.571-1.228,3.904-1.894c2.643-1.297,5.242-2.671,8.043-4.138c1.328-0.755,2.67-1.52,4.025-2.29
			c1.359-0.737,2.703-1.687,4.07-2.532c3.133-2.026,6.206-4.232,9.253-6.523c1.143,2.31,5.317,10.46,8.774,13.327
			c3.442,2.854,8.617,5.534,13.224,4.451c4.51-1.06,7.591-5.591,6.018-10.157c-2.186-6.337-13.82-9.619-19.805-9.497
			c-0.372,0.007-4.657,0.578-7.003,0.937c1.821-1.391,3.645-2.771,5.442-4.239c5.188-4.235,10.307-8.684,15.434-13.099
			c1.57-1.354,3.15-2.683,4.727-4.02c0.398,0.827,5.149,10.62,9.022,13.832c3.44,2.855,8.617,5.535,13.223,4.451
			c4.51-1.06,7.591-5.59,6.017-10.155c-2.185-6.337-13.819-9.62-19.804-9.498c-0.45,0.01-6.614,0.839-8.171,1.126
			c3.474-2.944,6.963-5.844,10.519-8.564c4.9-3.76,9.918-7.178,15.022-10.13c0.183,0.385,5.098,10.629,9.063,13.919
			c3.441,2.854,8.618,5.534,13.224,4.451c4.51-1.06,7.591-5.59,6.017-10.156c-2.185-6.337-13.82-9.619-19.804-9.498
			c-0.469,0.011-7.1,0.906-8.291,1.154c0.304-0.174,0.6-0.389,0.906-0.56c5.49-3.083,11.195-5.379,16.642-7.267
			c3.163-1.104,6.248-1.981,9.268-2.768c0.72,2.002,4.109,11.114,7.35,14.469c3.107,3.215,7.958,6.447,12.655,5.876
			c4.6-0.558,8.159-4.723,7.096-9.433c-1.476-6.539-12.679-11.079-18.641-11.615c-0.323-0.029-3.652,0.04-6.075,0.124
			c1.369-0.335,2.774-0.706,4.092-0.999c4.945-1.116,9.541-1.833,13.618-2.436c2.32-0.324,4.424-0.571,6.397-0.781
			c1.729,1.595,8.786,7.939,13.13,9.397c4.238,1.42,10.033,2.055,13.939-0.616C639.558,177.688,640.799,172.352,637.685,168.662z"/>
		<path d="M582.84,175.229c0.03,0.118,6.949-4.176,7.354-4.496c4.692-3.717,11.574-13.656,9.225-19.934
			c-1.693-4.523-6.953-6.054-11.106-3.999c-4.241,2.096-6.527,7.458-7.363,11.85C579.968,163.807,582.839,175.22,582.84,175.229z"/>
	</g>
	<g style="opacity:0.2;">
		<path d="M262.576,102.39c-2.027,4.842-10.716,12.778-10.723,12.784c-0.09,0.082-3.492-7.316-3.653-7.807
			c-1.865-5.688-2.122-17.774,3.301-21.715c3.906-2.838,9.139-1.213,11.471,2.79C265.352,92.533,264.301,98.265,262.576,102.39z"/>
		<path d="M123.475,179.906c4.322-5.123,16.358-3.991,21.896-1.719c0.479,0.198,7.611,4.126,7.521,4.211
			c0,0-0.084,0.078-0.104,0.097c1.902,0.163,3.937,0.362,6.159,0.623c4.098,0.515,8.722,1.133,13.709,2.147
			c4.988,0.999,10.378,2.225,15.94,4.029c5.577,1.801,11.351,3.98,17.01,6.995c0.064,0.033,0.126,0.078,0.19,0.112
			c-1.382-1.396-5.115-5.428-5.365-5.769c-3.544-4.823-7.559-16.226-3.635-21.662c2.827-3.915,8.305-4.004,11.77-0.926
			c3.537,3.144,4.325,8.918,3.972,13.375c-0.398,5.026-5.698,14.588-6.121,15.348c5.363,2.92,10.629,6.353,15.768,10.119
			c2.94,2.151,5.834,4.409,8.708,6.71c-1.156-1.246-2.18-2.368-2.306-2.54c-3.545-4.824-7.558-16.225-3.634-21.661
			c2.826-3.916,8.304-4.004,11.768-0.926c3.538,3.142,4.326,8.917,3.973,13.374c-0.359,4.522-4.713,12.766-5.895,14.931
			c1.093,0.894,2.195,1.775,3.284,2.673c5.229,4.308,10.427,8.63,15.656,12.713c1.842,1.44,3.709,2.79,5.572,4.147
			c-1.025-1.106-1.879-2.048-1.994-2.204c-3.544-4.824-7.558-16.226-3.635-21.66c2.829-3.915,8.306-4.004,11.771-0.926
			c3.536,3.141,4.325,8.919,3.971,13.375c-0.341,4.315-4.292,11.96-5.685,14.541c1.95,1.333,3.9,2.671,5.851,3.875
			c1.35,0.791,2.594,1.647,3.994,2.368c1.37,0.741,2.728,1.476,4.072,2.203c2.641,1.305,5.356,2.668,7.963,3.878
			c1.808,0.855,3.546,1.635,5.293,2.427c-1.85-1.413-5.414-4.252-5.685-4.523c-2.812-2.811-6.257-8.46-7.364-13.688
			c-0.418-0.412-0.798-0.858-1.133-1.344c-2.629-3.815-1.869-9.241,2.364-11.566c5.875-3.227,16.7,2.156,21.05,6.265
			c0.257,0.243,2.748,3.184,4.289,5.066c-0.737-1.245-1.468-2.443-2.211-3.733c-1.488-2.541-2.898-5.12-4.427-7.889
			c-0.69-1.363-1.387-2.74-2.092-4.131c-0.727-1.363-1.323-2.897-1.998-4.357c-1.493-3.417-2.841-6.954-4.119-10.546
			c-2.229,1.298-10.205,5.792-14.67,6.276c-4.445,0.483-10.241-0.138-13.485-3.582c-3.177-3.373-3.248-8.851,0.583-11.791
			c5.318-4.08,16.834-0.4,21.758,3.003c0.307,0.213,3.565,3.052,5.326,4.645c-0.751-2.164-1.512-4.322-2.201-6.537
			c-1.992-6.395-3.807-12.929-5.647-19.44c-0.563-1.995-1.147-3.975-1.724-5.96c-0.789,0.471-10.155,6.017-15.156,6.56
			c-4.444,0.483-10.24-0.138-13.484-3.583c-3.176-3.372-3.248-8.851,0.584-11.789c5.318-4.081,16.833-0.4,21.757,3.002
			c0.371,0.257,5.054,4.348,6.194,5.447c-1.273-4.37-2.583-8.715-4.048-12.946c-2.014-5.839-4.312-11.458-6.941-16.736
			c-0.368,0.22-10.117,6.052-15.239,6.609c-4.445,0.482-10.24-0.138-13.484-3.583c-3.177-3.372-3.248-8.85,0.584-11.79
			c5.318-4.081,16.833-0.4,21.757,3.003c0.386,0.267,5.423,4.672,6.277,5.536c-0.156-0.313-0.284-0.656-0.444-0.966
			c-2.88-5.6-6.371-10.662-9.873-15.242c-2.029-2.665-4.118-5.098-6.203-7.421c-1.705,1.272-9.559,7.003-14.113,8.012
			c-4.366,0.968-10.195,0.987-13.797-2.079c-3.528-3.004-4.2-8.442-0.715-11.783c4.838-4.64,16.688-2.246,21.955,0.595
			c0.287,0.155,3.026,2.048,5,3.456c-0.957-1.034-1.926-2.119-2.862-3.091c-3.508-3.658-6.946-6.793-10.014-9.544
			c-1.757-1.551-3.377-2.918-4.905-4.18c-2.324,0.375-11.71,1.774-16.135,0.594c-4.32-1.153-9.502-3.821-11.286-8.203
			c-1.747-4.292,0.163-9.427,4.795-10.788c6.432-1.888,15.845,5.697,19.212,10.646c0.289,0.428,4.07,7.64,3.95,7.662
			c0,0-0.114,0.018-0.14,0.023c1.495,1.185,3.085,2.475,4.792,3.917c3.134,2.689,6.65,5.757,10.251,9.354
			c3.608,3.585,7.428,7.581,11.071,12.154c3.657,4.578,7.272,9.581,10.329,15.217c0.034,0.064,0.062,0.135,0.096,0.199
			c-0.382-1.927-1.27-7.349-1.29-7.773c-0.296-5.979,2.648-17.703,8.918-20.071c4.518-1.705,9.136,1.242,10.327,5.72
			c1.216,4.574-1.313,9.825-4.065,13.346c-3.105,3.973-12.8,9.025-13.574,9.424c2.862,5.395,5.361,11.163,7.568,17.14
			c1.267,3.415,2.435,6.895,3.563,10.399c-0.276-1.676-0.511-3.177-0.522-3.39c-0.296-5.98,2.648-17.704,8.919-20.071
			c4.518-1.707,9.135,1.242,10.326,5.719c1.218,4.571-1.312,9.826-4.065,13.347c-2.793,3.575-10.973,8.047-13.154,9.202
			c0.419,1.349,0.852,2.691,1.264,4.041c1.984,6.478,3.936,12.95,6.046,19.24c0.742,2.217,1.554,4.373,2.359,6.534
			c-0.244-1.489-0.437-2.745-0.448-2.94c-0.295-5.977,2.648-17.703,8.919-20.071c4.518-1.706,9.136,1.242,10.327,5.719
			c1.216,4.574-1.312,9.826-4.066,13.347c-2.666,3.411-10.178,7.608-12.763,8.992c0.891,2.188,1.78,4.38,2.742,6.46
			c0.689,1.405,1.254,2.806,2.025,4.178c0.734,1.376,1.462,2.736,2.182,4.085c1.481,2.545,2.994,5.181,4.502,7.627
			c1.036,1.71,2.055,3.32,3.076,4.945c-0.765-2.198-2.17-6.533-2.247-6.91c-1.199-5.863-0.065-17.898,5.775-21.19
			c4.208-2.371,9.218-0.156,11.073,4.09c1.896,4.335,0.193,9.909-1.995,13.808c-2.41,4.292-10.853,10.541-11.913,11.315
			c1.699,2.682,3.378,5.276,5.001,7.698c0.821,1.231,1.622,2.414,2.409,3.565l-2.88,3.024c-0.929-1.417-1.879-2.883-2.856-4.42
			c-1.737-2.716-3.538-5.655-5.36-8.69c-0.781,0.316-5.237,2.087-9.605,3.216c0.086,5.056-3.266,14.273-3.707,15.459
			c2.898,1.301,5.728,2.537,8.418,3.661c0.753,0.317,2.031,0.647,3.395,0.974l-3.067,3.22c-0.813-0.187-1.513-0.372-1.907-0.548
			c-2.948-1.308-6.072-2.765-9.265-4.291c-0.73,1.062-6.741,9.703-10.967,12.24c-3.833,2.3-9.357,4.164-13.747,2.396
			c-4.297-1.73-6.656-6.676-4.407-10.951c3.118-5.932,15.117-7.415,21.013-6.387c0.348,0.059,4.049,1.139,6.372,1.859
			c-1.301-0.63-2.571-1.228-3.904-1.894c-2.643-1.297-5.242-2.671-8.043-4.138c-1.328-0.755-2.67-1.52-4.025-2.29
			c-1.359-0.737-2.703-1.688-4.07-2.532c-3.133-2.027-6.206-4.233-9.253-6.523c-1.143,2.31-5.317,10.46-8.774,13.327
			c-3.442,2.854-8.617,5.534-13.224,4.451c-4.51-1.06-7.591-5.591-6.018-10.157c2.186-6.337,13.82-9.619,19.805-9.497
			c0.372,0.007,4.657,0.578,7.003,0.937c-1.821-1.391-3.646-2.771-5.442-4.239c-5.188-4.235-10.307-8.684-15.434-13.099
			c-1.57-1.354-3.15-2.683-4.727-4.02c-0.398,0.827-5.149,10.62-9.022,13.832c-3.44,2.855-8.617,5.535-13.223,4.451
			c-4.51-1.06-7.591-5.59-6.017-10.155c2.185-6.337,13.819-9.62,19.803-9.498c0.45,0.01,6.614,0.839,8.171,1.127
			c-3.474-2.944-6.963-5.844-10.519-8.564c-4.9-3.76-9.918-7.178-15.022-10.13c-0.184,0.385-5.098,10.629-9.063,13.919
			c-3.441,2.854-8.618,5.534-13.224,4.451c-4.509-1.06-7.591-5.59-6.017-10.156c2.186-6.337,13.82-9.619,19.804-9.498
			c0.469,0.011,7.1,0.906,8.291,1.154c-0.304-0.174-0.6-0.389-0.906-0.56c-5.49-3.083-11.195-5.379-16.642-7.267
			c-3.163-1.104-6.249-1.981-9.268-2.768c-0.72,2.002-4.109,11.114-7.35,14.469c-3.107,3.215-7.958,6.447-12.655,5.876
			c-4.6-0.558-8.159-4.723-7.096-9.433c1.476-6.539,12.679-11.079,18.641-11.615c0.324-0.029,3.652,0.04,6.075,0.124
			c-1.369-0.335-2.774-0.705-4.092-0.999c-4.945-1.116-9.541-1.833-13.618-2.436c-2.32-0.324-4.424-0.571-6.397-0.781
			c-1.73,1.595-8.786,7.94-13.13,9.397c-4.238,1.42-10.033,2.055-13.939-0.616C121.601,188.932,120.361,183.596,123.475,179.906z"/>
		<path d="M178.32,186.473c-0.03,0.118-6.95-4.176-7.354-4.496c-4.692-3.717-11.574-13.656-9.225-19.934
			c1.693-4.523,6.953-6.054,11.106-3.999c4.241,2.096,6.527,7.458,7.363,11.85C181.192,175.051,178.321,186.464,178.32,186.473z"/>
	</g>
</g>
<g id="Device">
	<g>
		<g>
			<path style="fill:#FFFFFF;stroke:#263238;stroke-linecap:round;stroke-linejoin:round;stroke-miterlimit:10;" d="M471.294,76.981
				v329.867c0,9.054-7.34,16.394-16.394,16.394H312.368c-9.054,0-16.394-7.34-16.394-16.394V76.973
				c0-9.049,7.336-16.385,16.385-16.385h61.179l0.051,0.187c1.525,5.487,5.035,9.056,8.928,9.056h2.232
				c3.893,0,7.404-3.57,8.929-9.056l0.06-0.187H454.9C463.954,60.587,471.294,67.927,471.294,76.981z"/>
		</g>
		<g>
			<path style="fill:#92E3A9;stroke:#263238;stroke-linecap:round;stroke-linejoin:round;stroke-miterlimit:10;" d="M471.294,85.994
				v-9.013c0-9.054-7.34-16.394-16.394-16.394h-61.162l-0.06,0.187c-1.525,5.487-5.035,9.056-8.929,9.056h-2.232
				c-3.894,0-7.404-3.57-8.929-9.056l-0.051-0.187h-61.179c-9.049,0-16.385,7.336-16.385,16.385v9.021H471.294z"/>
		</g>
		<g>
			<path style="fill:#92E3A9;stroke:#263238;stroke-linecap:round;stroke-linejoin:round;stroke-miterlimit:10;" d="
				M482.443,155.767v-32.947h-2.98v-42.18c0-14.359-11.641-26-26-26H313.806c-14.359,0-26,11.641-26,26v335.171
				c0,14.359,11.64,26,26,26h139.656c14.359,0,26-11.641,26-26V183.847h2.98v-19.469h-2.98v-8.611H482.443z M471.294,397.24
				c0,14.364-11.646,26.002-26.002,26.002H321.977c-14.356,0-26.002-11.638-26.002-26.002V86.581
				c0-14.356,11.646-25.994,26.002-25.994h51.562l0.051,0.187c1.525,5.487,5.035,9.056,8.928,9.056h2.232
				c3.893,0,7.404-3.57,8.929-9.056l0.06-0.187h51.553c14.356,0,26.002,11.638,26.002,25.994V397.24z"/>
			<path style="fill:#263238;stroke:#263238;stroke-linecap:round;stroke-linejoin:round;stroke-miterlimit:10;" d="M451.377,58.222
				H315.892c-13.849,0-25.075,11.227-25.075,25.075v329.858c0,13.849,11.227,25.075,25.075,25.075h135.485
				c13.849,0,25.075-11.227,25.075-25.075V83.298C476.452,69.449,465.226,58.222,451.377,58.222z M471.294,398.164
				c0,13.85-11.228,25.078-25.078,25.078H321.052c-13.85,0-25.078-11.228-25.078-25.078V85.656
				c0-13.845,11.224-25.069,25.069-25.069h52.495l0.051,0.187c1.525,5.487,5.035,9.056,8.928,9.056h2.232
				c3.893,0,7.404-3.57,8.929-9.056l0.06-0.187h52.478c13.85,0,25.078,11.228,25.078,25.078V398.164z"/>
			<path style="fill:#FFFFFF;" d="M385.54,61.83c0-1.348-1.093-2.441-2.441-2.441c-1.348,0-2.441,1.093-2.441,2.441
				c0,1.348,1.093,2.441,2.441,2.441C384.447,64.271,385.54,63.178,385.54,61.83z"/>
			<g>
				<g>
					<path style="fill:#263238;" d="M311.557,71.184c0,2.47-2.774,3.359-2.785,5.243v0.129h2.692v0.831h-3.592v-0.702
						c0-2.645,2.774-3.16,2.774-5.465c0-0.842-0.281-1.287-0.96-1.287c-0.667,0-0.96,0.479-0.96,1.205v0.726h-0.854v-0.667
						c0-1.252,0.574-2.083,1.837-2.083C310.984,69.112,311.557,69.932,311.557,71.184z"/>
					<path style="fill:#263238;" d="M316.041,71.172v0.21c0,0.843-0.339,1.44-0.994,1.685c0.69,0.258,0.994,0.878,0.994,1.697v0.632
						c0,1.252-0.585,2.071-1.849,2.071c-1.252,0-1.837-0.819-1.837-2.071v-0.562h0.854v0.62c0,0.738,0.304,1.182,0.96,1.182
						c0.667,0,0.96-0.433,0.96-1.264v-0.632c0-0.808-0.34-1.194-1.03-1.217h-0.491v-0.819h0.538
						c0.609-0.023,0.984-0.409,0.984-1.123v-0.375c0-0.842-0.293-1.275-0.96-1.275c-0.656,0-0.96,0.456-0.96,1.194v0.421h-0.854
						v-0.374c0-1.252,0.585-2.06,1.837-2.06C315.456,69.112,316.041,69.92,316.041,71.172z"/>
					<path style="fill:#263238;" d="M317.81,71.792v1.135h-0.878v-1.135H317.81z M317.81,76.251v1.135h-0.878v-1.135H317.81z"/>
					<path style="fill:#263238;" d="M319.659,72.53c0.258-0.445,0.667-0.679,1.217-0.679c1.053,0,1.521,0.772,1.521,1.943v1.603
						c0,1.252-0.596,2.071-1.848,2.071c-1.253,0-1.838-0.819-1.838-2.071v-0.55h0.854v0.608c0,0.738,0.304,1.182,0.96,1.182
						c0.655,0,0.96-0.444,0.96-1.182v-1.591c0-0.737-0.304-1.182-0.96-1.182c-0.503,0-0.842,0.281-0.924,0.878v0.188h-0.854
						l0.222-4.553h3.23v0.819h-2.411L319.659,72.53z"/>
					<path style="fill:#263238;" d="M326.951,71.16v0.152h-0.854v-0.21c0-0.738-0.304-1.17-0.971-1.17
						c-0.691,0-0.995,0.445-0.995,1.322v1.837c0.222-0.562,0.667-0.878,1.322-0.878c1.053,0,1.522,0.761,1.522,1.943v1.241
						c0,1.252-0.621,2.071-1.873,2.071c-1.264,0-1.884-0.819-1.884-2.071v-4.178c0-1.299,0.586-2.107,1.884-2.107
						C326.366,69.112,326.951,69.908,326.951,71.16z M324.131,74.227v1.229c0,0.738,0.304,1.182,0.971,1.182
						c0.655,0,0.971-0.444,0.971-1.182v-1.229c0-0.737-0.316-1.182-0.971-1.182C324.435,73.045,324.131,73.489,324.131,74.227z"/>
				</g>
				<g>
					<rect x="414.073" y="71.521" style="fill:#263238;" width="2.313" height="5.783"/>
					<rect x="417.157" y="70.362" style="fill:#263238;" width="2.313" height="6.941"/>
					<rect x="420.241" y="69.54" style="fill:#263238;" width="2.313" height="7.764"/>
					<rect x="423.325" y="68.109" style="fill:#263238;" width="2.313" height="9.194"/>
					<g>
						<g>
							<path style="fill:#263238;" d="M454.263,77.145h-13.879v-8.481h13.879V77.145z M441.155,76.373h12.337v-6.939h-12.337V76.373
								z"/>
						</g>
						<g>
							<rect x="442.312" y="70.273" style="fill:#263238;" width="7.325" height="5.261"/>
						</g>
						<g>
							<rect x="453.781" y="71.905" style="fill:#263238;" width="1.745" height="1.998"/>
						</g>
					</g>
					<g>
						<path style="fill:#263238;" d="M435.296,75.299c-0.09,0-0.182-0.023-0.265-0.073c-2.824-1.678-4.691-0.12-4.769-0.055
							c-0.216,0.187-0.542,0.163-0.73-0.052c-0.187-0.216-0.167-0.54,0.048-0.728c0.1-0.088,2.487-2.133,5.982-0.057
							c0.246,0.146,0.327,0.465,0.18,0.711C435.644,75.209,435.472,75.299,435.296,75.299z"/>
					</g>
					<g>
						<path style="fill:#263238;" d="M436.34,73.557c-0.09,0-0.182-0.023-0.265-0.073c-4.084-2.429-6.828-0.079-6.857-0.057
							c-0.215,0.191-0.542,0.168-0.731-0.046c-0.189-0.215-0.169-0.543,0.046-0.731c0.034-0.031,3.344-2.866,8.071-0.057
							c0.246,0.146,0.327,0.465,0.18,0.711C436.689,73.467,436.516,73.557,436.34,73.557z"/>
					</g>
					<g>
						<path style="fill:#263238;" d="M437.289,71.54c-0.09,0-0.182-0.023-0.265-0.073c-5.172-3.076-8.611-0.18-8.755-0.055
							c-0.216,0.187-0.544,0.164-0.731-0.05c-0.188-0.215-0.167-0.541,0.048-0.729c0.04-0.036,4.126-3.531,9.968-0.057
							c0.246,0.146,0.327,0.465,0.18,0.711C437.637,71.45,437.465,71.54,437.289,71.54z"/>
					</g>
					<g>
						<path style="fill:#263238;" d="M433.735,76.168c0,0.718-0.582,1.3-1.3,1.3c-0.718,0-1.301-0.582-1.301-1.3
							c0-0.718,0.582-1.3,1.301-1.3C433.153,74.868,433.735,75.45,433.735,76.168z"/>
					</g>
				</g>
			</g>
		</g>
	</g>
</g>
<g id="Character_1">
	<g>
		<path style="fill:#263238;stroke:#263238;stroke-linecap:round;stroke-linejoin:round;stroke-miterlimit:10;" d="M116.824,293.036
			c0,0-8.829,17.953-9.124,19.719c-0.294,1.766-18.248,59.747-18.248,59.747l-49.445,24.134l2.649,7.064
			c0,0,59.158-14.127,60.335-15.01c1.177-0.883,23.84-48.268,23.84-48.268l3.532,4.415l19.131,34.141l16.776,50.328l10.595-4.12
			c0,0-9.712-57.392-9.712-58.275c0-0.883-13.539-52.094-13.539-52.094l2.06-9.418C155.674,305.397,118.001,289.504,116.824,293.036
			z"/>
		<path style="fill:#8C8C8C;stroke:#263238;stroke-linecap:round;stroke-linejoin:round;stroke-miterlimit:10;" d="M176.865,425.185
			c0,0,8.535-0.883,11.478-1.177s10.595-1.766,11.478,0.294c0.883,2.06-12.656,10.595-16.188,12.656
			c-3.532,2.06-11.773,5.886-14.421,5.298c-2.649-0.589-2.943-12.95-2.943-12.95L176.865,425.185z"/>
		<path style="fill:#8C8C8C;stroke:#263238;stroke-linecap:round;stroke-linejoin:round;stroke-miterlimit:10;" d="M40.007,396.636
			c0,0-10.89,2.649-10.89,4.12c0,1.472,2.649,12.361,3.237,15.599c0.589,3.237,5.298,13.244,7.358,13.244
			c2.06,0,2.943-2.943,2.943-6.181c0-3.238-1.472-15.305-1.177-16.188c0.294-0.883,1.177-3.532,1.177-3.532L40.007,396.636z"/>
		<g>
			<path style="fill:#92E3A9;stroke:#263238;stroke-linecap:round;stroke-linejoin:round;stroke-miterlimit:10;" d="
				M154.939,234.279c0,0-36.552,14.374-37.579,16.839s4.518,34.088,4.518,34.088s21.356-36.346,23.204-38.4
				s10.473-6.982,11.499-9.035C157.609,235.716,154.939,234.279,154.939,234.279z"/>
			
				<line style="fill:#FFFFFF;stroke:#263238;stroke-linecap:round;stroke-linejoin:round;stroke-miterlimit:10;" x1="135.226" y1="257.894" x2="125.985" y2="257.483"/>
		</g>
		<g>
			<path style="fill:#92E3A9;stroke:#263238;stroke-linecap:round;stroke-linejoin:round;stroke-miterlimit:10;" d="
				M160.127,230.383c0,0-14.879,11.107-19.699,16.975c-4.82,5.868-24.938,43.38-25.567,46.104c-0.629,2.724,1.048,3.982,4.191,5.239
				c3.143,1.257,32.901,11.107,35.416,10.478c2.515-0.629,2.934-0.838,3.982-3.982c1.048-3.143,14.25-46.523,14.25-46.523
				l5.239-14.25L160.127,230.383z"/>
			<polyline style="fill:none;stroke:#263238;stroke-linecap:round;stroke-linejoin:round;stroke-miterlimit:10;" points="
				137.268,266.806 156.101,273.586 138.022,275.469 			"/>
		</g>
		<g>
			<path style="fill:#FFFFFF;stroke:#263238;stroke-linecap:round;stroke-linejoin:round;stroke-miterlimit:10;" d="
				M196.085,198.159c0,0,3.762,4.232,3.292,6.818c-0.47,2.586-2.116,6.583-1.646,9.875c0.47,3.292,3.292,4.702,2.822,6.583
				c-0.47,1.881-4.467,3.762-4.467,3.762s-4.702,8.699-7.054,10.11c-2.351,1.411-7.759-0.94-7.759-0.94l-3.997,6.348l-11.756-11.991
				l4.702-8.229l-0.47-11.756c0,0,5.173-9.17,13.167-11.286C190.912,195.337,196.085,198.159,196.085,198.159z"/>
			<path style="fill:#263238;stroke:#263238;stroke-linecap:round;stroke-linejoin:round;stroke-miterlimit:10;" d="
				M196.085,198.159c0,0,7.054-3.292,4.702-11.991c-2.351-8.699-6.113-2.821-8.699-2.116c-2.586,0.705,0.705-6.113-3.762-4.702
				c-4.467,1.411-5.643,4.467-6.113,7.289c-0.47,2.822-0.94,3.292-3.527,3.762c-2.586,0.47-12.226-1.646-13.167,7.524
				c-0.941,9.17,4.232,24.688,4.232,24.688l2.351-6.819c0,0,4.938,0.941,5.408-0.705c0.47-1.646-1.646-5.643,0.235-6.818
				c1.881-1.176,4.232-0.47,4.938-2.351c0.705-1.881,2.821-6.818,3.527-6.818C186.915,199.099,196.085,198.159,196.085,198.159z"/>
			<path style="fill:#FFFFFF;stroke:#263238;stroke-linecap:round;stroke-linejoin:round;stroke-miterlimit:10;" d="
				M176.644,218.261c0,0-2.135-5.55-4.412-5.123c-2.277,0.427-1.992,9.393-0.569,10.389c1.423,0.996,4.27-0.142,4.27-0.142"/>
			<path style="fill:#263238;stroke:#263238;stroke-linecap:round;stroke-linejoin:round;stroke-miterlimit:10;" d="
				M190.733,226.799c0,0-4.696-1.139-5.693-3.985c0,0-2.277,5.266,0.996,5.977C189.31,229.503,190.733,226.799,190.733,226.799z"/>
			<path style="fill:#263238;" d="M193.294,216.482c0,1.218-0.414,2.206-0.925,2.206c-0.511,0-0.925-0.988-0.925-2.206
				c0-1.218,0.414-2.206,0.925-2.206C192.88,214.276,193.294,215.263,193.294,216.482z"/>
			<path style="fill:none;stroke:#263238;stroke-linecap:round;stroke-linejoin:round;stroke-miterlimit:10;" d="M189.737,210.576
				c0,0,2.989-2.846,5.266-0.427"/>
			<polygon style="fill:#263238;stroke:#263238;stroke-linecap:round;stroke-linejoin:round;stroke-miterlimit:10;" points="
				181.272,234.367 177.07,231.211 177.275,240.715 			"/>
		</g>
		<polygon style="fill:#FFFFFF;stroke:#263238;stroke-linecap:round;stroke-linejoin:round;stroke-miterlimit:10;" points="
			164.738,225.982 180.455,242.328 178.778,250.92 158.241,229.963 		"/>
		<path style="fill:#92E3A9;stroke:#263238;stroke-linecap:round;stroke-linejoin:round;stroke-miterlimit:10;" d="M143.362,259.512
			c0,0,17.184,42.751,18.861,42.751s45.894-30.177,45.894-30.177l-2.934-5.449l-33.949,12.155c0,0-10.688-32.273-11.526-33.74
			c-0.838-1.467-3.772-1.676-7.125-0.838"/>
		<path style="fill:#FFFFFF;stroke:#263238;stroke-linecap:round;stroke-linejoin:round;stroke-miterlimit:10;" d="M205.183,266.637
			c0,0,2.86-4.542,3.964-7.024c1.103-2.482,3.723-6.619,4.137-7.86c0.414-1.241,1.103-0.827,1.241,0.689
			c0.138,1.517,0.276,2.482-0.276,3.171c-0.552,0.689-0.827,2.206-1.103,2.62s14.479-9.377,15.03-9.515
			c0.551-0.138,1.655,0.276,1.379,1.379c-0.276,1.103-7.722,6.205-7.722,6.205l0.689,1.379c0,0,8.411-3.447,9.928-3.447
			c1.517,0,1.93,1.103,1.379,1.93c-0.552,0.827-9.515,3.999-9.515,3.999l0.689,1.655c0,0,7.446-1.241,8.274-0.552
			c0.827,0.69,0,1.793-0.551,2.068c-0.552,0.276-7.308,1.655-7.308,1.655l-0.276,1.103c0,0,6.619-0.138,7.033,0.138
			c0.414,0.276,0.414,1.517-0.827,1.655c-1.241,0.138-7.722,1.103-7.722,1.103s-7.722,2.482-9.377,2.896
			c-1.655,0.414-6.132,0.2-6.132,0.2L205.183,266.637z"/>
	</g>
</g>
<g id="Character_2">
	<g>
		<path style="fill:#FFFFFF;stroke:#263238;stroke-linecap:round;stroke-linejoin:round;stroke-miterlimit:10;" d="M328.285,224.019
			l-0.489-7.655c0,0-1.303-5.375-1.629-7.004c-0.326-1.629,0.326-7.004-1.14-6.841c-1.466,0.163-1.466,1.303-1.792,2.443
			c-0.326,1.14,0,5.538,0,5.538s-4.886-5.538-5.701-6.027c-0.814-0.489-2.117,0-2.28,1.14c-0.163,1.14,0.163,2.28,0.163,2.28
			s-2.28,3.583-3.258,5.538c-0.977,1.954-1.629,4.886,0,6.515c1.629,1.629,10.098,6.678,10.098,6.678L328.285,224.019z"/>
		<g>
			<path style="fill:#FFFFFF;stroke:#263238;stroke-linecap:round;stroke-linejoin:round;stroke-miterlimit:10;" d="
				M430.763,156.008c0,0,0.695-6.092,1.449-7.391c0.754-1.299,9.153-3.349,9.153-3.349s2.137-6.358,2.866-5.996
				c0,0,2.367-2.425,2.966-1.874c0.599,0.552,0.599,0.552,0.599,0.552s1.365-1.577,2.052-0.545c0.688,1.032,0.688,1.032,0.688,1.032
				s1.803-0.996,1.797,1.655c-0.007,2.651-2.001,7.989-2.624,9.098c-0.623,1.109-9.848,4.968-9.848,4.968l-3.915,2.103
				L430.763,156.008z"/>
			<path style="fill:none;stroke:#263238;stroke-linecap:round;stroke-linejoin:round;stroke-miterlimit:10;" d="M444.232,139.272
				c0,0,0.973,0.014,0.287,1.94c-0.686,1.927-0.965,6.051-1.345,7.069c-0.38,1.017-1.245,1.462-1.245,1.462"/>
			<path style="fill:none;stroke:#263238;stroke-linecap:round;stroke-linejoin:round;stroke-miterlimit:10;" d="M447.797,137.95
				c0,0-1.512,8.714-1.71,9.697c-0.197,0.984-0.879,1.394-1.727,1.93"/>
			<path style="fill:none;stroke:#263238;stroke-linecap:round;stroke-linejoin:round;stroke-miterlimit:10;" d="M450.537,138.437
				c0,0-0.942,6.667-1.346,8.068c-0.404,1.401-1.076,2.378-1.775,2.696"/>
		</g>
		<g>
			<path style="fill:#92E3A9;stroke:#263238;stroke-linecap:round;stroke-linejoin:round;stroke-miterlimit:10;" d="
				M376.986,230.534c0,0-10.587,2.769-12.216,4.723c-1.629,1.954-19.382,17.265-19.382,17.265l-17.102-28.503l-6.026,2.606
				c0,0,14.17,41.696,15.473,43.325c1.303,1.629,4.235,1.792,5.701,0.977c1.466-0.814,27.038-12.542,27.038-12.542l6.026,23.292
				h33.553c0,0,6.515-45.443,6.678-46.094c0.163-0.652,2.606-7.818,2.606-7.818l11.239-33.227l5.375-38.276l-5.212-0.652
				l-11.89,37.136l-14.822,20.522l-19.057,15.473L376.986,230.534z"/>
			<path style="fill:none;stroke:#263238;stroke-linecap:round;stroke-linejoin:round;stroke-miterlimit:10;" d="M404.996,248.68
				c0,0-2.843,6.753-9.952,14.572"/>
			<path style="fill:none;stroke:#263238;stroke-linecap:round;stroke-linejoin:round;stroke-miterlimit:10;" d="M394.334,256.855
				c0,0-2.133,3.554-6.397,7.464"/>
			
				<line style="fill:none;stroke:#263238;stroke-linecap:round;stroke-linejoin:round;stroke-miterlimit:10;" x1="365.175" y1="246.937" x2="364.404" y2="245.272"/>
			
				<line style="fill:none;stroke:#263238;stroke-linecap:round;stroke-linejoin:round;stroke-miterlimit:10;" x1="370.471" y1="258.386" x2="366.967" y2="250.813"/>
			
				<line style="fill:none;stroke:#263238;stroke-linecap:round;stroke-linejoin:round;stroke-miterlimit:10;" x1="345.387" y1="252.523" x2="337.692" y2="256.972"/>
		</g>
		<g>
			<g>
				<path style="fill:#FFFFFF;stroke:#263238;stroke-linecap:round;stroke-linejoin:round;stroke-miterlimit:10;" d="
					M373.328,194.128c0,0-1.231,7.494-2.534,9.123c-1.303,1.629-4.561,3.132-4.561,5.575c0,2.443,2.773,3.792,2.773,3.792
					s1.626,9.385,4.069,11.666c2.443,2.28,7.332-0.427,7.332-0.427s6.678-9.936,5.701-17.428
					C385.129,198.936,375.608,191.522,373.328,194.128z"/>
				<path style="fill:#263238;" d="M372.545,205.477c-0.252,1.091-0.844,1.886-1.321,1.775c-0.477-0.11-0.66-1.084-0.407-2.175
					c0.252-1.091,0.844-1.886,1.321-1.775C372.614,203.413,372.797,204.387,372.545,205.477z"/>
				<path style="fill:none;stroke:#263238;stroke-linecap:round;stroke-linejoin:round;stroke-miterlimit:10;" d="M370.793,214.147
					c0,0,1.774,1.014,2.534-2.281"/>
				<path style="fill:none;stroke:#263238;stroke-linecap:round;stroke-linejoin:round;stroke-miterlimit:10;" d="M372.417,200.998
					c0,0,1.445-0.413,1.652,1.342"/>
			</g>
			<path style="fill:#263238;stroke:#263238;stroke-linecap:round;stroke-linejoin:round;stroke-miterlimit:10;" d="
				M413.643,214.338c-3.888-6.11-7.221-2.777-8.332-9.998c-1.111-7.221,0-14.997-7.499-19.163
				c-4.542-2.523-9.276-1.784-12.312-0.811l-0.208-0.253c0,0-7.004-3.746-11.401-1.629s-6.841,10.261-4.398,12.216
				c1.969,1.575,3.514,0.931,4.807,1.643c-0.226,5.23,3.126,9.291,4.072,13.55c1.111,4.999-4.444,8.887-5.277,17.219
				c-0.833,8.332,8.332,17.497,18.33,19.163c9.998,1.666,19.718-5.832,22.773-12.22
				C417.253,227.669,417.531,220.448,413.643,214.338z"/>
		</g>
		<path style="fill:#8C8C8C;stroke:#263238;stroke-linecap:round;stroke-linejoin:round;stroke-miterlimit:10;" d="M373.456,429.609
			l-7.947,7.727c0,0-7.727,2.428-7.064,4.194c0.662,1.766,26.271,0,26.271,0s1.766-1.104,1.325-4.415
			c-0.442-3.312-0.883-11.48-0.883-11.48L373.456,429.609z"/>
		<path style="fill:#8C8C8C;stroke:#263238;stroke-linecap:round;stroke-linejoin:round;stroke-miterlimit:10;" d="M442.144,429.609
			l7.947,7.727c0,0,7.727,2.428,7.064,4.194c-0.662,1.766-26.271,0-26.271,0s-1.766-1.104-1.325-4.415
			c0.442-3.312,0.883-11.48,0.883-11.48L442.144,429.609z"/>
		<path style="fill:#263238;stroke:#263238;stroke-linecap:round;stroke-linejoin:round;stroke-miterlimit:10;" d="M376.497,281.678
			c0,0-9.002,19.447-9.002,28.94c0,9.493-0.442,35.101,1.766,47.243c2.208,12.142,4.194,71.748,4.194,71.748
			s8.168,4.415,12.142,1.104c3.974-3.312,2.208-19.648,2.428-21.414c0.221-1.766,3.091-54.087,3.091-54.087l3.312-31.348
			c0,0,16.336,58.502,19.648,64.904c3.311,6.402,16.337,41.724,16.337,41.724s2.428,2.428,4.636,2.208
			c2.208-0.221,4.857-3.091,5.298-3.753c0.441-0.662,0.441-0.662,0.441-0.662l-4.857-23.401c0,0-4.195-27.375-4.415-28.258
			c-0.221-0.883-7.064-50.334-7.064-50.334s-4.857-21.414-7.727-30.024c-2.87-8.61-6.676-14.591-6.676-14.591H376.497z"/>
		<path style="fill:#FFFFFF;stroke:#263238;stroke-linecap:round;stroke-linejoin:round;stroke-miterlimit:10;" d="M382.728,434.246
			"/>
	</g>
</g>
<g id="Chart_3">
	<g>
		<g>
			<g>
				<path style="fill:#263238;stroke:#263238;stroke-linecap:round;stroke-linejoin:round;stroke-miterlimit:10;" d="
					M462.926,436.76c0-3.068-2.488-5.556-5.556-5.556c-3.068,0-5.556,2.488-5.556,5.556c0,3.068,2.487,5.556,5.556,5.556
					C460.438,442.316,462.926,439.828,462.926,436.76z"/>
				<path style="fill:#FFFFFF;stroke:#263238;stroke-linecap:round;stroke-linejoin:round;stroke-miterlimit:10;" d="
					M459.805,436.76c0-1.345-1.09-2.435-2.435-2.435s-2.435,1.09-2.435,2.435s1.09,2.435,2.435,2.435
					S459.805,438.105,459.805,436.76z"/>
			</g>
			<g>
				<path style="fill:#263238;stroke:#263238;stroke-linecap:round;stroke-linejoin:round;stroke-miterlimit:10;" d="
					M561.003,436.76c0-3.068-2.488-5.556-5.556-5.556c-3.068,0-5.556,2.488-5.556,5.556c0,3.068,2.488,5.556,5.556,5.556
					C558.515,442.316,561.003,439.828,561.003,436.76z"/>
				<path style="fill:#FFFFFF;stroke:#263238;stroke-linecap:round;stroke-linejoin:round;stroke-miterlimit:10;" d="
					M557.882,436.76c0-1.345-1.09-2.435-2.435-2.435c-1.345,0-2.435,1.09-2.435,2.435s1.09,2.435,2.435,2.435
					C556.792,439.195,557.882,438.105,557.882,436.76z"/>
			</g>
			
				<rect x="441.627" y="425.175" style="fill:#FFFFFF;stroke:#263238;stroke-linecap:round;stroke-linejoin:round;stroke-miterlimit:10;" width="129.13" height="6.425"/>
		</g>
		
			<rect x="447.449" y="361.754" style="fill:#8C8C8C;stroke:#263238;stroke-linecap:round;stroke-linejoin:round;stroke-miterlimit:10;" width="26.589" height="63.1"/>
		
			<rect x="488.324" y="324.261" style="fill:#92E3A9;stroke:#263238;stroke-linecap:round;stroke-linejoin:round;stroke-miterlimit:10;" width="26.589" height="100.593"/>
		
			<rect x="529.2" y="307.892" style="fill:#263238;stroke:#263238;stroke-linecap:round;stroke-linejoin:round;stroke-miterlimit:10;" width="26.589" height="116.962"/>
	</g>
</g>
<g id="Character_3">
	<g>
		<path style="fill:#263238;stroke:#263238;stroke-linecap:round;stroke-linejoin:round;stroke-miterlimit:10;" d="M613.587,283.199
			l-34.699,23.133c0,0-3.128,1.244-5.599,0.256c-2.471-0.988-8.268-3.105-9.978-3.384c-1.709-0.279-9.974,0.105-9.974,0.105
			s15.411,7.803,16.836,8.036c1.425,0.233,10.908-2.314,12.519-3.221c1.611-0.907,34.583-15.254,34.583-15.254L613.587,283.199z"/>
		<path style="fill:#263238;stroke:#263238;stroke-linecap:round;stroke-linejoin:round;stroke-miterlimit:10;" d="M653.838,289.859
			c0,0,10.483,19.535,10.765,21.232c0.283,1.697,17.204,61.496,17.204,61.496l33.738,40.689l-5.113,5.136
			c0,0-46.2-35.771-46.881-37.009c-0.681-1.239-22.681-38.588-22.681-38.588l-3.393,4.241l-14.985,28.557l-17.556,53.327
			l-10.179-3.958c0,0,10.771-60.112,10.771-60.961c0-0.848,13.006-50.045,13.006-50.045l-1.979-9.048
			C616.555,304.927,652.707,286.467,653.838,289.859z"/>
		<path style="fill:#8C8C8C;stroke:#263238;stroke-linecap:round;stroke-linejoin:round;stroke-miterlimit:10;" d="M594.757,424.98
			c0,0-8.199-0.848-11.027-1.131c-2.827-0.283-10.179-1.696-11.027,0.283c-0.848,1.979,12.158,10.179,15.551,12.158
			c3.393,1.979,11.31,5.655,13.854,5.089c2.545-0.565,2.827-12.441,2.827-12.441L594.757,424.98z"/>
		<path style="fill:#8C8C8C;stroke:#263238;stroke-linecap:round;stroke-linejoin:round;stroke-miterlimit:10;" d="M715.546,413.276
			c0,0,8.485,6.627,7.903,7.915c-0.582,1.288-7.209,9.774-9.005,12.375c-1.796,2.601-9.877,9.499-11.681,8.684
			c-1.804-0.815-1.412-3.741-0.131-6.575c1.281-2.834,7.343-12.816,7.435-13.705c0.092-0.889,0.367-3.557,0.367-3.557
			L715.546,413.276z"/>
		<path style="fill:#92E3A9;stroke:#263238;stroke-linecap:round;stroke-linejoin:round;stroke-miterlimit:10;" d="M600.106,249.54
			c0,0,2.528,21.586,6.223,27.615c3.695,6.029,10.696,33.838,11.668,35.199c0.972,1.361,3.306,1.556,7.584,0.972
			c4.278-0.583,27.226-13.418,29.56-15.752c2.334-2.334,2.139-4.278,1.361-7.001s-16.53-39.089-27.226-49.784
			c-10.696-10.696-14.585-11.668-14.585-11.668L600.106,249.54z"/>
		<g>
			<path style="fill:#FFFFFF;stroke:#263238;stroke-linecap:round;stroke-linejoin:round;stroke-miterlimit:10;" d="
				M568.991,204.618c0,0-0.195,6.029-0.195,8.362c0,2.334,1.75,8.168,1.167,10.501c-0.584,2.334-3.501,4.862-2.139,6.223
				c1.361,1.361,6.029,2.528,6.029,2.528l7.584,7.779l12.13-2.14l4.983,7.196l14.391-16.335l-9.529-8.168l-3.112-16.53
				c0,0-10.112-4.473-17.113-4.667C576.186,199.172,568.991,204.618,568.991,204.618z"/>
			<path style="fill:#263238;stroke:#263238;stroke-linecap:round;stroke-linejoin:round;stroke-miterlimit:10;" d="
				M584.457,192.068c0,0-4.049-5.82-8.604-4.808c-4.555,1.012-3.796,6.579-4.555,6.833c-0.759,0.253-6.326-3.796-8.857,0.759
				c-2.53,4.555-0.759,9.11,3.796,10.881s11.388-2.025,11.134-0.759c-0.253,1.265-3.037,3.29,0,4.808
				c3.037,1.518,8.098,3.037,8.098,3.037l2.024,19.232c0,0-5.061-4.049-8.351-3.543c-3.29,0.506-5.82,3.543-5.061,5.567
				c0.759,2.024,5.061,8.604,7.339,8.604c2.277,0,12.147-4.808,12.147-4.808s0.759-0.506,0.253-3.543
				c-0.506-3.037-2.784-15.436-2.784-17.461c0-2.024,1.771-4.049,4.049-2.024c2.277,2.024,2.784,6.833,2.784,6.833
				s2.024,1.771,4.049,1.771c2.024,0,2.531,1.265,2.784-1.265c0.253-2.53,0-4.808,0.253-5.82c0.253-1.012,2.531-14.677-0.759-19.232
				C600.906,192.574,591.543,189.285,584.457,192.068z"/>
			<path style="fill:#263238;" d="M575.657,220.363c0.202,1.406-0.123,2.616-0.726,2.703c-0.602,0.086-1.254-0.983-1.456-2.39
				c-0.202-1.406,0.123-2.616,0.725-2.703C574.803,217.887,575.455,218.957,575.657,220.363z"/>
			<path style="fill:none;stroke:#263238;stroke-linecap:round;stroke-linejoin:round;stroke-miterlimit:10;" d="M571.908,216.869
				c0,0,1.361-2.528,4.084-0.583"/>
			<path style="fill:none;stroke:#FFFFFF;stroke-linecap:round;stroke-linejoin:round;stroke-miterlimit:10;" d="M577.936,234.566
				c0,0,2.723-0.583,3.306-3.306"/>
		</g>
		<polygon style="fill:#FFFFFF;stroke:#263238;stroke-linecap:round;stroke-linejoin:round;stroke-miterlimit:10;" points="
			610.996,225.231 595.633,248.568 599.134,252.652 616.831,228.537 		"/>
		<g>
			<path style="fill:#92E3A9;stroke:#263238;stroke-linecap:round;stroke-linejoin:round;stroke-miterlimit:10;" d="
				M608.792,247.454l-5.175,41.432l-32.513,16.576l2.329,6.827c0,0,47.294-8.521,49.238-10.533c1.944-2.012,2.416-4.325,2.416-4.325
				l4.236-48.632"/>
			<path style="fill:#FFFFFF;stroke:#263238;stroke-linecap:round;stroke-linejoin:round;stroke-miterlimit:10;" d="M551.093,300.5
				c0,0-11.596,3.322-11.254,4.347c0.342,1.025,2.734,1.538,2.734,1.538l8.372-4.272C550.944,302.113,552.949,301.108,551.093,300.5
				z"/>
			<path style="fill:#FFFFFF;stroke:#263238;stroke-linecap:round;stroke-linejoin:round;stroke-miterlimit:10;" d="
				M571.104,305.462l-6.694,0.604c0,0-12.057-5.309-13.318-5.566c-1.261-0.258-10.123,5.598-10.127,6.693
				c-0.004,1.094-0.219,2.145,1.802,1.901c2.021-0.244,7.252-3.337,7.252-3.337s5.401,6.797,7.882,7.523
				c2.48,0.725,5.604-1.703,5.604-1.703l9.929,0.713L571.104,305.462z"/>
			
				<line style="fill:none;stroke:#263238;stroke-linecap:round;stroke-linejoin:round;stroke-miterlimit:10;" x1="576.837" y1="303.129" x2="578.909" y2="311.217"/>
			<path style="fill:none;stroke:#263238;stroke-linecap:round;stroke-linejoin:round;stroke-miterlimit:10;" d="M603.618,288.886
				c0,0,3.063,2.159,12.122-0.372"/>
			<path style="fill:none;stroke:#263238;stroke-linecap:round;stroke-linejoin:round;stroke-miterlimit:10;" d="M613.016,282.212
				c-1.026,0.756-2.094,1.444-3.193,2.027"/>
			<path style="fill:none;stroke:#263238;stroke-linecap:round;stroke-linejoin:round;stroke-miterlimit:10;" d="M624.696,269.317
				c0,0-2.767,4.451-7.002,8.778"/>
		</g>
	</g>
</g>
<g id="Chart_2">
	<g>
		<g>
			
				<polyline style="fill:none;stroke:#263238;stroke-width:2;stroke-linecap:round;stroke-linejoin:round;stroke-miterlimit:10;" points="
				304.807,231.4 341.793,166.933 394.482,180.777 463.908,128.914 			"/>
			<path style="fill:#263238;stroke:#263238;stroke-linecap:round;stroke-linejoin:round;stroke-miterlimit:10;" d="
				M344.066,166.933c0-1.255-1.018-2.273-2.273-2.273c-1.255,0-2.273,1.018-2.273,2.273c0,1.255,1.018,2.273,2.273,2.273
				C343.048,169.206,344.066,168.189,344.066,166.933z"/>
			<path style="fill:#263238;stroke:#263238;stroke-linecap:round;stroke-linejoin:round;stroke-miterlimit:10;" d="
				M306.253,232.227c0-1.255-1.018-2.273-2.273-2.273s-2.273,1.018-2.273,2.273c0,1.255,1.018,2.273,2.273,2.273
				S306.253,233.482,306.253,232.227z"/>
			<path style="fill:#263238;stroke:#263238;stroke-linecap:round;stroke-linejoin:round;stroke-miterlimit:10;" d="
				M396.962,180.364c0-1.255-1.018-2.273-2.273-2.273c-1.255,0-2.273,1.018-2.273,2.273s1.018,2.273,2.273,2.273
				C395.944,182.637,396.962,181.619,396.962,180.364z"/>
			<path style="fill:#263238;stroke:#263238;stroke-linecap:round;stroke-linejoin:round;stroke-miterlimit:10;" d="
				M467.627,128.294c0-1.255-1.018-2.273-2.273-2.273c-1.255,0-2.273,1.018-2.273,2.273c0,1.255,1.018,2.273,2.273,2.273
				C466.61,130.567,467.627,129.55,467.627,128.294z"/>
		</g>
		
			<line style="fill:none;stroke:#263238;stroke-linecap:round;stroke-linejoin:round;stroke-miterlimit:10;" x1="304.189" y1="104.05" x2="312.989" y2="104.05"/>
		
			<line style="fill:none;stroke:#263238;stroke-linecap:round;stroke-linejoin:round;stroke-miterlimit:10;" x1="304.189" y1="122.383" x2="312.989" y2="122.383"/>
		
			<line style="fill:none;stroke:#263238;stroke-linecap:round;stroke-linejoin:round;stroke-miterlimit:10;" x1="304.189" y1="140.717" x2="312.989" y2="140.717"/>
		
			<line style="fill:none;stroke:#263238;stroke-linecap:round;stroke-linejoin:round;stroke-miterlimit:10;" x1="304.189" y1="159.05" x2="312.989" y2="159.05"/>
		
			<line style="fill:none;stroke:#263238;stroke-linecap:round;stroke-linejoin:round;stroke-miterlimit:10;" x1="304.189" y1="177.383" x2="312.989" y2="177.383"/>
		
			<line style="fill:none;stroke:#263238;stroke-linecap:round;stroke-linejoin:round;stroke-miterlimit:10;" x1="304.189" y1="195.716" x2="312.989" y2="195.716"/>
	</g>
</g>
<g id="Chart_1">
	<g>
		<g>
			<path style="fill:#92E3A9;stroke:#263238;stroke-linecap:round;stroke-linejoin:round;stroke-miterlimit:10;" d="
				M250.394,441.772c45.182-5.217,77.58-46.074,72.363-91.256c-5.217-45.182-46.074-77.58-91.256-72.363
				c-45.182,5.217-77.58,46.074-72.363,91.256C164.355,414.591,205.212,446.989,250.394,441.772z M235.972,316.873
				c23.798-2.748,45.317,14.316,48.065,38.114c2.748,23.798-14.316,45.317-38.114,48.065c-23.798,2.748-45.317-14.316-48.065-38.114
				C195.11,341.14,212.174,319.621,235.972,316.873z"/>
			<path style="fill:#8C8C8C;stroke:#263238;stroke-linecap:round;stroke-linejoin:round;stroke-miterlimit:10;" d="
				M250.394,441.772l-4.471-38.72c-23.798,2.748-45.317-14.316-48.065-38.114c-0.965-8.359,0.522-16.432,3.879-23.514
				l-35.235-16.659c-6.373,13.446-9.196,28.774-7.364,44.644C164.355,414.591,205.212,446.989,250.394,441.772z"/>
			<g>
				<path style="fill:#FFFFFF;stroke:#263238;stroke-linecap:round;stroke-linejoin:round;stroke-miterlimit:10;" d="
					M240.947,359.963c0.283-0.15,0.154-0.427-0.321-0.811L240.947,359.963z"/>
				<g>
					<path style="fill:#263238;stroke:#263238;stroke-linecap:round;stroke-linejoin:round;stroke-miterlimit:10;" d="
						M201.736,341.424c4.647-9.805,12.89-17.699,23.232-21.789l-14.359-36.238c-19.634,7.766-35.278,22.757-44.102,41.371
						L201.736,341.424z"/>
					<path style="fill:#FFFFFF;stroke:#263238;stroke-linecap:round;stroke-linejoin:round;stroke-miterlimit:10;" d="
						M165.634,326.679c0.258-0.583,0.518-1.165,0.789-1.74C166.152,325.514,165.892,326.096,165.634,326.679z"/>
					<path style="fill:#FFFFFF;stroke:#263238;stroke-linecap:round;stroke-linejoin:round;stroke-miterlimit:10;" d="
						M164.968,328.23c-0.173,0.413-0.363,0.817-0.529,1.233c0.006,0.002,0.012,0.004,0.018,0.006
						C164.622,329.054,164.795,328.642,164.968,328.23z"/>
				</g>
			</g>
		</g>
		<g>
			<path style="fill:none;stroke:#263238;stroke-linecap:round;stroke-linejoin:round;stroke-miterlimit:10;" d="M173.037,294.912
				c-7.154,7.525-13.065,16.243-17.402,25.825"/>
			<path style="fill:none;stroke:#263238;stroke-linecap:round;stroke-linejoin:round;stroke-miterlimit:10;" d="M322.03,404.664
				c6.688-11.936,10.827-25.494,11.679-39.936"/>
			<path style="fill:none;stroke:#263238;stroke-linecap:round;stroke-linejoin:round;stroke-miterlimit:10;" d="M320.143,396.771
				c5.405-11.405,8.429-24.159,8.429-37.619c0-2.986-0.149-5.937-0.439-8.846"/>
			<path style="fill:none;stroke:#263238;stroke-linecap:round;stroke-linejoin:round;stroke-miterlimit:10;" d="M177.991,297.416
				c-6.905,7.005-12.644,15.164-16.902,24.16"/>
		</g>
	</g>
</g>
<g id="Floor">
	
		<line style="fill:none;stroke:#263238;stroke-linecap:round;stroke-linejoin:round;stroke-miterlimit:10;" x1="13.894" y1="442.316" x2="734.126" y2="442.316"/>
</g>
<g id="Text">
	<g>
		<path style="fill:#263238;" d="M328.037,120.57v-1.927c-1.423-0.056-2.487-0.511-3.192-1.368c-0.705-0.857-1.085-2.135-1.14-3.835
			l2.922-0.497c0.028,0.691,0.1,1.268,0.218,1.73c0.117,0.463,0.293,0.809,0.528,1.037c0.235,0.228,0.539,0.342,0.912,0.342
			c0.428,0,0.722-0.138,0.881-0.415c0.159-0.276,0.239-0.594,0.239-0.953c0-0.705-0.163-1.296-0.487-1.772
			c-0.325-0.477-0.77-0.957-1.337-1.44l-1.762-1.513c-0.401-0.373-0.76-0.753-1.078-1.14c-0.318-0.387-0.57-0.829-0.756-1.327
			c-0.187-0.497-0.28-1.084-0.28-1.762c0-1.299,0.37-2.311,1.109-3.037c0.739-0.726,1.73-1.136,2.974-1.233v-1.845h0.995v1.845
			c0.746,0.042,1.358,0.211,1.835,0.508c0.477,0.297,0.839,0.67,1.088,1.12c0.249,0.449,0.428,0.939,0.538,1.472
			c0.11,0.532,0.18,1.046,0.208,1.544l-2.964,0.436c-0.014-0.511-0.055-0.964-0.124-1.358c-0.069-0.394-0.194-0.701-0.373-0.922
			c-0.18-0.221-0.456-0.325-0.829-0.311c-0.387,0.014-0.681,0.166-0.881,0.456c-0.2,0.29-0.3,0.615-0.3,0.974
			c0,0.636,0.152,1.147,0.456,1.534c0.304,0.387,0.65,0.76,1.036,1.119l1.721,1.492c0.456,0.414,0.877,0.864,1.264,1.348
			c0.387,0.484,0.698,1.019,0.933,1.606c0.235,0.587,0.353,1.261,0.353,2.021c0,0.733-0.148,1.399-0.446,2.001
			c-0.297,0.601-0.725,1.088-1.285,1.461c-0.559,0.373-1.22,0.594-1.979,0.663v1.948H328.037z"/>
		<path style="fill:#263238;" d="M336.162,118.435v-13.473c-0.124,0.069-0.293,0.142-0.508,0.218
			c-0.214,0.076-0.445,0.159-0.694,0.248c-0.249,0.09-0.484,0.173-0.705,0.249c-0.221,0.076-0.394,0.142-0.518,0.197v-2.363
			c0.165-0.083,0.39-0.193,0.673-0.331c0.283-0.138,0.584-0.291,0.902-0.456c0.318-0.166,0.618-0.345,0.902-0.539
			c0.283-0.193,0.5-0.373,0.653-0.539h2.487v16.79H336.162z"/>
		<path style="fill:#263238;" d="M346.96,118.725c-1.009,0-1.845-0.207-2.508-0.622c-0.663-0.414-1.161-0.985-1.492-1.71
			c-0.332-0.726-0.497-1.565-0.497-2.519v-7.524c0-0.981,0.159-1.841,0.477-2.581c0.318-0.739,0.809-1.316,1.472-1.73
			c0.663-0.415,1.513-0.622,2.549-0.622c1.022,0,1.862,0.207,2.519,0.622c0.656,0.415,1.144,0.992,1.461,1.73
			c0.318,0.74,0.477,1.6,0.477,2.581v7.524c0,0.954-0.165,1.793-0.498,2.519c-0.332,0.725-0.829,1.295-1.492,1.71
			C348.764,118.518,347.942,118.725,346.96,118.725z M346.96,115.906c0.374,0,0.643-0.117,0.809-0.353
			c0.166-0.234,0.276-0.515,0.332-0.839c0.055-0.324,0.083-0.625,0.083-0.901v-7.4c0-0.304-0.024-0.622-0.073-0.954
			c-0.048-0.332-0.155-0.618-0.321-0.86c-0.166-0.241-0.442-0.362-0.829-0.362c-0.387,0-0.667,0.121-0.839,0.362
			c-0.173,0.242-0.283,0.529-0.332,0.86c-0.048,0.331-0.073,0.65-0.073,0.954v7.4c0,0.276,0.028,0.577,0.083,0.901
			c0.055,0.325,0.173,0.605,0.352,0.839C346.331,115.789,346.601,115.906,346.96,115.906z"/>
		<path style="fill:#263238;" d="M353.946,121.295l-0.249-1.057c0.359-0.111,0.684-0.3,0.974-0.57
			c0.29-0.27,0.436-0.681,0.436-1.233h-1.638v-3.026h3.006v2.674c-0.014,0.967-0.228,1.721-0.643,2.259
			C355.418,120.881,354.789,121.199,353.946,121.295z"/>
		<path style="fill:#263238;" d="M362.63,118.663c-1.036,0-1.865-0.163-2.487-0.487c-0.622-0.324-1.071-0.808-1.347-1.451
			c-0.277-0.643-0.415-1.427-0.415-2.353c0-0.041,0-0.083,0-0.125c0-0.042,0-0.083,0-0.125h3.026c0,0.705,0.072,1.23,0.217,1.576
			c0.145,0.345,0.487,0.518,1.026,0.518c0.331,0,0.587-0.104,0.767-0.311c0.18-0.207,0.304-0.56,0.373-1.057
			c0.069-0.497,0.104-1.167,0.104-2.011v-1.72c-0.194,0.304-0.477,0.539-0.85,0.705c-0.373,0.166-0.801,0.256-1.285,0.27
			c-0.898,0.014-1.617-0.204-2.156-0.653c-0.539-0.449-0.922-1.054-1.15-1.813c-0.228-0.76-0.342-1.603-0.342-2.529
			c0-1.147,0.145-2.142,0.435-2.985c0.29-0.843,0.77-1.499,1.441-1.969c0.67-0.47,1.551-0.705,2.643-0.705
			c1.064,0,1.928,0.225,2.591,0.673c0.664,0.449,1.147,1.075,1.451,1.876c0.304,0.802,0.456,1.741,0.456,2.819v6.115
			c0,1.092-0.124,2.073-0.373,2.943c-0.249,0.871-0.698,1.555-1.348,2.052C364.758,118.415,363.832,118.663,362.63,118.663z
			 M362.651,109.646c0.317,0,0.577-0.086,0.777-0.259c0.2-0.172,0.356-0.342,0.467-0.508v-2.674c0-0.428-0.035-0.822-0.104-1.181
			c-0.069-0.359-0.193-0.649-0.373-0.871c-0.18-0.221-0.442-0.331-0.788-0.331c-0.346,0-0.608,0.117-0.788,0.352
			c-0.18,0.235-0.3,0.567-0.363,0.995c-0.062,0.428-0.093,0.947-0.093,1.555c0,0.566,0.021,1.071,0.062,1.513
			c0.042,0.443,0.148,0.788,0.321,1.037C361.943,109.522,362.237,109.646,362.651,109.646z"/>
		<path style="fill:#263238;" d="M373.616,118.663c-1.036,0-1.865-0.163-2.487-0.487c-0.622-0.324-1.071-0.808-1.347-1.451
			c-0.277-0.643-0.415-1.427-0.415-2.353c0-0.041,0-0.083,0-0.125c0-0.042,0-0.083,0-0.125h3.026c0,0.705,0.072,1.23,0.217,1.576
			c0.145,0.345,0.487,0.518,1.026,0.518c0.332,0,0.587-0.104,0.767-0.311c0.18-0.207,0.304-0.56,0.373-1.057
			c0.069-0.497,0.104-1.167,0.104-2.011v-1.72c-0.194,0.304-0.477,0.539-0.85,0.705c-0.373,0.166-0.801,0.256-1.285,0.27
			c-0.898,0.014-1.617-0.204-2.156-0.653c-0.538-0.449-0.922-1.054-1.15-1.813c-0.228-0.76-0.342-1.603-0.342-2.529
			c0-1.147,0.145-2.142,0.435-2.985c0.29-0.843,0.771-1.499,1.441-1.969c0.67-0.47,1.551-0.705,2.643-0.705
			c1.064,0,1.928,0.225,2.591,0.673c0.664,0.449,1.147,1.075,1.451,1.876c0.304,0.802,0.456,1.741,0.456,2.819v6.115
			c0,1.092-0.125,2.073-0.373,2.943c-0.249,0.871-0.698,1.555-1.348,2.052C375.744,118.415,374.818,118.663,373.616,118.663z
			 M373.637,109.646c0.317,0,0.577-0.086,0.777-0.259c0.2-0.172,0.356-0.342,0.467-0.508v-2.674c0-0.428-0.035-0.822-0.104-1.181
			c-0.069-0.359-0.193-0.649-0.373-0.871c-0.18-0.221-0.442-0.331-0.788-0.331c-0.346,0-0.608,0.117-0.788,0.352
			c-0.18,0.235-0.3,0.567-0.363,0.995c-0.062,0.428-0.093,0.947-0.093,1.555c0,0.566,0.021,1.071,0.062,1.513
			c0.042,0.443,0.148,0.788,0.321,1.037C372.929,109.522,373.223,109.646,373.637,109.646z"/>
		<path style="fill:#263238;" d="M384.601,118.663c-1.036,0-1.865-0.163-2.487-0.487c-0.621-0.324-1.07-0.808-1.347-1.451
			c-0.277-0.643-0.415-1.427-0.415-2.353c0-0.041,0-0.083,0-0.125c0-0.042,0-0.083,0-0.125h3.026c0,0.705,0.072,1.23,0.218,1.576
			c0.145,0.345,0.486,0.518,1.025,0.518c0.332,0,0.588-0.104,0.768-0.311c0.179-0.207,0.304-0.56,0.373-1.057
			c0.068-0.497,0.103-1.167,0.103-2.011v-1.72c-0.194,0.304-0.477,0.539-0.85,0.705c-0.373,0.166-0.802,0.256-1.285,0.27
			c-0.898,0.014-1.617-0.204-2.156-0.653c-0.538-0.449-0.922-1.054-1.15-1.813c-0.228-0.76-0.342-1.603-0.342-2.529
			c0-1.147,0.145-2.142,0.435-2.985c0.29-0.843,0.771-1.499,1.44-1.969c0.67-0.47,1.551-0.705,2.643-0.705
			c1.064,0,1.928,0.225,2.591,0.673c0.663,0.449,1.147,1.075,1.451,1.876c0.304,0.802,0.456,1.741,0.456,2.819v6.115
			c0,1.092-0.124,2.073-0.373,2.943c-0.249,0.871-0.698,1.555-1.348,2.052C386.729,118.415,385.803,118.663,384.601,118.663z
			 M384.622,109.646c0.318,0,0.577-0.086,0.777-0.259c0.2-0.172,0.355-0.342,0.467-0.508v-2.674c0-0.428-0.035-0.822-0.103-1.181
			c-0.069-0.359-0.194-0.649-0.373-0.871c-0.18-0.221-0.442-0.331-0.788-0.331s-0.608,0.117-0.787,0.352
			c-0.181,0.235-0.301,0.567-0.363,0.995c-0.063,0.428-0.093,0.947-0.093,1.555c0,0.566,0.021,1.071,0.062,1.513
			c0.042,0.443,0.148,0.788,0.321,1.037C383.914,109.522,384.207,109.646,384.622,109.646z"/>
		<path style="fill:#263238;" d="M391.213,118.435v-3.047h2.984v3.047H391.213z"/>
		<path style="fill:#263238;" d="M400.396,118.663c-1.036,0-1.865-0.163-2.487-0.487c-0.622-0.324-1.071-0.808-1.348-1.451
			c-0.276-0.643-0.414-1.427-0.414-2.353c0-0.041,0-0.083,0-0.125c0-0.042,0-0.083,0-0.125h3.026c0,0.705,0.072,1.23,0.218,1.576
			c0.145,0.345,0.486,0.518,1.025,0.518c0.332,0,0.588-0.104,0.768-0.311c0.179-0.207,0.304-0.56,0.373-1.057
			c0.068-0.497,0.103-1.167,0.103-2.011v-1.72c-0.194,0.304-0.477,0.539-0.85,0.705c-0.373,0.166-0.802,0.256-1.285,0.27
			c-0.898,0.014-1.617-0.204-2.156-0.653c-0.539-0.449-0.922-1.054-1.15-1.813c-0.228-0.76-0.342-1.603-0.342-2.529
			c0-1.147,0.146-2.142,0.436-2.985c0.29-0.843,0.77-1.499,1.44-1.969c0.67-0.47,1.551-0.705,2.643-0.705
			c1.064,0,1.928,0.225,2.591,0.673c0.663,0.449,1.148,1.075,1.451,1.876c0.304,0.802,0.456,1.741,0.456,2.819v6.115
			c0,1.092-0.124,2.073-0.373,2.943c-0.249,0.871-0.698,1.555-1.348,2.052C402.524,118.415,401.598,118.663,400.396,118.663z
			 M400.417,109.646c0.318,0,0.577-0.086,0.777-0.259c0.2-0.172,0.355-0.342,0.467-0.508v-2.674c0-0.428-0.035-0.822-0.103-1.181
			c-0.069-0.359-0.194-0.649-0.373-0.871c-0.18-0.221-0.442-0.331-0.788-0.331s-0.608,0.117-0.787,0.352
			c-0.181,0.235-0.301,0.567-0.363,0.995c-0.063,0.428-0.093,0.947-0.093,1.555c0,0.566,0.02,1.071,0.062,1.513
			c0.042,0.443,0.148,0.788,0.321,1.037C399.708,109.522,400.002,109.646,400.417,109.646z"/>
		<path style="fill:#263238;" d="M411.381,118.663c-1.036,0-1.865-0.163-2.487-0.487c-0.622-0.324-1.071-0.808-1.348-1.451
			s-0.414-1.427-0.414-2.353c0-0.041,0-0.083,0-0.125c0-0.042,0-0.083,0-0.125h3.026c0,0.705,0.072,1.23,0.218,1.576
			c0.145,0.345,0.486,0.518,1.025,0.518c0.332,0,0.588-0.104,0.768-0.311c0.179-0.207,0.304-0.56,0.373-1.057
			c0.068-0.497,0.104-1.167,0.104-2.011v-1.72c-0.194,0.304-0.477,0.539-0.85,0.705c-0.373,0.166-0.802,0.256-1.285,0.27
			c-0.898,0.014-1.617-0.204-2.156-0.653c-0.539-0.449-0.922-1.054-1.15-1.813c-0.228-0.76-0.342-1.603-0.342-2.529
			c0-1.147,0.146-2.142,0.435-2.985c0.29-0.843,0.77-1.499,1.441-1.969c0.67-0.47,1.551-0.705,2.642-0.705
			c1.065,0,1.928,0.225,2.591,0.673c0.663,0.449,1.147,1.075,1.451,1.876c0.304,0.802,0.456,1.741,0.456,2.819v6.115
			c0,1.092-0.124,2.073-0.373,2.943c-0.249,0.871-0.698,1.555-1.348,2.052C413.509,118.415,412.583,118.663,411.381,118.663z
			 M411.402,109.646c0.318,0,0.577-0.086,0.777-0.259c0.2-0.172,0.355-0.342,0.467-0.508v-2.674c0-0.428-0.035-0.822-0.104-1.181
			c-0.069-0.359-0.194-0.649-0.373-0.871c-0.18-0.221-0.442-0.331-0.788-0.331c-0.346,0-0.608,0.117-0.787,0.352
			c-0.181,0.235-0.301,0.567-0.363,0.995c-0.063,0.428-0.093,0.947-0.093,1.555c0,0.566,0.021,1.071,0.062,1.513
			c0.042,0.443,0.148,0.788,0.321,1.037C410.694,109.522,410.988,109.646,411.402,109.646z"/>
	</g>
	<g>
		<g>
			<path style="fill:#263238;" d="M536.373,294.79c-1.105,0-1.989-0.217-2.652-0.652c-0.664-0.436-1.138-1.047-1.42-1.835
				c-0.284-0.787-0.426-1.686-0.426-2.694c0-0.456,0.042-0.884,0.125-1.285c0.083-0.4,0.207-0.767,0.373-1.099
				c0.166-0.331,0.369-0.625,0.611-0.881c0.241-0.255,0.528-0.466,0.86-0.632c-0.456-0.332-0.854-0.798-1.192-1.399
				c-0.338-0.601-0.515-1.364-0.528-2.29c-0.014-0.926,0.138-1.724,0.456-2.395c0.317-0.67,0.795-1.185,1.431-1.544
				c0.635-0.359,1.423-0.539,2.362-0.539c0.954,0,1.745,0.18,2.374,0.539c0.628,0.359,1.095,0.874,1.398,1.544
				c0.304,0.671,0.449,1.469,0.436,2.395c-0.014,0.939-0.184,1.71-0.508,2.311c-0.325,0.602-0.723,1.061-1.191,1.379
				c0.331,0.166,0.618,0.377,0.859,0.632c0.242,0.256,0.446,0.55,0.612,0.881c0.165,0.332,0.293,0.698,0.383,1.099
				c0.09,0.401,0.135,0.829,0.135,1.285c0.027,1.009-0.107,1.907-0.404,2.694c-0.297,0.788-0.773,1.399-1.43,1.835
				C538.381,294.573,537.492,294.79,536.373,294.79z M536.373,292.407c0.401,0,0.698-0.139,0.892-0.415
				c0.193-0.276,0.317-0.614,0.373-1.016c0.055-0.4,0.083-0.788,0.083-1.161c0.014-0.441-0.011-0.87-0.072-1.285
				c-0.063-0.414-0.19-0.753-0.384-1.016c-0.193-0.262-0.49-0.393-0.892-0.393c-0.387,0-0.681,0.132-0.881,0.393
				c-0.2,0.263-0.331,0.599-0.394,1.006s-0.094,0.839-0.094,1.295c0,0.373,0.028,0.764,0.083,1.172
				c0.056,0.407,0.184,0.746,0.384,1.016C535.672,292.272,535.973,292.407,536.373,292.407z M536.373,284.51
				c0.276,0,0.501-0.103,0.674-0.312c0.173-0.207,0.301-0.504,0.384-0.891c0.083-0.387,0.124-0.843,0.124-1.368
				c0-0.594-0.093-1.074-0.279-1.441c-0.187-0.366-0.487-0.55-0.902-0.55c-0.414,0-0.722,0.184-0.922,0.55
				c-0.2,0.366-0.301,0.839-0.301,1.42c0,0.525,0.038,0.984,0.114,1.378c0.075,0.393,0.207,0.694,0.394,0.901
				C535.845,284.406,536.083,284.51,536.373,284.51z"/>
			<path style="fill:#263238;" d="M547.358,294.832c-1.009,0-1.845-0.207-2.508-0.622c-0.663-0.414-1.16-0.984-1.492-1.71
				c-0.332-0.726-0.497-1.565-0.497-2.519v-7.523c0-0.981,0.158-1.842,0.477-2.581c0.317-0.739,0.809-1.317,1.472-1.73
				c0.663-0.415,1.513-0.622,2.549-0.622c1.023,0,1.862,0.207,2.519,0.622c0.656,0.414,1.143,0.991,1.462,1.73
				c0.317,0.739,0.477,1.6,0.477,2.581v7.523c0,0.954-0.166,1.793-0.498,2.519c-0.331,0.726-0.829,1.296-1.492,1.71
				C549.162,294.625,548.34,294.832,547.358,294.832z M547.358,292.013c0.374,0,0.643-0.117,0.809-0.353
				c0.166-0.234,0.276-0.515,0.332-0.839c0.055-0.324,0.083-0.625,0.083-0.901v-7.4c0-0.304-0.024-0.622-0.073-0.953
				c-0.048-0.332-0.155-0.618-0.321-0.86c-0.165-0.241-0.442-0.362-0.829-0.362c-0.387,0-0.666,0.121-0.839,0.362
				c-0.173,0.242-0.283,0.528-0.332,0.86c-0.048,0.331-0.072,0.649-0.072,0.953v7.4c0,0.276,0.027,0.577,0.083,0.901
				c0.055,0.324,0.173,0.605,0.353,0.839C546.73,291.896,546.999,292.013,547.358,292.013z"/>
		</g>
		<g>
			<path style="fill:#263238;" d="M494.364,314.308l3.524-14.344h-4.581v-2.445h7.71v2.114l-3.544,14.675H494.364z"/>
			<path style="fill:#263238;" d="M507.401,314.598c-1.009,0-1.845-0.207-2.508-0.621c-0.663-0.415-1.16-0.985-1.492-1.71
				c-0.332-0.726-0.497-1.565-0.497-2.519v-7.524c0-0.981,0.158-1.841,0.477-2.581c0.317-0.738,0.809-1.316,1.472-1.73
				c0.663-0.414,1.513-0.622,2.549-0.622c1.022,0,1.862,0.208,2.519,0.622c0.656,0.415,1.144,0.992,1.462,1.73
				c0.317,0.74,0.477,1.6,0.477,2.581v7.524c0,0.953-0.166,1.793-0.498,2.519c-0.331,0.725-0.829,1.295-1.492,1.71
				C509.205,314.391,508.383,314.598,507.401,314.598z M507.401,311.779c0.374,0,0.643-0.117,0.809-0.353
				c0.166-0.234,0.276-0.515,0.332-0.84c0.055-0.324,0.083-0.625,0.083-0.901v-7.399c0-0.304-0.024-0.622-0.073-0.954
				c-0.048-0.331-0.155-0.618-0.321-0.86c-0.165-0.241-0.442-0.362-0.829-0.362c-0.387,0-0.666,0.121-0.839,0.362
				c-0.173,0.242-0.283,0.529-0.332,0.86c-0.048,0.332-0.072,0.65-0.072,0.954v7.399c0,0.276,0.027,0.577,0.083,0.901
				c0.055,0.325,0.173,0.605,0.353,0.84C506.773,311.662,507.042,311.779,507.401,311.779z"/>
		</g>
		<g>
			<path style="fill:#263238;" d="M455.673,355.678c-1.175,0-2.073-0.215-2.694-0.643c-0.622-0.429-1.047-1.029-1.275-1.804
				c-0.228-0.773-0.342-1.679-0.342-2.715h3.089c0,0.608,0.038,1.119,0.113,1.534c0.076,0.414,0.215,0.725,0.415,0.933
				c0.2,0.207,0.501,0.304,0.901,0.29c0.4-0.014,0.691-0.166,0.871-0.456c0.179-0.29,0.29-0.705,0.331-1.244
				c0.042-0.539,0.063-1.174,0.063-1.906c0-0.595-0.035-1.12-0.104-1.575c-0.069-0.456-0.204-0.815-0.404-1.078
				c-0.2-0.263-0.508-0.394-0.923-0.394c-0.373,0-0.681,0.131-0.922,0.394c-0.242,0.263-0.418,0.636-0.528,1.119h-2.736l0.228-9.535
				h7.711v2.757h-5.078l-0.186,3.711c0.166-0.208,0.445-0.387,0.84-0.539c0.394-0.152,0.818-0.242,1.274-0.27
				c0.87-0.083,1.593,0.083,2.166,0.497c0.573,0.415,0.998,1.026,1.275,1.835c0.276,0.808,0.415,1.793,0.415,2.953
				c0,0.885-0.056,1.703-0.166,2.456c-0.11,0.754-0.325,1.403-0.643,1.949c-0.318,0.546-0.774,0.971-1.368,1.274
				C457.4,355.525,456.626,355.678,455.673,355.678z"/>
			<path style="fill:#263238;" d="M466.492,355.678c-1.009,0-1.845-0.207-2.508-0.622c-0.663-0.414-1.16-0.984-1.492-1.71
				c-0.332-0.726-0.497-1.564-0.497-2.519v-7.523c0-0.981,0.158-1.842,0.477-2.581c0.317-0.739,0.809-1.316,1.472-1.73
				c0.663-0.415,1.513-0.622,2.549-0.622c1.022,0,1.862,0.207,2.519,0.622c0.656,0.414,1.144,0.991,1.462,1.73
				c0.317,0.739,0.477,1.6,0.477,2.581v7.523c0,0.954-0.166,1.793-0.498,2.519c-0.331,0.726-0.829,1.296-1.492,1.71
				C468.296,355.471,467.474,355.678,466.492,355.678z M466.492,352.858c0.374,0,0.643-0.117,0.809-0.353
				c0.166-0.234,0.276-0.515,0.332-0.839c0.055-0.324,0.083-0.625,0.083-0.901v-7.4c0-0.304-0.024-0.622-0.073-0.953
				c-0.048-0.332-0.155-0.618-0.321-0.86c-0.165-0.241-0.442-0.362-0.829-0.362c-0.387,0-0.666,0.121-0.839,0.362
				c-0.173,0.242-0.283,0.528-0.332,0.86c-0.048,0.331-0.072,0.649-0.072,0.953v7.4c0,0.276,0.027,0.577,0.083,0.901
				c0.055,0.324,0.173,0.605,0.353,0.839C465.863,352.741,466.133,352.858,466.492,352.858z"/>
		</g>
	</g>
	<g>
		<g>
			<g>
				<path style="fill:#263238;" d="M338.568,292.223c-0.67,0-1.182-0.122-1.537-0.366c-0.355-0.244-0.597-0.587-0.727-1.028
					c-0.13-0.44-0.195-0.957-0.195-1.548h1.761c0,0.347,0.022,0.638,0.065,0.875c0.043,0.236,0.122,0.413,0.236,0.531
					c0.114,0.118,0.285,0.174,0.514,0.166c0.228-0.008,0.394-0.095,0.496-0.261c0.103-0.165,0.165-0.401,0.189-0.709
					c0.024-0.307,0.036-0.669,0.036-1.087c0-0.339-0.02-0.639-0.059-0.898c-0.039-0.26-0.116-0.465-0.23-0.614
					c-0.114-0.149-0.29-0.225-0.526-0.225c-0.213,0-0.388,0.075-0.526,0.225c-0.138,0.149-0.238,0.362-0.301,0.638h-1.56l0.13-5.436
					h4.396v1.572h-2.896l-0.106,2.115c0.095-0.118,0.254-0.221,0.478-0.308c0.225-0.086,0.467-0.138,0.727-0.153
					c0.496-0.047,0.908,0.047,1.235,0.284c0.327,0.236,0.569,0.585,0.727,1.046c0.157,0.461,0.236,1.022,0.236,1.684
					c0,0.505-0.032,0.972-0.095,1.4c-0.063,0.43-0.185,0.8-0.366,1.111c-0.181,0.312-0.441,0.554-0.78,0.727
					C339.553,292.137,339.112,292.223,338.568,292.223z"/>
				<path style="fill:#263238;" d="M344.501,292.223c-0.67,0-1.182-0.122-1.537-0.366c-0.354-0.244-0.597-0.587-0.727-1.028
					c-0.13-0.44-0.195-0.957-0.195-1.548h1.761c0,0.347,0.022,0.638,0.065,0.875c0.043,0.236,0.122,0.413,0.236,0.531
					c0.114,0.118,0.285,0.174,0.514,0.166c0.228-0.008,0.394-0.095,0.496-0.261c0.103-0.165,0.166-0.401,0.189-0.709
					c0.024-0.307,0.036-0.669,0.036-1.087c0-0.339-0.02-0.639-0.059-0.898c-0.04-0.26-0.116-0.465-0.23-0.614
					c-0.114-0.149-0.29-0.225-0.526-0.225c-0.213,0-0.388,0.075-0.526,0.225c-0.138,0.149-0.238,0.362-0.301,0.638h-1.56l0.13-5.436
					h4.396v1.572h-2.896l-0.106,2.115c0.095-0.118,0.254-0.221,0.478-0.308c0.225-0.086,0.467-0.138,0.727-0.153
					c0.496-0.047,0.908,0.047,1.235,0.284c0.327,0.236,0.569,0.585,0.727,1.046c0.157,0.461,0.236,1.022,0.236,1.684
					c0,0.505-0.032,0.972-0.095,1.4c-0.063,0.43-0.185,0.8-0.366,1.111c-0.181,0.312-0.441,0.554-0.78,0.727
					C345.486,292.137,345.045,292.223,344.501,292.223z"/>
				<path style="fill:#263238;" d="M350.115,287.851c-0.772,0-1.324-0.209-1.655-0.627c-0.331-0.417-0.496-1.036-0.496-1.855v-0.484
					c0-0.835,0.161-1.448,0.484-1.838c0.323-0.39,0.879-0.585,1.667-0.585c0.796,0,1.355,0.191,1.678,0.573
					c0.323,0.382,0.484,0.986,0.484,1.814v0.555c0,0.804-0.163,1.413-0.49,1.826C351.46,287.644,350.902,287.851,350.115,287.851z
					 M350.115,286.68c0.205,0,0.355-0.055,0.449-0.165c0.094-0.11,0.153-0.267,0.177-0.473c0.023-0.205,0.035-0.445,0.035-0.721
					v-0.414c0-0.417-0.029-0.732-0.088-0.945c-0.059-0.213-0.25-0.319-0.573-0.319c-0.315,0-0.504,0.104-0.567,0.313
					c-0.063,0.209-0.094,0.525-0.094,0.951v0.426c0,0.275,0.014,0.514,0.041,0.715c0.028,0.201,0.089,0.356,0.183,0.467
					C349.772,286.625,349.917,286.68,350.115,286.68z M351.273,292.058l2.872-9.573h1.075l-2.872,9.573H351.273z M356.378,292.081
					c-0.78,0-1.333-0.208-1.66-0.626c-0.327-0.418-0.491-1.032-0.491-1.844v-0.496c0-0.828,0.16-1.438,0.479-1.832
					c0.319-0.395,0.876-0.591,1.672-0.591s1.355,0.19,1.679,0.573c0.323,0.382,0.484,0.986,0.484,1.814v0.544
					c0,0.819-0.165,1.434-0.497,1.844C357.714,291.876,357.159,292.081,356.378,292.081z M356.378,290.911
					c0.205,0,0.353-0.055,0.443-0.165c0.09-0.11,0.149-0.267,0.177-0.467c0.028-0.201,0.042-0.435,0.042-0.703v-0.438
					c0-0.426-0.032-0.743-0.095-0.952c-0.063-0.208-0.252-0.313-0.567-0.313c-0.315,0-0.504,0.107-0.567,0.319
					c-0.064,0.212-0.095,0.527-0.095,0.945v0.438c0,0.268,0.012,0.502,0.036,0.703c0.024,0.2,0.085,0.356,0.183,0.467
					C356.034,290.856,356.182,290.911,356.378,290.911z"/>
			</g>
			<g>
				<path style="fill:#263238;" d="M338.828,312.283v-2.233h-2.907v-1.431l2.494-5.909h2.127v5.945h0.922v1.395h-0.922v2.233
					H338.828z M337.363,308.655h1.465v-4.066L337.363,308.655z"/>
				<path style="fill:#263238;" d="M344.891,312.448c-0.575,0-1.052-0.118-1.43-0.354c-0.378-0.236-0.662-0.561-0.851-0.975
					c-0.189-0.414-0.284-0.893-0.284-1.437v-4.29c0-0.559,0.091-1.05,0.272-1.471c0.181-0.422,0.461-0.751,0.839-0.987
					c0.378-0.236,0.863-0.354,1.454-0.354c0.583,0,1.062,0.118,1.436,0.354c0.374,0.236,0.652,0.565,0.833,0.987
					c0.181,0.421,0.272,0.912,0.272,1.471v4.29c0,0.544-0.095,1.023-0.284,1.437c-0.189,0.414-0.473,0.738-0.851,0.975
					C345.919,312.33,345.45,312.448,344.891,312.448z M344.891,310.842c0.212,0,0.366-0.067,0.461-0.201
					c0.094-0.134,0.157-0.294,0.189-0.478c0.031-0.186,0.047-0.356,0.047-0.515v-4.219c0-0.174-0.014-0.355-0.042-0.544
					c-0.028-0.189-0.089-0.353-0.183-0.49c-0.095-0.138-0.253-0.207-0.473-0.207c-0.221,0-0.38,0.069-0.479,0.207
					c-0.099,0.138-0.162,0.301-0.189,0.49c-0.028,0.189-0.042,0.37-0.042,0.544v4.219c0,0.158,0.016,0.329,0.047,0.515
					c0.031,0.185,0.099,0.345,0.201,0.478C344.532,310.774,344.686,310.842,344.891,310.842z"/>
				<path style="fill:#263238;" d="M350.753,308.076c-0.772,0-1.324-0.209-1.655-0.627c-0.33-0.417-0.496-1.036-0.496-1.855v-0.484
					c0-0.835,0.161-1.448,0.484-1.838c0.323-0.39,0.878-0.585,1.667-0.585c0.796,0,1.355,0.191,1.678,0.573
					c0.323,0.382,0.484,0.986,0.484,1.814v0.555c0,0.804-0.163,1.413-0.49,1.826C352.098,307.869,351.54,308.076,350.753,308.076z
					 M350.753,306.905c0.205,0,0.354-0.055,0.449-0.165c0.094-0.11,0.153-0.268,0.177-0.473c0.023-0.205,0.035-0.445,0.035-0.721
					v-0.414c0-0.417-0.029-0.732-0.088-0.945c-0.059-0.213-0.251-0.319-0.573-0.319c-0.315,0-0.504,0.104-0.567,0.313
					c-0.063,0.209-0.094,0.525-0.094,0.951v0.426c0,0.275,0.014,0.514,0.041,0.715c0.028,0.201,0.089,0.357,0.183,0.467
					C350.41,306.851,350.556,306.905,350.753,306.905z M351.911,312.283l2.872-9.573h1.075l-2.872,9.573H351.911z M357.017,312.307
					c-0.78,0-1.333-0.208-1.66-0.626c-0.327-0.418-0.491-1.032-0.491-1.844v-0.496c0-0.828,0.16-1.438,0.479-1.832
					c0.319-0.395,0.876-0.591,1.672-0.591s1.355,0.19,1.679,0.573c0.323,0.382,0.484,0.986,0.484,1.813v0.544
					c0,0.819-0.165,1.434-0.497,1.844C358.353,312.102,357.797,312.307,357.017,312.307z M357.017,311.137
					c0.205,0,0.352-0.055,0.443-0.165c0.09-0.11,0.149-0.267,0.177-0.467c0.028-0.201,0.041-0.436,0.041-0.703v-0.438
					c0-0.426-0.032-0.743-0.095-0.952c-0.063-0.208-0.252-0.313-0.567-0.313c-0.315,0-0.504,0.106-0.567,0.319
					c-0.064,0.212-0.095,0.527-0.095,0.945v0.438c0,0.268,0.012,0.502,0.036,0.703c0.023,0.2,0.085,0.356,0.183,0.467
					C356.672,311.082,356.82,311.137,357.017,311.137z"/>
			</g>
			<g>
				<path style="fill:#263238;" d="M338.568,332.104c-0.67,0-1.182-0.122-1.537-0.366c-0.355-0.244-0.597-0.587-0.727-1.028
					c-0.13-0.44-0.195-0.957-0.195-1.548h1.761c0,0.347,0.022,0.638,0.065,0.875c0.043,0.236,0.122,0.413,0.236,0.531
					c0.114,0.118,0.285,0.174,0.514,0.166c0.228-0.008,0.394-0.095,0.496-0.261c0.103-0.165,0.165-0.401,0.189-0.709
					c0.024-0.307,0.036-0.669,0.036-1.087c0-0.339-0.02-0.639-0.059-0.898c-0.039-0.26-0.116-0.465-0.23-0.614
					c-0.114-0.149-0.29-0.225-0.526-0.225c-0.213,0-0.388,0.075-0.526,0.225c-0.138,0.15-0.238,0.362-0.301,0.638h-1.56l0.13-5.436
					h4.396v1.572h-2.896l-0.106,2.115c0.095-0.118,0.254-0.221,0.478-0.308c0.225-0.086,0.467-0.138,0.727-0.153
					c0.496-0.047,0.908,0.047,1.235,0.284c0.327,0.236,0.569,0.585,0.727,1.046c0.157,0.461,0.236,1.021,0.236,1.684
					c0,0.505-0.032,0.972-0.095,1.4c-0.063,0.43-0.185,0.8-0.366,1.111c-0.181,0.311-0.441,0.554-0.78,0.727
					C339.553,332.019,339.112,332.104,338.568,332.104z"/>
				<path style="fill:#263238;" d="M344.182,327.732c-0.772,0-1.324-0.209-1.655-0.627c-0.33-0.417-0.496-1.036-0.496-1.855v-0.484
					c0-0.835,0.161-1.448,0.484-1.838c0.323-0.39,0.878-0.585,1.667-0.585c0.796,0,1.355,0.191,1.678,0.573
					c0.323,0.382,0.484,0.986,0.484,1.815v0.555c0,0.804-0.164,1.413-0.49,1.826C345.527,327.525,344.97,327.732,344.182,327.732z
					 M344.182,326.561c0.205,0,0.354-0.055,0.449-0.165c0.094-0.11,0.153-0.268,0.177-0.473c0.023-0.205,0.035-0.445,0.035-0.721
					v-0.414c0-0.417-0.029-0.732-0.088-0.945c-0.059-0.213-0.251-0.319-0.573-0.319c-0.315,0-0.504,0.104-0.567,0.313
					c-0.063,0.209-0.094,0.525-0.094,0.951v0.426c0,0.275,0.014,0.514,0.041,0.715c0.028,0.201,0.089,0.356,0.183,0.467
					C343.839,326.507,343.985,326.561,344.182,326.561z M345.34,331.94l2.872-9.573h1.075l-2.872,9.573H345.34z M350.446,331.963
					c-0.78,0-1.333-0.208-1.66-0.626c-0.327-0.418-0.491-1.032-0.491-1.844v-0.496c0-0.828,0.16-1.439,0.479-1.832
					c0.319-0.395,0.876-0.591,1.672-0.591s1.355,0.19,1.679,0.573c0.323,0.382,0.484,0.986,0.484,1.813v0.544
					c0,0.819-0.165,1.434-0.497,1.844C351.782,331.758,351.226,331.963,350.446,331.963z M350.446,330.793
					c0.205,0,0.353-0.055,0.443-0.165c0.09-0.11,0.149-0.267,0.177-0.467c0.028-0.201,0.041-0.436,0.041-0.703v-0.438
					c0-0.426-0.032-0.743-0.095-0.952c-0.063-0.208-0.252-0.313-0.567-0.313c-0.315,0-0.504,0.106-0.567,0.319
					c-0.064,0.212-0.095,0.527-0.095,0.945v0.438c0,0.268,0.012,0.502,0.036,0.703c0.023,0.2,0.085,0.357,0.183,0.467
					C350.101,330.738,350.249,330.793,350.446,330.793z"/>
			</g>
		</g>
		
			<rect x="322.924" y="283.796" style="fill:#92E3A9;stroke:#263238;stroke-linecap:round;stroke-linejoin:round;stroke-miterlimit:10;" width="7.452" height="7.452"/>
		
			<rect x="322.924" y="304.29" style="fill:#8C8C8C;stroke:#263238;stroke-linecap:round;stroke-linejoin:round;stroke-miterlimit:10;" width="7.452" height="7.452"/>
		
			<rect x="322.924" y="324.784" style="fill:#263238;stroke:#263238;stroke-linecap:round;stroke-linejoin:round;stroke-miterlimit:10;" width="7.452" height="7.452"/>
	</g>
</g>
</svg>
