<?xml version="1.0" encoding="utf-8"?>
<!-- Generator: Adobe Illustrator 27.5.0, SVG Export Plug-In . SVG Version: 6.00 Build 0)  -->
<svg version="1.1" xmlns="http://www.w3.org/2000/svg" xmlns:xlink="http://www.w3.org/1999/xlink" x="0px" y="0px"
	 viewBox="0 0 500 500" style="enable-background:new 0 0 500 500;" xml:space="preserve">
<g id="Background_Simple">
	<g>
		<path style="fill:#92E3A9;" d="M321.98,35.379c0,0-136.189-6.585-247.032,68.94c-110.842,75.525-54.522,339.942-16.654,356.628
			s183.446,45.647,295.827-3.497c112.38-49.143,149.253-227.059,133.073-278.164C471.015,128.181,439.593,49.9,321.98,35.379z"/>
		<path style="opacity:0.7;fill:#FFFFFF;" d="M321.98,35.379c0,0-136.189-6.585-247.032,68.94
			c-110.842,75.525-54.522,339.942-16.654,356.628s183.446,45.647,295.827-3.497c112.38-49.143,149.253-227.059,133.073-278.164
			C471.015,128.181,439.593,49.9,321.98,35.379z"/>
	</g>
</g>
<g id="Plants">
	<g style="opacity:0.3;">
		<path d="M100.194,325.356c-0.671-4.051-5.854-11.657-5.858-11.663c-0.054-0.079-3.976,4.939-4.187,5.284
			c-2.444,3.993-4.817,13.146-1.4,17.122c2.462,2.864,6.737,2.57,9.233-0.057C100.532,333.359,100.764,328.806,100.194,325.356z"/>
		<path d="M120.823,308.18c-1.648-3.583-8.116-9.175-8.633-9.618c3.15-3.591,6.092-7.531,8.849-11.682
			c1.579-2.371,3.095-4.809,4.585-7.272c-0.512,1.225-0.961,2.326-1.009,2.486c-1.302,4.498-1.174,13.952,3.172,16.883
			c3.132,2.114,7.176,0.701,8.89-2.492c1.75-3.26,0.772-7.715-0.689-10.891c-1.482-3.224-6.902-8.102-8.353-9.374
			c0.562-0.951,1.133-1.894,1.69-2.848c2.677-4.573,5.329-9.147,8.068-13.555c0.964-1.554,1.971-3.048,2.973-4.548
			c-0.455,1.089-0.828,2.011-0.87,2.158c-1.302,4.496-1.174,13.951,3.172,16.883c3.131,2.113,7.177,0.701,8.89-2.492
			c1.749-3.262,0.772-7.715-0.69-10.891c-1.414-3.077-6.376-7.624-8.093-9.143c1.072-1.505,2.143-3.013,3.25-4.423
			c0.778-0.945,1.46-1.91,2.294-2.815c0.806-0.915,1.605-1.819,2.396-2.716c1.586-1.67,3.212-3.404,4.801-4.994
			c1.096-1.115,2.162-2.157,3.232-3.21c-0.978,1.536-2.829,4.582-2.955,4.854c-1.969,4.247-3.274,13.611,0.578,17.169
			c2.775,2.562,6.988,1.779,9.165-1.118c2.224-2.958,1.932-7.508,0.969-10.869c-1.061-3.701-6.361-9.979-7.029-10.758
			c1.777-1.736,3.522-3.407,5.194-4.958c1.235-1.151,2.43-2.245,3.584-3.287l-1.777-2.738c-1.266,1.189-2.582,2.444-3.948,3.775
			c-1.812,1.755-3.712,3.667-5.645,5.648c-0.538-0.382-3.61-2.532-6.731-4.179c0.976-3.833,0.086-11.452-0.036-12.434
			c2.44-0.468,4.817-0.899,7.067-1.27c1.191-0.199,2.322-0.376,3.446-0.551l-1.879-2.895c-0.7,0.127-1.386,0.249-2.111,0.387
			c-2.479,0.464-5.12,1.011-7.825,1.597c-0.364-0.939-3.383-8.6-6.142-11.292c-2.503-2.441-6.371-4.856-10.031-4.3
			c-3.582,0.543-6.269,3.882-5.328,7.541c1.305,5.077,10.169,8.368,14.843,8.648c0.276,0.017,3.287-0.138,5.184-0.267
			c-1.104,0.245-2.178,0.472-3.312,0.738c-2.246,0.511-4.471,1.088-6.867,1.7c-1.147,0.336-2.306,0.676-3.476,1.018
			c-1.167,0.316-2.361,0.797-3.554,1.194c-2.749,0.978-5.486,2.103-8.218,3.297c-0.453-1.964-2.162-8.919-4.277-11.725
			c-2.105-2.792-5.561-5.764-9.262-5.77c-3.624-0.006-6.785,2.888-6.41,6.646c0.521,5.217,8.786,9.811,13.362,10.797
			c0.285,0.062,3.649,0.399,5.499,0.549c-1.637,0.731-3.274,1.452-4.906,2.245c-4.712,2.289-9.409,4.753-14.107,7.189
			c-1.438,0.748-2.881,1.475-4.322,2.208c-0.153-0.701-2.006-9.011-4.374-12.153c-2.104-2.792-5.561-5.765-9.263-5.77
			c-3.623-0.006-6.785,2.887-6.409,6.646c0.521,5.217,8.785,9.811,13.361,10.797c0.345,0.074,5.185,0.553,6.423,0.615
			c-3.175,1.615-6.353,3.194-9.549,4.623c-4.407,1.979-8.842,3.676-13.259,5.003c-0.07-0.326-1.965-9.009-4.39-12.227
			c-2.105-2.792-5.562-5.765-9.263-5.77c-3.623-0.006-6.785,2.887-6.41,6.646c0.521,5.217,8.785,9.811,13.362,10.797
			c0.359,0.077,5.567,0.59,6.518,0.615c-0.263,0.078-0.527,0.188-0.79,0.263c-4.734,1.357-9.49,2.077-13.976,2.532
			c-2.606,0.27-5.113,0.382-7.553,0.437c-0.187-1.653-1.126-9.199-2.988-12.337c-1.785-3.007-4.895-6.341-8.573-6.752
			c-3.601-0.404-7.061,2.124-7.101,5.901c-0.055,5.243,7.654,10.717,12.095,12.199c0.241,0.081,2.787,0.628,4.646,1
			c-1.102,0.009-2.239,0.037-3.294,0.023c-3.964-0.041-7.592-0.324-10.804-0.599c-1.824-0.172-3.471-0.363-5.01-0.558
			c-1.029-1.526-5.257-7.626-8.3-9.518c-2.97-1.845-7.266-3.372-10.72-2.043c-3.382,1.302-5.288,5.141-3.582,8.51
			c2.366,4.678,11.731,5.985,16.356,5.254c0.4-0.064,6.536-1.77,6.483-1.85c0,0-0.049-0.075-0.061-0.093
			c1.477,0.219,3.062,0.434,4.8,0.635c3.212,0.347,6.843,0.709,10.821,0.836c3.977,0.138,8.3,0.176,12.858-0.195
			c4.569-0.366,9.356-0.985,14.207-2.259c0.055-0.014,0.11-0.037,0.165-0.051c-1.303,0.813-4.87,3.21-5.123,3.425
			c-3.567,3.033-8.677,10.988-6.669,15.833c1.447,3.488,5.6,4.543,8.791,2.825c3.258-1.755,4.899-6.008,5.433-9.464
			c0.602-3.897-1.709-12.13-1.894-12.785c4.608-1.256,9.235-2.92,13.824-4.861c2.626-1.108,5.235-2.304,7.837-3.538
			c-1.104,0.74-2.086,1.409-2.213,1.518c-3.567,3.033-8.676,10.988-6.669,15.832c1.446,3.49,5.6,4.543,8.79,2.825
			c3.259-1.754,4.899-6.008,5.434-9.464c0.542-3.506-1.287-10.565-1.796-12.426c0.993-0.484,1.99-0.956,2.981-1.443
			c4.756-2.337,9.491-4.69,14.207-6.856c1.661-0.765,3.325-1.455,4.988-2.153c-0.979,0.658-1.799,1.22-1.914,1.318
			c-3.567,3.033-8.677,10.988-6.67,15.831c1.447,3.49,5.6,4.544,8.792,2.826c3.257-1.754,4.898-6.009,5.432-9.464
			c0.518-3.346-1.112-9.877-1.707-12.091c1.724-0.663,3.45-1.33,5.151-1.895c1.17-0.359,2.271-0.786,3.467-1.082
			c1.176-0.317,2.343-0.632,3.496-0.943c2.245-0.517,4.558-1.066,6.76-1.517c1.53-0.325,2.993-0.606,4.466-0.893
			c-1.662,0.742-4.887,2.261-5.142,2.418c-2.647,1.633-6.287,5.312-8.071,9.091c-0.393,0.239-0.762,0.51-1.104,0.818
			c-2.688,2.43-3.087,6.697-0.284,9.23c3.89,3.515,13.099,1.368,17.15-0.976c0.239-0.138,2.665-1.928,4.178-3.083
			c-0.785,0.815-1.558,1.595-2.356,2.443c-1.59,1.666-3.128,3.375-4.791,5.207c-0.771,0.913-1.549,1.835-2.337,2.768
			c-0.799,0.907-1.529,1.967-2.305,2.956c-1.752,2.332-3.415,4.781-5.035,7.284c-1.462-1.39-6.724-6.247-10.035-7.42
			c-3.296-1.169-7.819-1.74-10.909,0.296c-3.026,1.995-4.067,6.152-1.681,9.079c3.312,4.064,12.74,3.338,17.101,1.635
			c0.272-0.107,3.263-1.68,4.891-2.576c-0.962,1.512-1.93,3.017-2.853,4.58c-2.668,4.508-5.227,9.154-7.8,13.778
			c-0.788,1.417-1.589,2.818-2.386,4.225c-0.515-0.5-6.645-6.409-10.353-7.724c-3.295-1.168-7.819-1.74-10.909,0.297
			c-3.025,1.995-4.067,6.151-1.68,9.078c3.313,4.065,12.74,3.338,17.101,1.635c0.328-0.129,4.63-2.399,5.695-3.03
			c-1.757,3.097-3.536,6.168-5.414,9.124c-2.585,4.081-5.346,7.944-8.298,11.487c-0.24-0.233-6.61-6.429-10.408-7.776
			c-3.296-1.168-7.819-1.74-10.909,0.297c-3.026,1.994-4.066,6.151-1.68,9.079c3.312,4.064,12.74,3.337,17.101,1.634
			c0.342-0.133,4.969-2.579,5.775-3.082c-0.175,0.21-0.334,0.448-0.512,0.656c-3.201,3.743-6.771,6.967-10.261,9.822
			c-2.024,1.663-4.053,3.138-6.058,4.53c-1.068-1.275-6.014-7.052-9.298-8.641c-3.149-1.523-7.581-2.589-10.876-0.903
			c-3.226,1.651-4.718,5.668-2.667,8.839c2.846,4.403,12.297,4.716,16.818,3.503c0.246-0.066,2.672-1.013,4.428-1.729
			c-0.915,0.614-1.847,1.266-2.735,1.837c-3.329,2.152-6.511,3.919-9.341,5.46c-1.617,0.864-3.096,1.612-4.487,2.297
			c-1.701-0.704-8.592-3.46-12.174-3.359c-3.496,0.099-7.92,1.196-10.068,4.21c-2.103,2.952-1.575,7.204,1.705,9.074
			c4.556,2.596,13.087-1.481,16.541-4.641c0.297-0.274,4.474-5.082,4.387-5.12c0,0-0.083-0.034-0.103-0.042
			c1.352-0.633,2.794-1.328,4.354-2.119c2.87-1.482,6.098-3.183,9.487-5.272c3.392-2.078,7.02-4.432,10.617-7.256
			c3.608-2.826,7.261-5.982,10.603-9.721c0.038-0.042,0.072-0.092,0.109-0.134c-0.638,1.397-2.29,5.364-2.383,5.683
			c-1.302,4.497-1.175,13.951,3.171,16.883c3.132,2.112,7.178,0.701,8.891-2.493C123.262,315.808,122.283,311.356,120.823,308.18z"
			/>
		<path d="M51.215,246.179c-0.002-0.096-6.042,1.926-6.408,2.097c-4.241,1.983-11.27,8.308-10.612,13.51
			c0.473,3.747,4.201,5.86,7.732,5.045c3.606-0.831,6.312-4.5,7.739-7.693C51.343,255.39,51.214,246.186,51.215,246.179z"/>
	</g>
	<g style="opacity:0.3;">
		<path d="M314.791,34.74c2.532,3.232,10.73,7.417,10.736,7.421c0.085,0.043,1.118-6.241,1.138-6.645
			c0.228-4.676-2.082-13.845-6.988-15.694c-3.534-1.331-7.144,0.978-8.073,4.481C310.654,27.881,312.635,31.987,314.791,34.74z"/>
		<path d="M304.935,59.71c3.165,2.353,11.524,4.155,12.19,4.295c-1.041,4.662-1.731,9.53-2.157,14.495
			c-0.248,2.838-0.408,5.705-0.533,8.581c-0.138-1.321-0.272-2.502-0.308-2.665c-1.016-4.571-5.666-12.804-10.885-13.29
			c-3.762-0.352-6.632,2.829-6.604,6.453c0.029,3.7,3.025,7.139,5.831,9.224c2.848,2.118,9.943,3.796,11.827,4.215
			c-0.036,1.104-0.085,2.206-0.117,3.309c-0.154,5.297-0.286,10.583-0.573,15.764c-0.1,1.826-0.267,3.62-0.426,5.417
			c-0.124-1.174-0.239-2.161-0.272-2.311c-1.016-4.57-5.665-12.803-10.885-13.29c-3.761-0.351-6.633,2.829-6.603,6.453
			c0.03,3.701,3.025,7.139,5.832,9.225c2.717,2.021,9.253,3.629,11.489,4.138c-0.219,1.835-0.434,3.672-0.729,5.44
			c-0.229,1.203-0.364,2.376-0.662,3.57c-0.268,1.19-0.535,2.367-0.799,3.533c-0.59,2.226-1.185,4.528-1.816,6.685
			c-0.427,1.504-0.862,2.93-1.295,4.367c0.121-1.817,0.283-5.378,0.263-5.677c-0.311-4.671-3.66-13.513-8.746-14.785
			c-3.664-0.916-6.985,1.792-7.504,5.379c-0.531,3.662,1.908,7.514,4.366,10.001c2.707,2.738,10.369,5.702,11.329,6.066
			c-0.726,2.375-1.454,4.679-2.177,6.842c-0.531,1.603-1.055,3.136-1.567,4.604l2.873,1.549c0.54-1.651,1.092-3.383,1.652-5.206
			c0.747-2.409,1.497-4.998,2.242-7.665c0.655,0.077,4.382,0.489,7.911,0.436c0.983,3.831,5.421,10.088,5.999,10.891
			c-1.916,1.582-3.794,3.101-5.591,4.506c-0.949,0.746-1.856,1.444-2.759,2.137l3.038,1.638c0.553-0.447,1.096-0.884,1.666-1.352
			c1.952-1.597,4.007-3.344,6.099-5.156c0.77,0.649,7.095,5.922,10.808,6.96c3.368,0.94,7.92,1.202,10.864-1.041
			c2.882-2.195,3.637-6.414,1.055-9.173c-3.581-3.828-12.938-2.461-17.172-0.464c-0.25,0.117-2.818,1.698-4.421,2.722
			c0.851-0.745,1.685-1.459,2.552-2.237c1.725-1.526,3.4-3.1,5.209-4.787c0.845-0.845,1.699-1.699,2.561-2.561
			c0.873-0.838,1.689-1.833,2.545-2.753c1.943-2.177,3.804-4.478,5.628-6.837c1.341,1.506,6.177,6.788,9.379,8.234
			c3.187,1.44,7.645,2.389,10.895,0.617c3.182-1.734,4.567-5.79,2.434-8.907c-2.961-4.326-12.416-4.392-16.904-3.06
			c-0.28,0.082-3.393,1.401-5.088,2.157c1.085-1.427,2.175-2.845,3.227-4.324c3.035-4.269,5.974-8.685,8.927-13.077
			c0.903-1.346,1.82-2.676,2.732-4.011c0.471,0.542,6.084,6.943,9.67,8.563c3.186,1.44,7.646,2.389,10.895,0.617
			c3.182-1.734,4.567-5.789,2.434-8.906c-2.96-4.327-12.415-4.392-16.903-3.061c-0.338,0.1-4.815,2.003-5.93,2.542
			c2.011-2.94,4.041-5.85,6.159-8.639c2.917-3.851,5.993-7.468,9.231-10.753c0.218,0.253,6.047,6.96,9.719,8.62
			c3.187,1.44,7.647,2.389,10.896,0.617c3.182-1.734,4.567-5.789,2.434-8.907c-2.961-4.327-12.415-4.392-16.904-3.061
			c-0.352,0.105-5.167,2.154-6.014,2.588c0.193-0.194,0.372-0.418,0.567-0.61c3.502-3.462,7.329-6.376,11.046-8.928
			c2.157-1.488,4.302-2.789,6.417-4.008c0.958,1.361,5.402,7.531,8.541,9.39c3.009,1.781,7.338,3.214,10.762,1.81
			c3.353-1.374,5.175-5.252,3.398-8.585c-2.468-4.626-11.858-5.729-16.466-4.898c-0.25,0.045-2.746,0.787-4.556,1.352
			c0.963-0.536,1.946-1.107,2.879-1.601c3.498-1.866,6.816-3.36,9.766-4.659c1.683-0.724,3.219-1.347,4.663-1.914
			c1.635,0.845,8.272,4.168,11.849,4.368c3.491,0.193,7.993-0.528,10.385-3.353c2.342-2.766,2.172-7.048-0.941-9.185
			c-4.321-2.969-13.164,0.379-16.871,3.24c-0.32,0.248-4.885,4.689-4.8,4.734c0,0,0.079,0.042,0.099,0.052
			c-1.401,0.517-2.895,1.089-4.516,1.746c-2.984,1.237-6.343,2.662-9.895,4.459c-3.555,1.787-7.366,3.829-11.187,6.341
			c-3.833,2.514-7.736,5.354-11.38,8.8c-0.041,0.039-0.079,0.085-0.12,0.124c0.753-1.339,2.733-5.153,2.851-5.463
			c1.674-4.372,2.339-13.804-1.747-17.091c-2.943-2.366-7.093-1.299-9.068,1.74c-2.016,3.104-1.415,7.622-0.225,10.911
			c1.342,3.708,7.32,9.822,7.797,10.308c-3.44,3.313-6.7,6.993-9.795,10.898c-1.772,2.232-3.487,4.534-5.178,6.864
			c0.613-1.179,1.154-2.237,1.213-2.394c1.674-4.373,2.339-13.803-1.747-17.09c-2.943-2.368-7.094-1.299-9.067,1.74
			c-2.017,3.103-1.415,7.622-0.226,10.91c1.207,3.336,6.199,8.652,7.538,10.04c-0.639,0.901-1.287,1.794-1.923,2.696
			c-3.051,4.332-6.076,8.669-9.174,12.832c-1.091,1.468-2.219,2.873-3.343,4.282c0.543-1.047,0.992-1.934,1.047-2.075
			c1.674-4.373,2.339-13.804-1.746-17.09c-2.944-2.367-7.094-1.3-9.07,1.74c-2.016,3.102-1.414,7.623-0.224,10.91
			c1.151,3.184,5.716,8.132,7.3,9.789c-1.195,1.41-2.388,2.823-3.61,4.135c-0.854,0.877-1.615,1.78-2.522,2.613
			c-0.88,0.843-1.752,1.679-2.615,2.505c-1.721,1.531-3.487,3.123-5.202,4.575c-1.186,1.019-2.336,1.968-3.489,2.927
			c1.102-1.448,3.202-4.328,3.351-4.589c1.539-2.703,2.966-7.677,2.718-11.849c0.23-0.398,0.424-0.813,0.576-1.248
			c1.192-3.422-0.505-7.357-4.18-8.234c-5.099-1.217-12.148,5.085-14.578,9.086c-0.144,0.236-1.413,2.971-2.186,4.71
			c0.298-1.092,0.601-2.147,0.894-3.274c0.596-2.224,1.125-4.462,1.704-6.867c0.239-1.171,0.479-2.354,0.722-3.549
			c0.266-1.179,0.398-2.459,0.604-3.7c0.418-2.887,0.702-5.833,0.922-8.807c1.95,0.517,8.897,2.254,12.365,1.694
			c3.452-0.556,7.695-2.226,9.428-5.495c1.697-3.202,0.616-7.349-2.883-8.772c-4.856-1.976-12.779,3.186-15.788,6.772
			c-0.187,0.224-2.057,3.04-3.054,4.607c0.118-1.788,0.245-3.573,0.306-5.387c0.177-5.235,0.193-10.539,0.232-15.832
			c0.011-1.621,0.041-3.235,0.066-4.852c0.692,0.191,8.906,2.434,12.79,1.808c3.451-0.557,7.695-2.226,9.428-5.496
			c1.697-3.202,0.616-7.348-2.883-8.771c-4.857-1.976-12.779,3.185-15.788,6.772c-0.226,0.27-2.91,4.327-3.542,5.391
			c0.055-3.56,0.143-7.108,0.371-10.603c0.309-4.821,0.879-9.535,1.768-14.06c0.323,0.09,8.884,2.468,12.863,1.827
			c3.452-0.557,7.695-2.225,9.428-5.496c1.698-3.201,0.616-7.348-2.883-8.771c-4.856-1.976-12.778,3.186-15.787,6.773
			c-0.237,0.282-3.122,4.648-3.588,5.475c0.053-0.269,0.078-0.553,0.134-0.821c1.012-4.82,2.596-9.362,4.289-13.542
			c0.978-2.43,2.05-4.698,3.141-6.882c1.549,0.606,8.66,3.301,12.304,3.119c3.493-0.174,7.894-1.367,9.975-4.427
			c2.038-2.996,1.419-7.237-1.902-9.035c-4.61-2.497-13.051,1.763-16.436,4.997c-0.185,0.176-1.858,2.171-3.055,3.642
			c0.508-0.978,1.013-1.997,1.519-2.924c1.888-3.486,3.832-6.563,5.575-9.273c1.004-1.534,1.942-2.9,2.834-4.169
			c1.83-0.199,9.199-1.088,12.292-2.895c3.02-1.764,6.375-4.85,6.812-8.525c0.429-3.599-2.076-7.076-5.851-7.143
			c-5.243-0.092-10.771,7.579-12.285,12.009c-0.13,0.383-1.487,6.606-1.391,6.597c0,0,0.089-0.01,0.11-0.012
			c-0.882,1.204-1.814,2.506-2.803,3.948c-1.807,2.677-3.822,5.719-5.793,9.178c-1.979,3.452-4.032,7.257-5.832,11.461
			c-1.809,4.21-3.5,8.733-4.637,13.617c-0.013,0.055-0.019,0.115-0.032,0.17c-0.111-1.532-0.565-5.806-0.637-6.13
			c-1.016-4.57-5.664-12.803-10.884-13.29c-3.761-0.35-6.633,2.83-6.604,6.454C299.135,54.187,302.13,57.624,304.935,59.71z"/>
		<path d="M395.758,80.701c0.048,0.083,4.376-4.589,4.616-4.915c2.769-3.775,5.9-12.697,2.828-16.945
			c-2.213-3.06-6.498-3.125-9.205-0.715c-2.765,2.46-3.378,6.977-3.098,10.463C391.226,72.681,395.755,80.694,395.758,80.701z"/>
	</g>
</g>
<g id="Money_2">
	<g>
		<g>
			<g>
				<polygon style="fill:#92E3A9;stroke:#263238;stroke-miterlimit:10;" points="338.975,277.101 256.62,235.52 340.392,68.566 
					422.747,110.147 				"/>
				<path style="fill:#FFFFFF;stroke:#263238;stroke-linecap:round;stroke-linejoin:round;stroke-miterlimit:10;" d="
					M404.465,126.497c-5.487-2.771-7.69-9.465-4.919-14.952c0.21-0.417,0.451-0.808,0.704-1.187l-47.286-23.875
					c-0.154,0.429-0.326,0.854-0.537,1.271c-2.771,5.488-9.465,7.69-14.953,4.919c-0.208-0.105-0.401-0.226-0.599-0.341
					l-63.22,126.248c0.211,0.091,0.423,0.174,0.63,0.279c5.488,2.771,7.69,9.465,4.919,14.952c-0.21,0.417-0.451,0.808-0.704,1.187
					l47.286,23.875c0.154-0.429,0.326-0.854,0.537-1.272c2.771-5.487,9.465-7.69,14.953-4.919c0.417,0.211,0.808,0.451,1.187,0.705
					l63.273-126.354C405.308,126.88,404.883,126.708,404.465,126.497z M330.683,189.181c-8.995-4.541-12.605-15.515-8.064-24.51
					c4.542-8.995,15.515-12.605,24.51-8.064c8.995,4.542,12.605,15.515,8.064,24.51
					C350.651,190.112,339.678,193.723,330.683,189.181z"/>
			</g>
		</g>
		<g>
			<g>
				<polygon style="fill:#92E3A9;stroke:#263238;stroke-miterlimit:10;" points="337.828,277.458 260.458,227.207 361.81,70.302 
					439.18,120.553 				"/>
				<path style="fill:#FFFFFF;stroke:#263238;stroke-linecap:round;stroke-linejoin:round;stroke-miterlimit:10;" d="
					M419.236,134.828c-5.155-3.348-6.62-10.242-3.272-15.397c0.254-0.392,0.535-0.755,0.829-1.104l-44.424-28.853
					c-0.199,0.41-0.417,0.814-0.671,1.206c-3.348,5.155-10.242,6.62-15.397,3.272c-0.195-0.127-0.374-0.268-0.559-0.404
					l-76.514,118.664c0.199,0.113,0.401,0.219,0.596,0.346c5.156,3.348,6.62,10.242,3.272,15.397
					c-0.254,0.392-0.536,0.755-0.829,1.104l44.424,28.853c0.199-0.41,0.417-0.814,0.671-1.206c3.348-5.155,10.242-6.62,15.397-3.272
					c0.392,0.254,0.755,0.536,1.104,0.829l76.578-118.763C420.032,135.299,419.628,135.082,419.236,134.828z M339.102,189.157
					c-8.45-5.489-10.852-16.788-5.363-25.239c5.488-8.451,16.788-10.852,25.238-5.363c8.451,5.488,10.852,16.788,5.363,25.238
					C358.852,192.244,347.552,194.645,339.102,189.157z"/>
			</g>
		</g>
		<g>
			<g>
				<polygon style="fill:#92E3A9;stroke:#263238;stroke-miterlimit:10;" points="336.316,277.73 266.645,217.255 388.737,75.886 
					458.408,136.362 				"/>
				<path style="fill:#FFFFFF;stroke:#263238;stroke-linecap:round;stroke-linejoin:round;stroke-miterlimit:10;" d="
					M436.68,147.739c-4.642-4.03-5.139-11.059-1.109-15.702c0.306-0.353,0.635-0.674,0.974-0.979l-40.003-34.724
					c-0.254,0.378-0.525,0.748-0.832,1.101c-4.03,4.642-11.06,5.139-15.702,1.109c-0.176-0.153-0.333-0.317-0.497-0.478
					l-92.2,106.932c0.182,0.14,0.367,0.273,0.543,0.425c4.643,4.03,5.139,11.059,1.11,15.702c-0.306,0.353-0.635,0.673-0.973,0.978
					l40.003,34.724c0.254-0.378,0.525-0.749,0.832-1.101c4.029-4.642,11.059-5.139,15.702-1.109
					c0.353,0.306,0.673,0.635,0.978,0.974l92.278-107.021C437.404,148.317,437.033,148.046,436.68,147.739z M349.798,190.455
					c-7.609-6.605-8.424-18.128-1.819-25.738c6.605-7.609,18.128-8.424,25.738-1.818c7.609,6.605,8.424,18.129,1.819,25.738
					C368.931,196.246,357.408,197.06,349.798,190.455z"/>
			</g>
		</g>
		<g>
			<g>
				<polygon style="fill:#92E3A9;stroke:#263238;stroke-miterlimit:10;" points="336.113,282.272 275.153,213.025 415.048,89.248 
					476.008,158.495 				"/>
				<path style="fill:#FFFFFF;stroke:#263238;stroke-linecap:round;stroke-linejoin:round;stroke-miterlimit:10;" d="
					M452.954,166.865c-4.062-4.614-3.614-11.647,1-15.709c0.351-0.309,0.719-0.583,1.095-0.839l-35.002-39.76
					c-0.302,0.341-0.621,0.672-0.971,0.98c-4.614,4.062-11.647,3.614-15.709-1c-0.154-0.175-0.288-0.359-0.429-0.54L297.27,203.644
					c0.162,0.163,0.327,0.319,0.481,0.494c4.062,4.614,3.615,11.647-1,15.709c-0.351,0.309-0.719,0.583-1.096,0.839l35.002,39.76
					c0.302-0.341,0.621-0.672,0.971-0.98c4.614-4.062,11.647-3.614,15.709,1c0.309,0.351,0.582,0.719,0.839,1.096l105.757-93.725
					C453.594,167.534,453.263,167.216,452.954,166.865z M361.142,197.583c-6.658-7.563-5.924-19.092,1.639-25.75
					c7.563-6.658,19.092-5.924,25.75,1.639c6.658,7.563,5.924,19.092-1.638,25.75C379.329,205.879,367.8,205.146,361.142,197.583z"
					/>
			</g>
		</g>
	</g>
</g>
<g id="Credit_Card">
	<g>
		<path style="fill:#263238;stroke:#263238;stroke-linecap:round;stroke-linejoin:round;stroke-miterlimit:10;" d="M318.236,358.732
			l171.596-71.708c3.044-1.272,4.481-4.772,3.209-7.816l-42.742-102.28c-1.272-3.044-4.772-4.481-7.816-3.209l-171.596,71.708
			c-3.045,1.272-4.481,4.772-3.209,7.816l42.742,102.28C311.692,358.568,315.191,360.005,318.236,358.732z"/>
		<g>
			<path style="fill:#FFFFFF;stroke:#263238;stroke-miterlimit:10;" d="M288.973,268.083l10.313,4.462
				c2.533,1.096,5.474-0.069,6.569-2.602l4.462-10.313c1.096-2.533-0.069-5.474-2.602-6.569l-10.313-4.462
				c-2.532-1.096-5.474,0.069-6.569,2.602l-4.462,10.313C285.276,264.046,286.44,266.988,288.973,268.083z"/>
		</g>
		
			<rect x="452.854" y="270.279" transform="matrix(-0.9227 0.3856 -0.3856 -0.9227 996.7145 349.3416)" style="fill:#FFFFFF;stroke:#263238;stroke-miterlimit:10;" width="20.948" height="8.668"/>
		
			<rect x="427.194" y="281.002" transform="matrix(-0.9227 0.3856 -0.3856 -0.9227 951.5118 379.8574)" style="fill:#FFFFFF;stroke:#263238;stroke-miterlimit:10;" width="20.948" height="8.668"/>
		
			<rect x="401.533" y="291.725" transform="matrix(-0.9227 0.3856 -0.3856 -0.9227 906.3103 410.3663)" style="fill:#FFFFFF;stroke:#263238;stroke-miterlimit:10;" width="20.948" height="8.668"/>
		
			<rect x="375.873" y="302.448" transform="matrix(-0.9227 0.3856 -0.3856 -0.9227 861.1082 440.8782)" style="fill:#FFFFFF;stroke:#263238;stroke-miterlimit:10;" width="20.948" height="8.668"/>
		
			<rect x="350.213" y="313.172" transform="matrix(-0.9227 0.3856 -0.3856 -0.9227 815.907 471.3868)" style="fill:#FFFFFF;stroke:#263238;stroke-miterlimit:10;" width="20.948" height="8.668"/>
		
			<rect x="324.552" y="323.895" transform="matrix(-0.9227 0.3856 -0.3856 -0.9227 770.7047 501.8997)" style="fill:#FFFFFF;stroke:#263238;stroke-miterlimit:10;" width="20.948" height="8.668"/>
		<path style="fill:#FFFFFF;stroke:#263238;stroke-miterlimit:10;" d="M424.587,264.184l35.882-14.995
			c1.687-0.705,2.483-2.644,1.778-4.33l-10.538-25.217c-0.705-1.687-2.644-2.483-4.331-1.778l-35.881,14.994
			c-1.687,0.705-2.483,2.644-1.778,4.331l10.538,25.217C420.962,264.093,422.9,264.889,424.587,264.184z"/>
		
			<rect x="344.713" y="209.617" transform="matrix(-0.9227 0.3856 -0.3856 -0.9227 840.4011 255.7555)" style="fill:#FFFFFF;stroke:#263238;stroke-miterlimit:10;" width="99.685" height="5.056"/>
	</g>
</g>
<g id="Device">
	<g>
		<g>
			<path style="fill:#FFFFFF;stroke:#263238;stroke-linecap:round;stroke-linejoin:round;stroke-miterlimit:10;" d="M321.182,65.661
				v311.494c0,8.55-6.931,15.48-15.481,15.48H171.108c-8.55,0-15.481-6.931-15.481-15.481V65.653
				c0-8.545,6.927-15.473,15.473-15.473h57.771l0.048,0.177c1.44,5.181,4.755,8.552,8.431,8.552h2.108
				c3.677,0,6.991-3.371,8.431-8.552l0.056-0.177h57.755C314.251,50.18,321.182,57.111,321.182,65.661z"/>
		</g>
		<g>
			<path style="fill:#92E3A9;stroke:#263238;stroke-miterlimit:10;" d="M321.182,141.303V65.661c0-8.55-6.931-15.481-15.481-15.481
				h-57.755l-0.056,0.177c-1.44,5.181-4.755,8.552-8.431,8.552h-2.108c-3.677,0-6.991-3.371-8.431-8.552l-0.048-0.177H171.1
				c-8.545,0-15.473,6.927-15.473,15.473v75.65H321.182z"/>
		</g>
		<g>
			<path style="fill:#92E3A9;stroke:#263238;stroke-miterlimit:10;" d="M286.819,291.741h-97.872c-5.301,0-9.598-4.297-9.598-9.598
				v-30.453c0-5.301,4.297-9.598,9.598-9.598h97.872c5.301,0,9.598,4.297,9.598,9.598v30.453
				C296.417,287.444,292.12,291.741,286.819,291.741z"/>
		</g>
		<g>
			<path style="fill:#DBDBDB;stroke:#263238;stroke-linecap:round;stroke-linejoin:round;stroke-miterlimit:10;" d="M321.182,80.154
				V65.661c0-8.55-6.931-15.481-15.481-15.481h-57.755l-0.056,0.177c-1.44,5.181-4.755,8.552-8.431,8.552h-2.108
				c-3.676,0-6.991-3.371-8.431-8.552l-0.048-0.177H171.1c-8.545,0-15.473,6.927-15.473,15.473v14.501H321.182z"/>
			<path style="fill:#DBDBDB;stroke:#263238;stroke-linecap:round;stroke-linejoin:round;stroke-miterlimit:10;" d="
				M155.628,374.719v2.436c0,8.55,6.931,15.481,15.481,15.481h134.593c8.55,0,15.481-6.931,15.481-15.48v-2.436H155.628z"/>
		</g>
		<g>
			<path style="fill:#92E3A9;stroke:#263238;stroke-linecap:round;stroke-linejoin:round;stroke-miterlimit:10;" d="M331.71,140.059
				v-31.112h-2.814v-39.83c0-13.56-10.992-24.552-24.552-24.552H172.466c-13.559,0-24.551,10.992-24.551,24.552V385.62
				c0,13.56,10.992,24.552,24.551,24.552h131.878c13.559,0,24.552-10.992,24.552-24.552V166.575h2.814v-18.384h-2.814v-8.131H331.71
				z M321.182,368.082c0,13.564-10.998,24.554-24.554,24.554H180.182c-13.556,0-24.554-10.99-24.554-24.554V74.726
				c0-13.556,10.998-24.546,24.554-24.546h48.69l0.048,0.177c1.44,5.181,4.755,8.552,8.431,8.552h2.108
				c3.677,0,6.991-3.371,8.431-8.552l0.056-0.177h48.682c13.556,0,24.554,10.99,24.554,24.546V368.082z"/>
			<path style="fill:#263238;stroke:#263238;stroke-linecap:round;stroke-linejoin:round;stroke-miterlimit:10;" d="M302.375,47.947
				H174.436c-13.077,0-23.678,10.601-23.678,23.679v311.485c0,13.077,10.601,23.678,23.678,23.678h127.939
				c13.077,0,23.678-10.601,23.678-23.678V71.626C326.053,58.549,315.452,47.947,302.375,47.947z M321.182,368.955
				c0,13.079-10.602,23.681-23.681,23.681H179.309c-13.079,0-23.681-10.602-23.681-23.681V73.853
				c0-13.074,10.599-23.673,23.673-23.673h49.571l0.048,0.177c1.44,5.181,4.755,8.552,8.431,8.552h2.108
				c3.677,0,6.991-3.371,8.431-8.552l0.056-0.177h49.555c13.079,0,23.681,10.602,23.681,23.681V368.955z"/>
			<path style="fill:#FFFFFF;" d="M240.205,51.354c0-1.273-1.032-2.305-2.305-2.305c-1.273,0-2.305,1.032-2.305,2.305
				c0,1.273,1.032,2.305,2.305,2.305C239.173,53.659,240.205,52.627,240.205,51.354z"/>
			<g>
				<g>
					<path style="fill:#263238;" d="M170.343,60.187c0,2.332-2.619,3.172-2.63,4.951v0.121h2.542v0.785h-3.392v-0.663
						c0-2.497,2.619-2.984,2.619-5.161c0-0.795-0.266-1.215-0.906-1.215c-0.63,0-0.906,0.453-0.906,1.138v0.685h-0.806v-0.63
						c0-1.182,0.541-1.967,1.734-1.967C169.801,58.23,170.343,59.005,170.343,60.187z"/>
					<path style="fill:#263238;" d="M174.577,60.176v0.199c0,0.796-0.32,1.36-0.939,1.592c0.651,0.243,0.939,0.829,0.939,1.602
						v0.597c0,1.183-0.552,1.956-1.746,1.956c-1.182,0-1.734-0.774-1.734-1.956v-0.531h0.806v0.586c0,0.697,0.287,1.116,0.906,1.116
						c0.63,0,0.906-0.409,0.906-1.193v-0.597c0-0.763-0.321-1.127-0.973-1.149h-0.464v-0.774h0.508
						c0.575-0.022,0.929-0.387,0.929-1.061v-0.354c0-0.795-0.277-1.204-0.906-1.204c-0.619,0-0.906,0.431-0.906,1.127v0.398h-0.806
						v-0.354c0-1.183,0.552-1.945,1.734-1.945C174.024,58.23,174.577,58.993,174.577,60.176z"/>
					<path style="fill:#263238;" d="M176.247,60.761v1.072h-0.829v-1.072H176.247z M176.247,64.972v1.072h-0.829v-1.072H176.247z"/>
					<path style="fill:#263238;" d="M177.993,61.458c0.243-0.42,0.63-0.641,1.15-0.641c0.995,0,1.436,0.729,1.436,1.834v1.514
						c0,1.183-0.563,1.956-1.745,1.956c-1.183,0-1.735-0.774-1.735-1.956v-0.519h0.806v0.574c0,0.697,0.287,1.116,0.906,1.116
						c0.619,0,0.906-0.42,0.906-1.116v-1.503c0-0.696-0.287-1.116-0.906-1.116c-0.475,0-0.796,0.265-0.873,0.829v0.177h-0.806
						l0.21-4.299h3.05v0.774h-2.277L177.993,61.458z"/>
					<path style="fill:#263238;" d="M184.879,60.165v0.144h-0.806V60.11c0-0.696-0.287-1.105-0.917-1.105
						c-0.652,0-0.94,0.42-0.94,1.249v1.735c0.21-0.53,0.63-0.829,1.249-0.829c0.995,0,1.437,0.719,1.437,1.834v1.172
						c0,1.183-0.587,1.956-1.769,1.956c-1.194,0-1.779-0.774-1.779-1.956V60.22c0-1.227,0.553-1.989,1.779-1.989
						C184.327,58.23,184.879,58.982,184.879,60.165z M182.216,63.06v1.16c0,0.697,0.287,1.116,0.917,1.116
						c0.619,0,0.917-0.42,0.917-1.116v-1.16c0-0.696-0.298-1.116-0.917-1.116C182.503,61.944,182.216,62.364,182.216,63.06z"/>
				</g>
				<g>
					<rect x="267.148" y="60.505" style="fill:#263238;" width="2.184" height="5.461"/>
					<rect x="270.061" y="59.411" style="fill:#263238;" width="2.184" height="6.555"/>
					<rect x="272.973" y="58.634" style="fill:#263238;" width="2.184" height="7.331"/>
					<rect x="275.885" y="57.283" style="fill:#263238;" width="2.184" height="8.682"/>
					<g>
						<g>
							<path style="fill:#263238;" d="M305.1,65.815h-13.106v-8.009H305.1V65.815z M292.722,65.087h11.65v-6.553h-11.65V65.087z"/>
						</g>
						<g>
							<rect x="293.814" y="59.327" style="fill:#263238;" width="6.917" height="4.968"/>
						</g>
						<g>
							<rect x="304.645" y="60.868" style="fill:#263238;" width="1.648" height="1.887"/>
						</g>
					</g>
					<g>
						<path style="fill:#263238;" d="M287.189,64.073c-0.085,0-0.172-0.022-0.251-0.069c-2.667-1.585-4.43-0.114-4.503-0.052
							c-0.203,0.177-0.512,0.154-0.689-0.049c-0.177-0.204-0.158-0.509,0.045-0.687c0.095-0.083,2.349-2.014,5.649-0.054
							c0.232,0.138,0.309,0.439,0.17,0.671C287.518,63.988,287.355,64.073,287.189,64.073z"/>
					</g>
					<g>
						<path style="fill:#263238;" d="M288.176,62.428c-0.085,0-0.172-0.022-0.251-0.069c-3.856-2.293-6.448-0.075-6.475-0.054
							c-0.203,0.18-0.511,0.159-0.69-0.044c-0.179-0.203-0.16-0.512,0.044-0.69c0.032-0.029,3.158-2.706,7.622-0.054
							c0.232,0.138,0.309,0.439,0.17,0.671C288.504,62.343,288.342,62.428,288.176,62.428z"/>
					</g>
					<g>
						<path style="fill:#263238;" d="M289.071,60.523c-0.085,0-0.172-0.022-0.25-0.069c-4.884-2.904-8.131-0.17-8.267-0.051
							c-0.204,0.177-0.513,0.155-0.69-0.048c-0.178-0.203-0.158-0.511,0.045-0.688c0.038-0.035,3.896-3.334,9.413-0.054
							c0.232,0.138,0.309,0.439,0.17,0.671C289.4,60.438,289.238,60.523,289.071,60.523z"/>
					</g>
					<g>
						<path style="fill:#263238;" d="M285.715,64.894c0,0.678-0.55,1.228-1.228,1.228c-0.678,0-1.228-0.55-1.228-1.228
							s0.55-1.228,1.228-1.228C285.166,63.666,285.715,64.215,285.715,64.894z"/>
					</g>
				</g>
			</g>
		</g>
	</g>
</g>
<g id="Text">
	<g>
		<g>
			<path d="M207.694,193.317v-2.412c-1.673-0.082-2.928-0.622-3.765-1.62c-0.837-0.999-1.288-2.538-1.352-4.617l3.728-0.561
				c0.016,0.845,0.089,1.527,0.22,2.046c0.129,0.52,0.32,0.894,0.572,1.121s0.556,0.341,0.914,0.341c0.455,0,0.751-0.154,0.89-0.463
				c0.138-0.308,0.207-0.633,0.207-0.975c0-0.812-0.191-1.499-0.573-2.059c-0.382-0.561-0.906-1.125-1.571-1.693l-1.73-1.486
				c-0.487-0.438-0.93-0.89-1.328-1.353s-0.719-0.999-0.962-1.608c-0.244-0.609-0.365-1.336-0.365-2.181
				c0-1.543,0.442-2.753,1.328-3.63c0.885-0.877,2.075-1.373,3.57-1.486v-2.315h1.243v2.291c0.942,0.049,1.697,0.264,2.266,0.646
				c0.568,0.382,0.995,0.853,1.279,1.414c0.284,0.56,0.479,1.153,0.585,1.778c0.105,0.625,0.166,1.206,0.183,1.742l-3.777,0.463
				c-0.016-0.584-0.053-1.096-0.109-1.535c-0.057-0.439-0.17-0.776-0.341-1.011c-0.17-0.235-0.443-0.345-0.816-0.329
				c-0.406,0-0.707,0.17-0.902,0.512s-0.292,0.682-0.292,1.023c0,0.78,0.199,1.409,0.597,1.888c0.398,0.479,0.832,0.93,1.304,1.352
				l1.657,1.438c0.552,0.503,1.06,1.04,1.523,1.608c0.463,0.569,0.832,1.202,1.108,1.9c0.276,0.699,0.414,1.503,0.414,2.412
				c0,0.861-0.179,1.649-0.536,2.364c-0.358,0.715-0.869,1.295-1.535,1.742c-0.667,0.447-1.462,0.719-2.388,0.816v2.437H207.694z"/>
			<path d="M220.193,190.954c-1.332,0-2.396-0.264-3.192-0.792s-1.364-1.259-1.706-2.193s-0.512-2.002-0.512-3.204
				c0.016-0.487,0.069-0.962,0.159-1.425c0.089-0.463,0.227-0.893,0.414-1.292c0.187-0.398,0.422-0.747,0.707-1.047
				s0.621-0.548,1.011-0.743c-0.504-0.374-0.95-0.914-1.34-1.621c-0.39-0.707-0.601-1.604-0.633-2.692
				c-0.017-1.104,0.167-2.055,0.548-2.851c0.381-0.796,0.954-1.405,1.718-1.827c0.763-0.422,1.706-0.634,2.826-0.634
				c1.137,0,2.083,0.215,2.838,0.646c0.755,0.431,1.32,1.04,1.693,1.828c0.374,0.788,0.544,1.734,0.512,2.838
				c-0.016,1.105-0.211,2.01-0.584,2.717c-0.374,0.707-0.821,1.239-1.34,1.596c0.39,0.195,0.727,0.442,1.011,0.743
				s0.52,0.649,0.707,1.047c0.187,0.398,0.329,0.829,0.426,1.292c0.098,0.463,0.146,0.938,0.146,1.425
				c0.032,1.202-0.126,2.27-0.475,3.204c-0.35,0.934-0.922,1.665-1.718,2.193C222.613,190.69,221.542,190.954,220.193,190.954z
				 M220.193,187.957c0.438,0,0.755-0.162,0.95-0.487c0.195-0.325,0.317-0.71,0.366-1.157c0.048-0.447,0.073-0.857,0.073-1.23
				c0.016-0.503-0.004-0.991-0.061-1.462c-0.057-0.471-0.183-0.856-0.378-1.157s-0.512-0.451-0.95-0.451
				c-0.422,0-0.731,0.15-0.926,0.451s-0.321,0.682-0.378,1.145s-0.085,0.955-0.085,1.474c0,0.374,0.024,0.788,0.073,1.243
				c0.049,0.455,0.174,0.84,0.378,1.157C219.458,187.799,219.771,187.957,220.193,187.957z M220.193,178.796
				c0.276,0,0.503-0.11,0.682-0.329s0.313-0.548,0.402-0.987c0.089-0.438,0.134-0.982,0.134-1.632c0-0.666-0.102-1.194-0.305-1.584
				c-0.203-0.39-0.508-0.584-0.914-0.584c-0.406,0-0.719,0.195-0.938,0.584c-0.219,0.39-0.329,0.91-0.329,1.56
				c0,0.65,0.044,1.198,0.134,1.645c0.089,0.447,0.231,0.78,0.426,0.999S219.917,178.796,220.193,178.796z"/>
			<path d="M233.253,191.002c-1.186,0-2.177-0.24-2.972-0.719c-0.796-0.479-1.397-1.141-1.803-1.985
				c-0.406-0.845-0.609-1.828-0.609-2.948v-8.942c0-1.153,0.19-2.164,0.572-3.033c0.381-0.869,0.971-1.547,1.767-2.035
				s1.811-0.731,3.045-0.731s2.246,0.244,3.034,0.731c0.788,0.487,1.373,1.166,1.754,2.035c0.381,0.869,0.572,1.88,0.572,3.033
				v8.942c0,1.104-0.203,2.083-0.609,2.936c-0.406,0.853-1.007,1.519-1.803,1.998C235.405,190.763,234.423,191.002,233.253,191.002z
				 M233.253,187.372c0.39,0,0.67-0.125,0.841-0.377c0.17-0.251,0.276-0.544,0.317-0.877c0.04-0.333,0.061-0.622,0.061-0.865v-8.747
				c0-0.276-0.016-0.588-0.048-0.938c-0.033-0.349-0.134-0.658-0.305-0.926s-0.459-0.402-0.865-0.402
				c-0.406,0-0.694,0.134-0.865,0.402s-0.272,0.577-0.305,0.926c-0.033,0.35-0.049,0.662-0.049,0.938v8.747
				c0,0.244,0.024,0.532,0.073,0.865s0.159,0.625,0.329,0.877C232.607,187.247,232.879,187.372,233.253,187.372z"/>
			<path d="M241.074,190.637v-3.752h3.752v3.752H241.074z"/>
			<path d="M252.257,190.93c-1.267,0-2.266-0.195-2.997-0.585c-0.731-0.39-1.251-0.962-1.559-1.718
				c-0.309-0.755-0.463-1.685-0.463-2.79c0-0.049,0-0.102,0-0.159c0-0.057,0-0.109,0-0.158h3.801c0,0.796,0.069,1.385,0.207,1.767
				c0.138,0.382,0.483,0.572,1.036,0.572c0.374,0,0.649-0.113,0.828-0.341s0.296-0.629,0.354-1.206
				c0.057-0.577,0.085-1.368,0.085-2.375v-1.754c-0.211,0.341-0.532,0.601-0.962,0.78c-0.431,0.179-0.914,0.284-1.45,0.316
				c-1.04,0.017-1.876-0.244-2.509-0.78c-0.634-0.536-1.088-1.258-1.365-2.168c-0.276-0.909-0.414-1.9-0.414-2.972
				c0-1.381,0.174-2.571,0.524-3.57c0.349-0.999,0.922-1.774,1.718-2.327c0.795-0.552,1.852-0.829,3.167-0.829
				c1.299,0,2.347,0.26,3.143,0.78c0.796,0.52,1.376,1.247,1.742,2.181c0.365,0.934,0.548,2.035,0.548,3.301v7.358
				c0,1.284-0.15,2.429-0.451,3.436c-0.301,1.007-0.84,1.799-1.62,2.375C254.84,190.641,253.719,190.93,252.257,190.93z
				 M252.306,180.16c0.325,0,0.584-0.089,0.779-0.268c0.195-0.179,0.349-0.349,0.463-0.512v-3.216c0-0.455-0.033-0.873-0.098-1.254
				s-0.187-0.69-0.366-0.926c-0.179-0.235-0.455-0.353-0.828-0.353c-0.357,0-0.625,0.126-0.804,0.377
				c-0.179,0.252-0.296,0.625-0.353,1.121c-0.057,0.496-0.085,1.108-0.085,1.839c0,0.634,0.02,1.19,0.061,1.669
				c0.04,0.479,0.15,0.853,0.329,1.121S251.883,180.16,252.306,180.16z"/>
			<path d="M265.366,190.93c-1.267,0-2.266-0.195-2.997-0.585c-0.731-0.39-1.251-0.962-1.559-1.718
				c-0.309-0.755-0.463-1.685-0.463-2.79c0-0.049,0-0.102,0-0.159c0-0.057,0-0.109,0-0.158h3.801c0,0.796,0.069,1.385,0.207,1.767
				c0.138,0.382,0.483,0.572,1.036,0.572c0.374,0,0.649-0.113,0.828-0.341s0.296-0.629,0.354-1.206
				c0.057-0.577,0.085-1.368,0.085-2.375v-1.754c-0.211,0.341-0.532,0.601-0.962,0.78c-0.431,0.179-0.914,0.284-1.45,0.316
				c-1.04,0.017-1.876-0.244-2.509-0.78c-0.634-0.536-1.088-1.258-1.365-2.168c-0.276-0.909-0.414-1.9-0.414-2.972
				c0-1.381,0.174-2.571,0.524-3.57c0.349-0.999,0.922-1.774,1.718-2.327c0.795-0.552,1.852-0.829,3.167-0.829
				c1.299,0,2.347,0.26,3.143,0.78c0.796,0.52,1.376,1.247,1.742,2.181c0.365,0.934,0.548,2.035,0.548,3.301v7.358
				c0,1.284-0.15,2.429-0.451,3.436c-0.301,1.007-0.84,1.799-1.62,2.375C267.948,190.641,266.828,190.93,265.366,190.93z
				 M265.415,180.16c0.325,0,0.584-0.089,0.779-0.268c0.195-0.179,0.349-0.349,0.463-0.512v-3.216c0-0.455-0.033-0.873-0.098-1.254
				s-0.187-0.69-0.366-0.926c-0.179-0.235-0.455-0.353-0.828-0.353c-0.357,0-0.625,0.126-0.804,0.377
				c-0.179,0.252-0.296,0.625-0.353,1.121c-0.057,0.496-0.085,1.108-0.085,1.839c0,0.634,0.02,1.19,0.061,1.669
				c0.04,0.479,0.15,0.853,0.329,1.121S264.992,180.16,265.415,180.16z"/>
		</g>
	</g>
	<g>
		<path d="M202.915,120.083v-16.857h6.098v1.228h-4.495v6.327h3.663v1.165h-3.663v6.951h4.537v1.186H202.915z"/>
		<path d="M210.636,113.902v-1.207h4.411v1.207H210.636z"/>
		<path d="M219.501,120.083l-2.851-16.857h1.353l2.227,13.693l2.539-13.444h1.311l2.601,13.464l2.06-13.714h1.332l-2.726,16.857
			h-1.228l-2.685-13.902l-2.643,13.902H219.501z"/>
		<path d="M230.718,120.083l3.559-16.857h1.665l3.58,16.857h-1.561l-0.832-4.516h-4.016l-0.853,4.516H230.718z M233.34,114.422
			h3.579l-1.81-9.094L233.34,114.422z"/>
		<path d="M241.56,120.083v-16.857h1.581v15.671h4.787v1.186H241.56z"/>
		<path d="M249.51,120.083v-16.857h1.581v15.671h4.786v1.186H249.51z"/>
		<path d="M257.438,120.083v-16.857h6.098v1.228h-4.495v6.327h3.663v1.165h-3.663v6.951h4.537v1.186H257.438z"/>
		<path d="M267.823,120.083v-15.629h-3.184v-1.228h7.845v1.228h-3.08v15.629H267.823z"/>
	</g>
	<g>
		<path style="fill:#263238;" d="M221.706,275.035v-17.95h6.027c1.078,0,1.965,0.204,2.659,0.61
			c0.694,0.406,1.212,0.997,1.551,1.772s0.51,1.717,0.51,2.825c0,1.389-0.23,2.448-0.687,3.18c-0.458,0.731-1.079,1.237-1.861,1.519
			c-0.783,0.28-1.662,0.421-2.637,0.421h-1.595v7.623H221.706z M225.673,264.642h1.33c0.487,0,0.856-0.088,1.108-0.266
			c0.251-0.177,0.417-0.443,0.499-0.798c0.081-0.354,0.122-0.805,0.122-1.352c0-0.458-0.034-0.86-0.1-1.208
			c-0.066-0.347-0.225-0.624-0.476-0.831c-0.251-0.206-0.643-0.31-1.175-0.31h-1.307V264.642z"/>
		<path style="fill:#263238;" d="M232.454,275.035l3.391-17.95h4.52l3.346,17.95h-3.656l-0.599-3.79h-2.637l-0.621,3.79H232.454z
			 M237.174,268.874h1.906l-0.953-7.002L237.174,268.874z"/>
		<path style="fill:#263238;" d="M246.902,275.035V267.7l-3.413-10.615h3.745l1.706,5.674l1.529-5.674h3.59l-3.346,10.615v7.335
			H246.902z"/>
	</g>
</g>
<g id="Shield">
	<g>
		<path style="fill:#92E3A9;" d="M146.246,68.924c-17.575-7.913-35.589-17.946-46.141-34.701c-2.321-3.685-4.118-7.317-5.265-9.054
			c-1.147,1.737-2.944,5.369-5.265,9.054C79.024,50.978,61.01,61.011,43.435,68.924c-0.783,0.352-13.343,4.734-13.338,4.864
			c0,0.011,2.652,65.035,22.64,93.464c17.07,24.278,36.722,32.909,42.103,34.914c5.381-2.005,25.034-10.636,42.103-34.914
			c19.988-28.429,22.64-93.453,22.64-93.464C159.589,73.657,147.029,69.276,146.246,68.924z"/>
		<path style="fill:#FFFFFF;" d="M140.715,73.738c-15.684-7.062-31.759-16.015-41.176-30.967c-2.071-3.288-3.675-6.53-4.699-8.08
			c-1.024,1.55-2.628,4.792-4.699,8.08C80.726,57.723,64.65,66.676,48.966,73.738c-0.698,0.314-11.907,4.225-11.903,4.34
			c0,0.01,2.367,58.037,20.204,83.407c15.233,21.666,32.771,29.368,37.573,31.157c4.802-1.789,22.34-9.491,37.573-31.157
			c17.837-25.37,20.204-83.397,20.204-83.407C152.622,77.963,141.413,74.052,140.715,73.738z"/>
		<g>
			
				<circle style="fill:#263238;stroke:#263238;stroke-linecap:round;stroke-linejoin:round;stroke-miterlimit:10;" cx="95.257" cy="118.844" r="40.41"/>
			<g>
				<path style="fill:#92E3A9;stroke:#263238;stroke-miterlimit:10;" d="M92.758,131.533c-0.122,0-0.244-0.005-0.366-0.015
					c-1.361-0.115-2.59-0.861-3.32-2.018l-12.082-19.163c-1.283-2.035-0.673-4.726,1.362-6.009c2.036-1.283,4.726-0.674,6.009,1.362
					l9.003,14.281l24.894-27.78c1.605-1.792,4.36-1.942,6.152-0.337c1.792,1.605,1.943,4.36,0.337,6.152l-28.745,32.078
					C95.172,131.01,93.991,131.533,92.758,131.533z"/>
			</g>
		</g>
		<path style="opacity:0.18;" d="M107.755,123.01c-27.504,9.031-45.598,26.252-56.883,41.402c0.605,0.981,1.226,1.929,1.865,2.839
			c17.07,24.278,36.722,32.909,42.103,34.914c5.381-2.005,25.034-10.636,42.103-34.914c11.357-16.154,17.116-44.118,19.973-65.262
			C145.583,108.435,129.664,115.817,107.755,123.01z"/>
		<path style="fill:none;stroke:#263238;stroke-miterlimit:10;" d="M146.246,68.924c-17.575-7.913-35.589-17.946-46.141-34.701
			c-2.321-3.685-4.118-7.317-5.265-9.054c-1.147,1.737-2.944,5.369-5.265,9.054C79.024,50.978,61.01,61.011,43.435,68.924
			c-0.783,0.352-13.343,4.734-13.338,4.864c0,0.011,2.652,65.035,22.64,93.464c17.07,24.278,36.722,32.909,42.103,34.914
			c5.381-2.005,25.034-10.636,42.103-34.914c19.988-28.429,22.64-93.453,22.64-93.464C159.589,73.657,147.029,69.276,146.246,68.924
			z"/>
	</g>
</g>
<g id="Money_1">
	<g>
		<g>
			
				<ellipse transform="matrix(0.7071 -0.7071 0.7071 0.7071 -284.1156 181.4256)" style="fill:#FFFFFF;stroke:#263238;stroke-miterlimit:10;" cx="76.942" cy="433.671" rx="49.677" ry="49.677"/>
		</g>
		<g>
			
				<ellipse transform="matrix(0.9737 -0.2278 0.2278 0.9737 -96.7853 28.9373)" style="fill:#FFFFFF;stroke:#263238;stroke-miterlimit:10;" cx="76.942" cy="433.671" rx="41.721" ry="41.721"/>
		</g>
		<g>
			<path style="fill:#263238;" d="M85.511,471.636l-1.413-6.642c-4.945,0.853-8.945,0.063-12.004-2.374
				c-3.056-2.435-5.302-6.562-6.738-12.378l9.706-3.856c0.602,2.362,1.276,4.296,2.019,5.804c0.743,1.51,1.604,2.57,2.581,3.183
				c0.975,0.614,2.106,0.784,3.393,0.51c1.474-0.314,2.387-1.004,2.73-2.074c0.346-1.069,0.388-2.222,0.124-3.461
				c-0.517-2.428-1.511-4.344-2.979-5.749c-1.468-1.405-3.356-2.732-5.661-3.984l-7.181-3.922c-1.656-0.991-3.171-2.037-4.549-3.138
				c-1.38-1.099-2.572-2.439-3.58-4.017c-1.008-1.577-1.759-3.532-2.256-5.865c-0.952-4.475-0.421-8.235,1.595-11.276
				c2.016-3.042,5.13-5.185,9.345-6.43l-1.352-6.357l3.429-0.729l1.352,6.357c2.603-0.404,4.833-0.269,6.693,0.405
				c1.86,0.675,3.385,1.695,4.571,3.059c1.186,1.366,2.163,2.925,2.934,4.676c0.772,1.753,1.386,3.475,1.847,5.169l-9.894,3.673
				c-0.421-1.751-0.897-3.281-1.424-4.587c-0.526-1.307-1.182-2.274-1.961-2.905c-0.781-0.63-1.809-0.784-3.084-0.464
				c-1.323,0.332-2.224,1.071-2.702,2.217s-0.585,2.34-0.322,3.577c0.466,2.191,1.365,3.841,2.696,4.951
				c1.331,1.111,2.794,2.143,4.391,3.097l7.022,3.882c1.875,1.094,3.658,2.333,5.346,3.715c1.687,1.384,3.151,3.001,4.391,4.852
				c1.239,1.853,2.138,4.087,2.695,6.705c0.537,2.524,0.513,4.93-0.07,7.219c-0.584,2.289-1.701,4.281-3.356,5.977
				c-1.655,1.696-3.768,2.941-6.336,3.737l1.428,6.714L85.511,471.636z"/>
		</g>
	</g>
	<g>
		<g>
			<g>
				
					<ellipse transform="matrix(0.4222 -0.9065 0.9065 0.4222 -189.7759 569.5997)" style="fill:#FFFFFF;stroke:#263238;stroke-miterlimit:10;" cx="351.938" cy="433.671" rx="49.677" ry="49.677"/>
			</g>
			<g>
				
					<ellipse transform="matrix(0.9714 -0.2373 0.2373 0.9714 -92.8588 95.9038)" style="fill:#FFFFFF;stroke:#263238;stroke-miterlimit:10;" cx="351.938" cy="433.671" rx="41.721" ry="41.721"/>
			</g>
			<g>
				<path style="fill:#263238;" d="M360.507,471.636l-1.413-6.642c-4.945,0.853-8.946,0.063-12.004-2.374
					c-3.056-2.435-5.302-6.562-6.738-12.378l9.706-3.856c0.602,2.362,1.276,4.296,2.019,5.804c0.743,1.51,1.605,2.57,2.582,3.183
					c0.975,0.614,2.106,0.784,3.393,0.51c1.474-0.314,2.387-1.004,2.73-2.074c0.346-1.069,0.388-2.222,0.124-3.461
					c-0.517-2.428-1.511-4.344-2.979-5.749c-1.468-1.405-3.356-2.732-5.661-3.984l-7.181-3.922
					c-1.656-0.991-3.171-2.037-4.549-3.138c-1.38-1.099-2.572-2.439-3.58-4.017c-1.008-1.577-1.759-3.532-2.256-5.865
					c-0.952-4.475-0.421-8.235,1.595-11.276c2.016-3.042,5.13-5.185,9.345-6.43l-1.352-6.357l3.429-0.729l1.352,6.357
					c2.602-0.404,4.833-0.269,6.693,0.405c1.86,0.675,3.385,1.695,4.571,3.059c1.186,1.366,2.163,2.925,2.934,4.676
					c0.772,1.753,1.386,3.475,1.847,5.169l-9.894,3.673c-0.421-1.751-0.897-3.281-1.424-4.587c-0.526-1.307-1.182-2.274-1.961-2.905
					c-0.781-0.63-1.809-0.784-3.084-0.464c-1.323,0.332-2.224,1.071-2.702,2.217c-0.478,1.147-0.585,2.34-0.322,3.577
					c0.466,2.191,1.365,3.841,2.696,4.951c1.331,1.111,2.794,2.143,4.392,3.097l7.022,3.882c1.875,1.094,3.658,2.333,5.346,3.715
					c1.687,1.384,3.151,3.001,4.391,4.852c1.239,1.853,2.138,4.087,2.695,6.705c0.537,2.524,0.513,4.93-0.07,7.219
					c-0.584,2.289-1.702,4.281-3.357,5.977c-1.655,1.696-3.768,2.941-6.336,3.737l1.428,6.714L360.507,471.636z"/>
			</g>
		</g>
		<g>
			<line style="fill:none;stroke:#263238;stroke-miterlimit:10;" x1="477.478" y1="362.81" x2="477.478" y2="360.082"/>
			<rect x="396.34" y="356.93" style="fill:#FFFFFF;stroke:#263238;stroke-miterlimit:10;" width="83.516" height="6.095"/>
			<g>
				<line style="fill:none;stroke:#263238;stroke-miterlimit:10;" x1="400.035" y1="363.567" x2="400.035" y2="359.778"/>
				<line style="fill:none;stroke:#263238;stroke-miterlimit:10;" x1="402.611" y1="357.202" x2="402.611" y2="360.991"/>
				<line style="fill:none;stroke:#263238;stroke-miterlimit:10;" x1="474.447" y1="357.505" x2="474.447" y2="361.142"/>
				<line style="fill:none;stroke:#263238;stroke-miterlimit:10;" x1="470.506" y1="357.505" x2="470.506" y2="360.991"/>
				<line style="fill:none;stroke:#263238;stroke-miterlimit:10;" x1="460.807" y1="357.354" x2="460.807" y2="361.749"/>
				<line style="fill:none;stroke:#263238;stroke-miterlimit:10;" x1="408.825" y1="357.808" x2="408.825" y2="359.778"/>
				<line style="fill:none;stroke:#263238;stroke-miterlimit:10;" x1="410.34" y1="362.355" x2="410.34" y2="358.869"/>
				<line style="fill:none;stroke:#263238;stroke-miterlimit:10;" x1="421.1" y1="357.354" x2="421.1" y2="361.749"/>
				<line style="fill:none;stroke:#263238;stroke-miterlimit:10;" x1="440.044" y1="357.808" x2="440.044" y2="360.839"/>
			</g>
		</g>
		<g>
			<line style="fill:none;stroke:#263238;stroke-miterlimit:10;" x1="483.516" y1="368.806" x2="483.516" y2="366.078"/>
			<rect x="402.378" y="362.926" style="fill:#FFFFFF;stroke:#263238;stroke-miterlimit:10;" width="83.516" height="6.095"/>
			<g>
				<line style="fill:none;stroke:#263238;stroke-miterlimit:10;" x1="406.073" y1="369.564" x2="406.073" y2="365.775"/>
				<line style="fill:none;stroke:#263238;stroke-miterlimit:10;" x1="408.649" y1="363.199" x2="408.649" y2="366.987"/>
				<line style="fill:none;stroke:#263238;stroke-miterlimit:10;" x1="480.484" y1="363.502" x2="480.484" y2="367.139"/>
				<line style="fill:none;stroke:#263238;stroke-miterlimit:10;" x1="476.544" y1="363.502" x2="476.544" y2="366.987"/>
				<line style="fill:none;stroke:#263238;stroke-miterlimit:10;" x1="466.845" y1="363.35" x2="466.845" y2="367.745"/>
				<line style="fill:none;stroke:#263238;stroke-miterlimit:10;" x1="414.863" y1="363.805" x2="414.863" y2="365.775"/>
				<line style="fill:none;stroke:#263238;stroke-miterlimit:10;" x1="416.378" y1="368.351" x2="416.378" y2="364.866"/>
				<line style="fill:none;stroke:#263238;stroke-miterlimit:10;" x1="427.138" y1="363.35" x2="427.138" y2="367.745"/>
				<line style="fill:none;stroke:#263238;stroke-miterlimit:10;" x1="446.082" y1="363.805" x2="446.082" y2="366.836"/>
			</g>
		</g>
		<g>
			<line style="fill:none;stroke:#263238;stroke-miterlimit:10;" x1="481.396" y1="374.803" x2="481.396" y2="372.075"/>
			<rect x="400.259" y="368.923" style="fill:#FFFFFF;stroke:#263238;stroke-miterlimit:10;" width="83.516" height="6.095"/>
			<g>
				<line style="fill:none;stroke:#263238;stroke-miterlimit:10;" x1="403.953" y1="375.56" x2="403.953" y2="371.772"/>
				<line style="fill:none;stroke:#263238;stroke-miterlimit:10;" x1="406.529" y1="369.195" x2="406.529" y2="372.984"/>
				<line style="fill:none;stroke:#263238;stroke-miterlimit:10;" x1="478.365" y1="369.498" x2="478.365" y2="373.136"/>
				<line style="fill:none;stroke:#263238;stroke-miterlimit:10;" x1="474.425" y1="369.498" x2="474.425" y2="372.984"/>
				<line style="fill:none;stroke:#263238;stroke-miterlimit:10;" x1="464.725" y1="369.347" x2="464.725" y2="373.742"/>
				<line style="fill:none;stroke:#263238;stroke-miterlimit:10;" x1="412.743" y1="369.802" x2="412.743" y2="371.772"/>
				<line style="fill:none;stroke:#263238;stroke-miterlimit:10;" x1="414.259" y1="374.348" x2="414.259" y2="370.862"/>
				<line style="fill:none;stroke:#263238;stroke-miterlimit:10;" x1="425.019" y1="369.347" x2="425.019" y2="373.742"/>
				<line style="fill:none;stroke:#263238;stroke-miterlimit:10;" x1="443.963" y1="369.802" x2="443.963" y2="372.832"/>
			</g>
		</g>
		<g>
			<line style="fill:none;stroke:#263238;stroke-miterlimit:10;" x1="483.524" y1="380.799" x2="483.524" y2="378.071"/>
			<rect x="402.387" y="374.919" style="fill:#FFFFFF;stroke:#263238;stroke-miterlimit:10;" width="83.516" height="6.095"/>
			<g>
				<line style="fill:none;stroke:#263238;stroke-miterlimit:10;" x1="406.081" y1="381.557" x2="406.081" y2="377.768"/>
				<line style="fill:none;stroke:#263238;stroke-miterlimit:10;" x1="408.657" y1="375.192" x2="408.657" y2="378.981"/>
				<line style="fill:none;stroke:#263238;stroke-miterlimit:10;" x1="480.493" y1="375.495" x2="480.493" y2="379.132"/>
				<line style="fill:none;stroke:#263238;stroke-miterlimit:10;" x1="476.552" y1="375.495" x2="476.552" y2="378.981"/>
				<line style="fill:none;stroke:#263238;stroke-miterlimit:10;" x1="466.853" y1="375.343" x2="466.853" y2="379.738"/>
				<line style="fill:none;stroke:#263238;stroke-miterlimit:10;" x1="414.871" y1="375.798" x2="414.871" y2="377.768"/>
				<line style="fill:none;stroke:#263238;stroke-miterlimit:10;" x1="416.387" y1="380.345" x2="416.387" y2="376.859"/>
				<line style="fill:none;stroke:#263238;stroke-miterlimit:10;" x1="427.147" y1="375.343" x2="427.147" y2="379.738"/>
				<line style="fill:none;stroke:#263238;stroke-miterlimit:10;" x1="446.091" y1="375.798" x2="446.091" y2="378.829"/>
			</g>
		</g>
		<g>
			<line style="fill:none;stroke:#263238;stroke-miterlimit:10;" x1="477.478" y1="386.796" x2="477.478" y2="384.068"/>
			<rect x="396.34" y="380.916" style="fill:#FFFFFF;stroke:#263238;stroke-miterlimit:10;" width="83.516" height="6.095"/>
			<g>
				<line style="fill:none;stroke:#263238;stroke-miterlimit:10;" x1="400.035" y1="387.554" x2="400.035" y2="383.765"/>
				<line style="fill:none;stroke:#263238;stroke-miterlimit:10;" x1="402.611" y1="381.188" x2="402.611" y2="384.977"/>
				<line style="fill:none;stroke:#263238;stroke-miterlimit:10;" x1="474.447" y1="381.491" x2="474.447" y2="385.129"/>
				<line style="fill:none;stroke:#263238;stroke-miterlimit:10;" x1="470.506" y1="381.491" x2="470.506" y2="384.977"/>
				<line style="fill:none;stroke:#263238;stroke-miterlimit:10;" x1="460.807" y1="381.34" x2="460.807" y2="385.735"/>
				<line style="fill:none;stroke:#263238;stroke-miterlimit:10;" x1="408.825" y1="381.795" x2="408.825" y2="383.765"/>
				<line style="fill:none;stroke:#263238;stroke-miterlimit:10;" x1="410.34" y1="386.341" x2="410.34" y2="382.855"/>
				<line style="fill:none;stroke:#263238;stroke-miterlimit:10;" x1="421.1" y1="381.34" x2="421.1" y2="385.735"/>
				<line style="fill:none;stroke:#263238;stroke-miterlimit:10;" x1="440.044" y1="381.795" x2="440.044" y2="384.826"/>
			</g>
		</g>
		<g>
			<line style="fill:none;stroke:#263238;stroke-miterlimit:10;" x1="477.478" y1="392.793" x2="477.478" y2="390.065"/>
			<rect x="396.34" y="386.913" style="fill:#FFFFFF;stroke:#263238;stroke-miterlimit:10;" width="83.516" height="6.095"/>
			<g>
				<line style="fill:none;stroke:#263238;stroke-miterlimit:10;" x1="400.035" y1="393.55" x2="400.035" y2="389.761"/>
				<line style="fill:none;stroke:#263238;stroke-miterlimit:10;" x1="402.611" y1="387.185" x2="402.611" y2="390.974"/>
				<line style="fill:none;stroke:#263238;stroke-miterlimit:10;" x1="474.447" y1="387.488" x2="474.447" y2="391.125"/>
				<line style="fill:none;stroke:#263238;stroke-miterlimit:10;" x1="470.506" y1="387.488" x2="470.506" y2="390.974"/>
				<line style="fill:none;stroke:#263238;stroke-miterlimit:10;" x1="460.807" y1="387.337" x2="460.807" y2="391.732"/>
				<line style="fill:none;stroke:#263238;stroke-miterlimit:10;" x1="408.825" y1="387.791" x2="408.825" y2="389.761"/>
				<line style="fill:none;stroke:#263238;stroke-miterlimit:10;" x1="410.34" y1="392.338" x2="410.34" y2="388.852"/>
				<line style="fill:none;stroke:#263238;stroke-miterlimit:10;" x1="421.1" y1="387.337" x2="421.1" y2="391.732"/>
				<line style="fill:none;stroke:#263238;stroke-miterlimit:10;" x1="440.044" y1="387.791" x2="440.044" y2="390.822"/>
			</g>
		</g>
		<g>
			<line style="fill:none;stroke:#263238;stroke-miterlimit:10;" x1="477.478" y1="398.789" x2="477.478" y2="396.061"/>
			<rect x="396.34" y="392.909" style="fill:#FFFFFF;stroke:#263238;stroke-miterlimit:10;" width="83.516" height="6.095"/>
			<g>
				<line style="fill:none;stroke:#263238;stroke-miterlimit:10;" x1="400.035" y1="399.547" x2="400.035" y2="395.758"/>
				<line style="fill:none;stroke:#263238;stroke-miterlimit:10;" x1="402.611" y1="393.182" x2="402.611" y2="396.97"/>
				<line style="fill:none;stroke:#263238;stroke-miterlimit:10;" x1="474.447" y1="393.485" x2="474.447" y2="397.122"/>
				<line style="fill:none;stroke:#263238;stroke-miterlimit:10;" x1="470.506" y1="393.485" x2="470.506" y2="396.97"/>
				<line style="fill:none;stroke:#263238;stroke-miterlimit:10;" x1="460.807" y1="393.333" x2="460.807" y2="397.728"/>
				<line style="fill:none;stroke:#263238;stroke-miterlimit:10;" x1="408.825" y1="393.788" x2="408.825" y2="395.758"/>
				<line style="fill:none;stroke:#263238;stroke-miterlimit:10;" x1="410.34" y1="398.334" x2="410.34" y2="394.849"/>
				<line style="fill:none;stroke:#263238;stroke-miterlimit:10;" x1="421.1" y1="393.333" x2="421.1" y2="397.728"/>
				<line style="fill:none;stroke:#263238;stroke-miterlimit:10;" x1="440.044" y1="393.788" x2="440.044" y2="396.819"/>
			</g>
		</g>
		<g>
			<line style="fill:none;stroke:#263238;stroke-miterlimit:10;" x1="484.008" y1="404.786" x2="484.008" y2="402.058"/>
			<rect x="402.871" y="398.906" style="fill:#FFFFFF;stroke:#263238;stroke-miterlimit:10;" width="83.516" height="6.095"/>
			<g>
				<line style="fill:none;stroke:#263238;stroke-miterlimit:10;" x1="406.565" y1="405.543" x2="406.565" y2="401.755"/>
				<line style="fill:none;stroke:#263238;stroke-miterlimit:10;" x1="409.142" y1="399.178" x2="409.142" y2="402.967"/>
				<line style="fill:none;stroke:#263238;stroke-miterlimit:10;" x1="480.977" y1="399.481" x2="480.977" y2="403.119"/>
				<line style="fill:none;stroke:#263238;stroke-miterlimit:10;" x1="477.037" y1="399.481" x2="477.037" y2="402.967"/>
				<line style="fill:none;stroke:#263238;stroke-miterlimit:10;" x1="467.338" y1="399.33" x2="467.338" y2="403.725"/>
				<line style="fill:none;stroke:#263238;stroke-miterlimit:10;" x1="415.355" y1="399.784" x2="415.355" y2="401.755"/>
				<line style="fill:none;stroke:#263238;stroke-miterlimit:10;" x1="416.871" y1="404.331" x2="416.871" y2="400.845"/>
				<line style="fill:none;stroke:#263238;stroke-miterlimit:10;" x1="427.631" y1="399.33" x2="427.631" y2="403.725"/>
				<line style="fill:none;stroke:#263238;stroke-miterlimit:10;" x1="446.575" y1="399.784" x2="446.575" y2="402.815"/>
			</g>
		</g>
		<g>
			<line style="fill:none;stroke:#263238;stroke-miterlimit:10;" x1="486.294" y1="410.782" x2="486.294" y2="408.054"/>
			<rect x="405.157" y="404.902" style="fill:#FFFFFF;stroke:#263238;stroke-miterlimit:10;" width="83.516" height="6.095"/>
			<g>
				<line style="fill:none;stroke:#263238;stroke-miterlimit:10;" x1="408.851" y1="411.54" x2="408.851" y2="407.751"/>
				<line style="fill:none;stroke:#263238;stroke-miterlimit:10;" x1="411.428" y1="405.175" x2="411.428" y2="408.964"/>
				<line style="fill:none;stroke:#263238;stroke-miterlimit:10;" x1="483.263" y1="405.478" x2="483.263" y2="409.115"/>
				<line style="fill:none;stroke:#263238;stroke-miterlimit:10;" x1="479.323" y1="405.478" x2="479.323" y2="408.964"/>
				<line style="fill:none;stroke:#263238;stroke-miterlimit:10;" x1="469.624" y1="405.326" x2="469.624" y2="409.721"/>
				<line style="fill:none;stroke:#263238;stroke-miterlimit:10;" x1="417.641" y1="405.781" x2="417.641" y2="407.751"/>
				<line style="fill:none;stroke:#263238;stroke-miterlimit:10;" x1="419.157" y1="410.328" x2="419.157" y2="406.842"/>
				<line style="fill:none;stroke:#263238;stroke-miterlimit:10;" x1="429.917" y1="405.326" x2="429.917" y2="409.721"/>
				<line style="fill:none;stroke:#263238;stroke-miterlimit:10;" x1="448.861" y1="405.781" x2="448.861" y2="408.812"/>
			</g>
		</g>
		<g>
			<line style="fill:none;stroke:#263238;stroke-miterlimit:10;" x1="483.531" y1="416.779" x2="483.531" y2="414.051"/>
			<rect x="402.394" y="410.899" style="fill:#FFFFFF;stroke:#263238;stroke-miterlimit:10;" width="83.516" height="6.095"/>
			<g>
				<line style="fill:none;stroke:#263238;stroke-miterlimit:10;" x1="406.088" y1="417.537" x2="406.088" y2="413.748"/>
				<line style="fill:none;stroke:#263238;stroke-miterlimit:10;" x1="408.665" y1="411.171" x2="408.665" y2="414.96"/>
				<line style="fill:none;stroke:#263238;stroke-miterlimit:10;" x1="480.5" y1="411.474" x2="480.5" y2="415.112"/>
				<line style="fill:none;stroke:#263238;stroke-miterlimit:10;" x1="476.56" y1="411.474" x2="476.56" y2="414.96"/>
				<line style="fill:none;stroke:#263238;stroke-miterlimit:10;" x1="466.861" y1="411.323" x2="466.861" y2="415.718"/>
				<line style="fill:none;stroke:#263238;stroke-miterlimit:10;" x1="414.878" y1="411.778" x2="414.878" y2="413.748"/>
				<line style="fill:none;stroke:#263238;stroke-miterlimit:10;" x1="416.394" y1="416.324" x2="416.394" y2="412.839"/>
				<line style="fill:none;stroke:#263238;stroke-miterlimit:10;" x1="427.154" y1="411.323" x2="427.154" y2="415.718"/>
				<line style="fill:none;stroke:#263238;stroke-miterlimit:10;" x1="446.098" y1="411.778" x2="446.098" y2="414.809"/>
			</g>
		</g>
		<g>
			<line style="fill:none;stroke:#263238;stroke-miterlimit:10;" x1="477.478" y1="422.775" x2="477.478" y2="420.047"/>
			<rect x="396.34" y="416.896" style="fill:#FFFFFF;stroke:#263238;stroke-miterlimit:10;" width="83.516" height="6.095"/>
			<g>
				<line style="fill:none;stroke:#263238;stroke-miterlimit:10;" x1="400.035" y1="423.533" x2="400.035" y2="419.744"/>
				<line style="fill:none;stroke:#263238;stroke-miterlimit:10;" x1="402.611" y1="417.168" x2="402.611" y2="420.957"/>
				<line style="fill:none;stroke:#263238;stroke-miterlimit:10;" x1="474.447" y1="417.471" x2="474.447" y2="421.108"/>
				<line style="fill:none;stroke:#263238;stroke-miterlimit:10;" x1="470.506" y1="417.471" x2="470.506" y2="420.957"/>
				<line style="fill:none;stroke:#263238;stroke-miterlimit:10;" x1="460.807" y1="417.32" x2="460.807" y2="421.715"/>
				<line style="fill:none;stroke:#263238;stroke-miterlimit:10;" x1="408.825" y1="417.774" x2="408.825" y2="419.744"/>
				<line style="fill:none;stroke:#263238;stroke-miterlimit:10;" x1="410.34" y1="422.321" x2="410.34" y2="418.835"/>
				<line style="fill:none;stroke:#263238;stroke-miterlimit:10;" x1="421.1" y1="417.32" x2="421.1" y2="421.715"/>
				<line style="fill:none;stroke:#263238;stroke-miterlimit:10;" x1="440.044" y1="417.774" x2="440.044" y2="420.805"/>
			</g>
		</g>
		<g>
			<line style="fill:none;stroke:#263238;stroke-miterlimit:10;" x1="475.461" y1="428.772" x2="475.461" y2="426.044"/>
			<rect x="394.324" y="422.892" style="fill:#FFFFFF;stroke:#263238;stroke-miterlimit:10;" width="83.516" height="6.095"/>
			<g>
				<line style="fill:none;stroke:#263238;stroke-miterlimit:10;" x1="398.018" y1="429.53" x2="398.018" y2="425.741"/>
				<line style="fill:none;stroke:#263238;stroke-miterlimit:10;" x1="400.595" y1="423.165" x2="400.595" y2="426.953"/>
				<line style="fill:none;stroke:#263238;stroke-miterlimit:10;" x1="472.43" y1="423.468" x2="472.43" y2="427.105"/>
				<line style="fill:none;stroke:#263238;stroke-miterlimit:10;" x1="468.49" y1="423.468" x2="468.49" y2="426.953"/>
				<line style="fill:none;stroke:#263238;stroke-miterlimit:10;" x1="458.791" y1="423.316" x2="458.791" y2="427.711"/>
				<line style="fill:none;stroke:#263238;stroke-miterlimit:10;" x1="406.808" y1="423.771" x2="406.808" y2="425.741"/>
				<line style="fill:none;stroke:#263238;stroke-miterlimit:10;" x1="408.324" y1="428.317" x2="408.324" y2="424.832"/>
				<line style="fill:none;stroke:#263238;stroke-miterlimit:10;" x1="419.084" y1="423.316" x2="419.084" y2="427.711"/>
				<line style="fill:none;stroke:#263238;stroke-miterlimit:10;" x1="438.028" y1="423.771" x2="438.028" y2="426.802"/>
			</g>
		</g>
		<g>
			<line style="fill:none;stroke:#263238;stroke-miterlimit:10;" x1="475.058" y1="434.769" x2="475.058" y2="432.041"/>
			<rect x="393.921" y="428.889" style="fill:#FFFFFF;stroke:#263238;stroke-miterlimit:10;" width="83.516" height="6.095"/>
			<g>
				<line style="fill:none;stroke:#263238;stroke-miterlimit:10;" x1="397.615" y1="435.526" x2="397.615" y2="431.738"/>
				<line style="fill:none;stroke:#263238;stroke-miterlimit:10;" x1="400.191" y1="429.161" x2="400.191" y2="432.95"/>
				<line style="fill:none;stroke:#263238;stroke-miterlimit:10;" x1="472.027" y1="429.464" x2="472.027" y2="433.102"/>
				<line style="fill:none;stroke:#263238;stroke-miterlimit:10;" x1="468.087" y1="429.464" x2="468.087" y2="432.95"/>
				<line style="fill:none;stroke:#263238;stroke-miterlimit:10;" x1="458.387" y1="429.313" x2="458.387" y2="433.708"/>
				<line style="fill:none;stroke:#263238;stroke-miterlimit:10;" x1="406.405" y1="429.767" x2="406.405" y2="431.738"/>
				<line style="fill:none;stroke:#263238;stroke-miterlimit:10;" x1="407.921" y1="434.314" x2="407.921" y2="430.828"/>
				<line style="fill:none;stroke:#263238;stroke-miterlimit:10;" x1="418.681" y1="429.313" x2="418.681" y2="433.708"/>
				<line style="fill:none;stroke:#263238;stroke-miterlimit:10;" x1="437.625" y1="429.767" x2="437.625" y2="432.798"/>
			</g>
		</g>
		<g>
			<line style="fill:none;stroke:#263238;stroke-miterlimit:10;" x1="475.26" y1="440.765" x2="475.26" y2="438.037"/>
			<rect x="394.122" y="434.885" style="fill:#FFFFFF;stroke:#263238;stroke-miterlimit:10;" width="83.516" height="6.095"/>
			<g>
				<line style="fill:none;stroke:#263238;stroke-miterlimit:10;" x1="397.817" y1="441.523" x2="397.817" y2="437.734"/>
				<line style="fill:none;stroke:#263238;stroke-miterlimit:10;" x1="400.393" y1="435.158" x2="400.393" y2="438.947"/>
				<line style="fill:none;stroke:#263238;stroke-miterlimit:10;" x1="472.229" y1="435.461" x2="472.229" y2="439.098"/>
				<line style="fill:none;stroke:#263238;stroke-miterlimit:10;" x1="468.288" y1="435.461" x2="468.288" y2="438.947"/>
				<line style="fill:none;stroke:#263238;stroke-miterlimit:10;" x1="458.589" y1="435.309" x2="458.589" y2="439.704"/>
				<line style="fill:none;stroke:#263238;stroke-miterlimit:10;" x1="406.607" y1="435.764" x2="406.607" y2="437.734"/>
				<line style="fill:none;stroke:#263238;stroke-miterlimit:10;" x1="408.122" y1="440.311" x2="408.122" y2="436.825"/>
				<line style="fill:none;stroke:#263238;stroke-miterlimit:10;" x1="418.882" y1="435.309" x2="418.882" y2="439.704"/>
				<line style="fill:none;stroke:#263238;stroke-miterlimit:10;" x1="437.826" y1="435.764" x2="437.826" y2="438.795"/>
			</g>
		</g>
		<g>
			<line style="fill:none;stroke:#263238;stroke-miterlimit:10;" x1="474.05" y1="446.762" x2="474.05" y2="444.034"/>
			<rect x="392.913" y="440.882" style="fill:#FFFFFF;stroke:#263238;stroke-miterlimit:10;" width="83.516" height="6.095"/>
			<g>
				<line style="fill:none;stroke:#263238;stroke-miterlimit:10;" x1="396.607" y1="447.52" x2="396.607" y2="443.731"/>
				<line style="fill:none;stroke:#263238;stroke-miterlimit:10;" x1="399.183" y1="441.154" x2="399.183" y2="444.943"/>
				<line style="fill:none;stroke:#263238;stroke-miterlimit:10;" x1="471.019" y1="441.457" x2="471.019" y2="445.095"/>
				<line style="fill:none;stroke:#263238;stroke-miterlimit:10;" x1="467.078" y1="441.457" x2="467.078" y2="444.943"/>
				<line style="fill:none;stroke:#263238;stroke-miterlimit:10;" x1="457.379" y1="441.306" x2="457.379" y2="445.701"/>
				<line style="fill:none;stroke:#263238;stroke-miterlimit:10;" x1="405.397" y1="441.761" x2="405.397" y2="443.731"/>
				<line style="fill:none;stroke:#263238;stroke-miterlimit:10;" x1="406.912" y1="446.307" x2="406.912" y2="442.822"/>
				<line style="fill:none;stroke:#263238;stroke-miterlimit:10;" x1="417.673" y1="441.306" x2="417.673" y2="445.701"/>
				<line style="fill:none;stroke:#263238;stroke-miterlimit:10;" x1="436.617" y1="441.761" x2="436.617" y2="444.792"/>
			</g>
		</g>
		<g>
			<line style="fill:none;stroke:#263238;stroke-miterlimit:10;" x1="474.251" y1="452.758" x2="474.251" y2="450.03"/>
			<rect x="393.114" y="446.879" style="fill:#FFFFFF;stroke:#263238;stroke-miterlimit:10;" width="83.516" height="6.095"/>
			<g>
				<line style="fill:none;stroke:#263238;stroke-miterlimit:10;" x1="396.809" y1="453.516" x2="396.809" y2="449.727"/>
				<line style="fill:none;stroke:#263238;stroke-miterlimit:10;" x1="399.385" y1="447.151" x2="399.385" y2="450.94"/>
				<line style="fill:none;stroke:#263238;stroke-miterlimit:10;" x1="471.22" y1="447.454" x2="471.22" y2="451.091"/>
				<line style="fill:none;stroke:#263238;stroke-miterlimit:10;" x1="467.28" y1="447.454" x2="467.28" y2="450.94"/>
				<line style="fill:none;stroke:#263238;stroke-miterlimit:10;" x1="457.581" y1="447.302" x2="457.581" y2="451.698"/>
				<line style="fill:none;stroke:#263238;stroke-miterlimit:10;" x1="405.598" y1="447.757" x2="405.598" y2="449.727"/>
				<line style="fill:none;stroke:#263238;stroke-miterlimit:10;" x1="407.114" y1="452.304" x2="407.114" y2="448.818"/>
				<line style="fill:none;stroke:#263238;stroke-miterlimit:10;" x1="417.874" y1="447.302" x2="417.874" y2="451.698"/>
				<line style="fill:none;stroke:#263238;stroke-miterlimit:10;" x1="436.818" y1="447.757" x2="436.818" y2="450.788"/>
			</g>
		</g>
		<g>
			<line style="fill:none;stroke:#263238;stroke-miterlimit:10;" x1="475.058" y1="458.755" x2="475.058" y2="456.027"/>
			<rect x="393.921" y="452.875" style="fill:#FFFFFF;stroke:#263238;stroke-miterlimit:10;" width="83.516" height="6.095"/>
			<g>
				<line style="fill:none;stroke:#263238;stroke-miterlimit:10;" x1="397.615" y1="459.513" x2="397.615" y2="455.724"/>
				<line style="fill:none;stroke:#263238;stroke-miterlimit:10;" x1="400.191" y1="453.148" x2="400.191" y2="456.936"/>
				<line style="fill:none;stroke:#263238;stroke-miterlimit:10;" x1="472.027" y1="453.451" x2="472.027" y2="457.088"/>
				<line style="fill:none;stroke:#263238;stroke-miterlimit:10;" x1="468.087" y1="453.451" x2="468.087" y2="456.936"/>
				<line style="fill:none;stroke:#263238;stroke-miterlimit:10;" x1="458.387" y1="453.299" x2="458.387" y2="457.694"/>
				<line style="fill:none;stroke:#263238;stroke-miterlimit:10;" x1="406.405" y1="453.754" x2="406.405" y2="455.724"/>
				<line style="fill:none;stroke:#263238;stroke-miterlimit:10;" x1="407.921" y1="458.3" x2="407.921" y2="454.815"/>
				<line style="fill:none;stroke:#263238;stroke-miterlimit:10;" x1="418.681" y1="453.299" x2="418.681" y2="457.694"/>
				<line style="fill:none;stroke:#263238;stroke-miterlimit:10;" x1="437.625" y1="453.754" x2="437.625" y2="456.785"/>
			</g>
		</g>
		<g>
			<line style="fill:none;stroke:#263238;stroke-miterlimit:10;" x1="475.26" y1="464.752" x2="475.26" y2="462.024"/>
			<rect x="394.122" y="458.872" style="fill:#FFFFFF;stroke:#263238;stroke-miterlimit:10;" width="83.516" height="6.095"/>
			<g>
				<line style="fill:none;stroke:#263238;stroke-miterlimit:10;" x1="397.817" y1="465.509" x2="397.817" y2="461.721"/>
				<line style="fill:none;stroke:#263238;stroke-miterlimit:10;" x1="400.393" y1="459.144" x2="400.393" y2="462.933"/>
				<line style="fill:none;stroke:#263238;stroke-miterlimit:10;" x1="472.229" y1="459.447" x2="472.229" y2="463.085"/>
				<line style="fill:none;stroke:#263238;stroke-miterlimit:10;" x1="468.288" y1="459.447" x2="468.288" y2="462.933"/>
				<line style="fill:none;stroke:#263238;stroke-miterlimit:10;" x1="458.589" y1="459.296" x2="458.589" y2="463.691"/>
				<line style="fill:none;stroke:#263238;stroke-miterlimit:10;" x1="406.607" y1="459.75" x2="406.607" y2="461.721"/>
				<line style="fill:none;stroke:#263238;stroke-miterlimit:10;" x1="408.122" y1="464.297" x2="408.122" y2="460.811"/>
				<line style="fill:none;stroke:#263238;stroke-miterlimit:10;" x1="418.882" y1="459.296" x2="418.882" y2="463.691"/>
				<line style="fill:none;stroke:#263238;stroke-miterlimit:10;" x1="437.826" y1="459.75" x2="437.826" y2="462.781"/>
			</g>
		</g>
		<g>
			<line style="fill:none;stroke:#263238;stroke-miterlimit:10;" x1="477.478" y1="470.748" x2="477.478" y2="468.02"/>
			<rect x="396.34" y="464.868" style="fill:#FFFFFF;stroke:#263238;stroke-miterlimit:10;" width="83.516" height="6.095"/>
			<g>
				<line style="fill:none;stroke:#263238;stroke-miterlimit:10;" x1="400.035" y1="471.506" x2="400.035" y2="467.717"/>
				<line style="fill:none;stroke:#263238;stroke-miterlimit:10;" x1="402.611" y1="465.141" x2="402.611" y2="468.93"/>
				<line style="fill:none;stroke:#263238;stroke-miterlimit:10;" x1="474.447" y1="465.444" x2="474.447" y2="469.081"/>
				<line style="fill:none;stroke:#263238;stroke-miterlimit:10;" x1="470.506" y1="465.444" x2="470.506" y2="468.93"/>
				<line style="fill:none;stroke:#263238;stroke-miterlimit:10;" x1="460.807" y1="465.292" x2="460.807" y2="469.687"/>
				<line style="fill:none;stroke:#263238;stroke-miterlimit:10;" x1="408.825" y1="465.747" x2="408.825" y2="467.717"/>
				<line style="fill:none;stroke:#263238;stroke-miterlimit:10;" x1="410.34" y1="470.293" x2="410.34" y2="466.808"/>
				<line style="fill:none;stroke:#263238;stroke-miterlimit:10;" x1="421.1" y1="465.292" x2="421.1" y2="469.687"/>
				<line style="fill:none;stroke:#263238;stroke-miterlimit:10;" x1="440.044" y1="465.747" x2="440.044" y2="468.778"/>
			</g>
		</g>
		<g>
			<line style="fill:none;stroke:#263238;stroke-miterlimit:10;" x1="477.478" y1="476.745" x2="477.478" y2="474.017"/>
			<rect x="396.34" y="470.865" style="fill:#FFFFFF;stroke:#263238;stroke-miterlimit:10;" width="83.516" height="6.095"/>
			<g>
				<line style="fill:none;stroke:#263238;stroke-miterlimit:10;" x1="400.035" y1="477.503" x2="400.035" y2="473.714"/>
				<line style="fill:none;stroke:#263238;stroke-miterlimit:10;" x1="402.611" y1="471.137" x2="402.611" y2="474.926"/>
				<line style="fill:none;stroke:#263238;stroke-miterlimit:10;" x1="474.447" y1="471.44" x2="474.447" y2="475.078"/>
				<line style="fill:none;stroke:#263238;stroke-miterlimit:10;" x1="470.506" y1="471.44" x2="470.506" y2="474.926"/>
				<line style="fill:none;stroke:#263238;stroke-miterlimit:10;" x1="460.807" y1="471.289" x2="460.807" y2="475.684"/>
				<line style="fill:none;stroke:#263238;stroke-miterlimit:10;" x1="408.825" y1="471.744" x2="408.825" y2="473.714"/>
				<line style="fill:none;stroke:#263238;stroke-miterlimit:10;" x1="410.34" y1="476.29" x2="410.34" y2="472.804"/>
				<line style="fill:none;stroke:#263238;stroke-miterlimit:10;" x1="421.1" y1="471.289" x2="421.1" y2="475.684"/>
				<line style="fill:none;stroke:#263238;stroke-miterlimit:10;" x1="440.044" y1="471.744" x2="440.044" y2="474.775"/>
			</g>
		</g>
		<g>
			<line style="fill:none;stroke:#263238;stroke-miterlimit:10;" x1="477.478" y1="482.741" x2="477.478" y2="480.013"/>
			<rect x="396.34" y="476.862" style="fill:#FFFFFF;stroke:#263238;stroke-miterlimit:10;" width="83.516" height="6.095"/>
			<g>
				<line style="fill:none;stroke:#263238;stroke-miterlimit:10;" x1="400.035" y1="483.499" x2="400.035" y2="479.71"/>
				<line style="fill:none;stroke:#263238;stroke-miterlimit:10;" x1="402.611" y1="477.134" x2="402.611" y2="480.923"/>
				<line style="fill:none;stroke:#263238;stroke-miterlimit:10;" x1="474.447" y1="477.437" x2="474.447" y2="481.074"/>
				<line style="fill:none;stroke:#263238;stroke-miterlimit:10;" x1="470.506" y1="477.437" x2="470.506" y2="480.923"/>
				<line style="fill:none;stroke:#263238;stroke-miterlimit:10;" x1="460.807" y1="477.285" x2="460.807" y2="481.681"/>
				<line style="fill:none;stroke:#263238;stroke-miterlimit:10;" x1="408.825" y1="477.74" x2="408.825" y2="479.71"/>
				<line style="fill:none;stroke:#263238;stroke-miterlimit:10;" x1="410.34" y1="482.287" x2="410.34" y2="478.801"/>
				<line style="fill:none;stroke:#263238;stroke-miterlimit:10;" x1="421.1" y1="477.285" x2="421.1" y2="481.681"/>
				<line style="fill:none;stroke:#263238;stroke-miterlimit:10;" x1="440.044" y1="477.74" x2="440.044" y2="480.771"/>
			</g>
		</g>
	</g>
</g>
<g id="Receipt">
	<g>
		
			<rect x="189.418" y="307.672" style="fill:#263238;stroke:#263238;stroke-linecap:round;stroke-linejoin:round;stroke-miterlimit:10;" width="32.794" height="84.825"/>
		<g>
			<path style="fill:#DBDBDB;stroke:#263238;stroke-linecap:round;stroke-linejoin:round;stroke-miterlimit:10;" d="
				M298.797,321.076v-0.986c0-6.858-5.56-12.418-12.418-12.418h-96.962v0.115c6.1,0.787,10.816,5.989,10.816,12.303v21.6h0.214
				v126.497c0,8.247,6.686,14.933,14.933,14.933h83.435V321.076H298.797z"/>
			<path style="fill:#263238;stroke:#263238;stroke-linecap:round;stroke-linejoin:round;stroke-miterlimit:10;" d="M233.116,460.93
				v9.772c0,5.851-4.052,10.744-9.499,12.058v0.359h42.852v-22.19H233.116z"/>
			<path style="fill:#DBDBDB;stroke:#263238;stroke-linecap:round;stroke-linejoin:round;stroke-miterlimit:10;" d="
				M239.798,449.103v21.6c0,6.314-4.716,11.515-10.816,12.303v0.115h85.95c6.858,0,12.418-5.56,12.418-12.418v-21.6H239.798z"/>
			<line style="fill:none;stroke:#263238;stroke-miterlimit:10;" x1="219.53" y1="324.557" x2="284.165" y2="324.557"/>
			<line style="fill:none;stroke:#263238;stroke-miterlimit:10;" x1="219.53" y1="336.341" x2="284.165" y2="336.341"/>
			<line style="fill:none;stroke:#263238;stroke-miterlimit:10;" x1="219.53" y1="346.34" x2="284.165" y2="346.34"/>
			<line style="fill:none;stroke:#263238;stroke-miterlimit:10;" x1="219.53" y1="415.974" x2="284.165" y2="415.974"/>
			<line style="fill:none;stroke:#263238;stroke-miterlimit:10;" x1="219.53" y1="433.115" x2="284.165" y2="433.115"/>
			<line style="fill:none;stroke:#263238;stroke-miterlimit:10;" x1="219.53" y1="356.696" x2="258.096" y2="356.696"/>
			<line style="fill:none;stroke:#263238;stroke-miterlimit:10;" x1="219.53" y1="365.98" x2="258.096" y2="365.98"/>
			<line style="fill:none;stroke:#263238;stroke-miterlimit:10;" x1="219.53" y1="375.265" x2="258.096" y2="375.265"/>
			<line style="fill:none;stroke:#263238;stroke-miterlimit:10;" x1="219.53" y1="384.549" x2="258.096" y2="384.549"/>
			<line style="fill:none;stroke:#263238;stroke-miterlimit:10;" x1="219.53" y1="393.834" x2="258.096" y2="393.834"/>
			<line style="fill:none;stroke:#263238;stroke-miterlimit:10;" x1="219.53" y1="403.119" x2="258.096" y2="403.119"/>
		</g>
	</g>
</g>
<g id="Character">
	<g>
		<g>
			<path style="fill:#FFFFFF;stroke:#263238;stroke-linecap:round;stroke-linejoin:round;stroke-miterlimit:10;" d="
				M128.668,468.395c0,0,4.441,6.107,6.385,6.94c1.943,0.833,5.552,1.388,6.662,3.886c1.11,2.498,1.11,3.886,1.11,3.886h-27.482
				c0,0-1.11-3.609,0-5.829c1.11-2.221,1.388-4.441,1.388-4.441L128.668,468.395z"/>
			<path style="fill:#FFFFFF;stroke:#263238;stroke-linecap:round;stroke-linejoin:round;stroke-miterlimit:10;" d="
				M114.869,480.331h27.293c0.655,1.789,0.664,2.776,0.664,2.776h-27.482C115.343,483.107,114.954,481.831,114.869,480.331z"/>
		</g>
		<g>
			<path style="fill:#FFFFFF;stroke:#263238;stroke-linecap:round;stroke-linejoin:round;stroke-miterlimit:10;" d="M99.243,474.502
				l-0.555,8.883H85.363c0,0-0.555-2.498,0.278-4.997c0.833-2.498,1.666-4.719,1.666-4.719L99.243,474.502z"/>
			<path style="fill:#FFFFFF;stroke:#263238;stroke-linecap:round;stroke-linejoin:round;stroke-miterlimit:10;" d="M98.688,483.385
				H85.363c0,0-0.33-1.497-0.094-3.331h13.627L98.688,483.385z"/>
		</g>
		<path style="fill:#263238;stroke:#263238;stroke-linecap:round;stroke-linejoin:round;stroke-miterlimit:10;" d="M139.494,339.022
			c0,0-2.221,28.87-2.776,39.141s-8.05,90.231-8.05,90.231s-10.826,6.662-12.214,6.662c-1.388,0-3.053-96.338-3.053-96.338
			l-14.157,95.783c0,0-2.498,0.833-4.719,0.833c-2.221,0-7.218-1.665-7.218-1.665l4.719-115.493v-19.154
			c0,0,28.037,3.886,35.532,2.776C135.053,340.688,139.494,339.022,139.494,339.022z"/>
		<polyline style="fill:none;stroke:#808080;stroke-linecap:round;stroke-linejoin:round;stroke-miterlimit:10;" points="
			105.628,356.511 111.735,361.23 113.4,378.718 		"/>
		<g>
			<g>
				<path style="fill:#FFFFFF;stroke:#263238;stroke-linecap:round;stroke-linejoin:round;stroke-miterlimit:10;" d="
					M103.111,221.721c0,0,11.323-1.418,14.645,2.446c3.322,3.864,3.977,11.377,6.318,13.173c2.341,1.796,3.593-0.436,4.628,1.904
					c1.035,2.341-0.652,5.226-0.652,5.226s0.275,11.269-1.031,11.814c-1.306,0.545-6.968,0.546-6.968,0.546l0.927,4.627
					l-14.318,0.603l-1.253-4.845c0,0-10.89-6.312-13.831-11.102c-2.941-4.79-2.236-15.406,0.703-19.109
					C95.218,223.302,103.111,221.721,103.111,221.721z"/>
				<path style="fill:#263238;" d="M128.051,244.471c0,0-6.638-2.086-7.033-1.098c-0.395,0.988,0.79,13.63,0.79,13.63
					s4.695,0.541,5.212-0.717C127.536,255.027,128.565,253.471,128.051,244.471z M126.645,255.083
					c-0.37,1.013-3.735,0.578-3.735,0.578s-0.849-10.181-0.566-10.976c0.283-0.795,5.04,0.885,5.04,0.885
					C127.753,252.817,127.016,254.07,126.645,255.083z"/>
				<path style="fill:#263238;" d="M120.65,236.792c0.353,0.848,0.915,1.421,1.255,1.28c0.34-0.141,0.329-0.944-0.024-1.792
					c-0.353-0.848-0.915-1.421-1.255-1.28C120.286,235.141,120.297,235.944,120.65,236.792z"/>
				<path style="fill:none;stroke:#263238;stroke-linecap:round;stroke-linejoin:round;stroke-miterlimit:10;" d="M126.905,246.289
					c0,0-2.164,1.083-3.455-1.04"/>
				<path style="fill:none;stroke:#263238;stroke-linecap:round;stroke-linejoin:round;stroke-miterlimit:10;" d="M120.534,232.846
					c0,0-1.457-0.79-1.623,1.624"/>
			</g>
			<path style="fill:#263238;stroke:#263238;stroke-linecap:round;stroke-linejoin:round;stroke-miterlimit:10;" d="M92.279,227.004
				c2.939-3.703,10.832-5.283,10.832-5.283s11.323-1.418,14.645,2.446c0,0-6.261-1.577-5.444,1.09
				c0.817,2.667,7.297,6.749,5.065,8.328c-2.232,1.579-4.736,0.382-3.701,2.723c1.035,2.341,2.342,4.627,1.253,4.845
				c-1.089,0.218-4.138-2.286-5.445-1.741c-1.306,0.545-2.775,4.519-1.523,6.533c1.253,2.014,3.594,2.395,3.594,2.395
				s-2.231,5.826-4.19,7.35c-0.969,0.754-1.979,0.961-2.969,0.92c-2.766-1.69-10.427-6.598-12.822-10.497
				C88.635,241.323,89.34,230.707,92.279,227.004z"/>
		</g>
		<path style="fill:#FFFFFF;stroke:#263238;stroke-linecap:round;stroke-linejoin:round;stroke-miterlimit:10;" d="M91.567,269.632
			c0,0-8.067,5.274-10.238,9.308c-2.172,4.033-7.446,41.883-8.066,45.917c-0.62,4.033,8.849,32.434,8.849,32.434
			s-0.783,6.502,0,10.026c0.783,3.524,3.086,5.546,4.261,5.742c1.175,0.196,2.154-3.328,2.154-3.328
			c0.783,0.783,1.762-0.196,1.762-1.175c0-0.979,0.588-8.027,0.392-9.006c-0.196-0.979-1.064-4.226-1.064-4.226l1.952-24.883
			V269.632z"/>
		<path style="fill:#92E3A9;stroke:#263238;stroke-linecap:round;stroke-linejoin:round;stroke-miterlimit:10;" d="M74.041,321.343
			c0,0,5.135,2.201,10.271,2.201c5.135,0,6.603-0.734,6.603-0.734l0.245-6.603c0,0-11.738,0-12.961-0.489s-3.424-1.223-3.424-1.223
			L74.041,321.343z"/>
		<g>
			<path style="fill:#92E3A9;stroke:#263238;stroke-linecap:round;stroke-linejoin:round;stroke-miterlimit:10;" d="M81.329,278.94
				c-1.665,3.091-5.15,26.039-6.967,38.409c3.811,1.174,10.465,2.728,17.206,1.967v-49.683
				C91.567,269.632,83.501,274.907,81.329,278.94z"/>
			
				<line style="fill:#92E3A9;stroke:#263238;stroke-linecap:round;stroke-linejoin:round;stroke-miterlimit:10;" x1="86.576" y1="303.105" x2="79.567" y2="298.775"/>
			
				<line style="fill:#92E3A9;stroke:#263238;stroke-linecap:round;stroke-linejoin:round;stroke-miterlimit:10;" x1="82.247" y1="305.578" x2="87.195" y2="304.96"/>
		</g>
		<path style="fill:none;stroke:#263238;stroke-linecap:round;stroke-linejoin:round;stroke-miterlimit:10;" d="M88.134,360.333
			c0,0-0.392,1.762-1.37,2.545c-0.979,0.783-0.979,0.783-0.979,0.783l-0.587,3.524c0,0,0.391,2.154,0.587,3.328"/>
		
			<line style="fill:none;stroke:#263238;stroke-linecap:round;stroke-linejoin:round;stroke-miterlimit:10;" x1="88.525" y1="369.73" x2="88.33" y2="364.64"/>
		<g>
			<path style="fill:#92E3A9;stroke:#263238;stroke-linecap:round;stroke-linejoin:round;stroke-miterlimit:10;" d="M87.938,314.912
				c-0.376-13.724-3.392-25.251-3.617-27.498c-0.265-2.653-0.939-9.393,4.056-15.262c2.794-2.762,5.796-4.763,8.573-6.189
				c1.772-0.535,3.125-0.781,3.125-0.781l-0.882-0.278c1.804-0.777,3.442-1.311,4.768-1.665c4.164-1.11,15.268-1.666,18.599,1.388
				c0,0,9.622,3.001,14.345,6.447c1.399,1.771,3.861,5.508,4.301,10.348c0.501,5.51,1.481,32.149,1.841,42.21
				c0.081,2.274,0.258,4.531,0.54,6.789c0.629,5.032,1.441,22.163,1.441,22.163s-10.532,3.64-27.465,3.085
				c-16.933-0.555-27.277-4.898-27.277-4.898l-2.488-1.326c0,0-0.049-16.268-0.003-19.018
				C87.885,325.157,88.042,314.975,87.938,314.912z"/>
			<g>
				<path style="fill:#92E3A9;stroke:#263238;stroke-linecap:round;stroke-linejoin:round;stroke-miterlimit:10;" d="
					M118.009,304.314c0.826,1.458,1.705,2.769,2.631,3.838"/>
				<path style="fill:#92E3A9;stroke:#263238;stroke-linecap:round;stroke-linejoin:round;stroke-miterlimit:10;" d="
					M110.257,282.556c0,0,2.403,10.742,6.343,19.034"/>
				<path style="fill:#92E3A9;stroke:#263238;stroke-linecap:round;stroke-linejoin:round;stroke-miterlimit:10;" d="
					M110.888,294.443c0.669,1.276,1.287,2.433,1.783,3.325"/>
				<path style="fill:#92E3A9;stroke:#263238;stroke-linecap:round;stroke-linejoin:round;stroke-miterlimit:10;" d="
					M104.944,282.797c0,0,2.12,4.241,4.291,8.46"/>
			</g>
		</g>
		<path style="fill:#FFFFFF;stroke:#263238;stroke-linecap:round;stroke-linejoin:round;stroke-miterlimit:10;" d="M129.307,267.055
			c0,0-4.058-5.803-4.891-6.358c-0.833-0.555-17.666-2.333-21.275-1.223c-3.609,1.11-6.191,6.489-6.191,6.489
			S114.872,264.834,129.307,267.055z"/>
		<path style="fill:#FFFFFF;stroke:#263238;stroke-linecap:round;stroke-linejoin:round;stroke-miterlimit:10;" d="M132.873,296.845
			l16.133,14.271c0,0,8.687,6.205,12.1,4.964c3.014-1.096,29.865-24.813,36.1-30.341c0.004,0.014,0.009,0.034,0.009,0.034
			l2.43-1.385c0,0,3.462,0.038,4.471-0.635c1.01-0.673,2.525-1.852,2.525-1.852s0,0,0.842,0c0.842,0,1.347-1.178,1.683-2.357
			c0.337-1.178,1.347-4.545,1.01-5.387c-0.337-0.842-4.713-3.703-4.713-3.703s1.178-1.683,1.683-2.357
			c0.505-0.673,2.188-2.525,2.02-4.208c-0.168-1.683-2.02-2.525-3.535-0.673c-1.515,1.852-9.09,7.575-10.1,9.595
			c-0.706,1.411-1.745,3.685-2.308,4.93l-30.566,16.932c0,0-17.684-20.787-19.546-22.028c-1.862-1.241-15.683-5.391-15.683-5.391"/>
		<path style="fill:#92E3A9;stroke:#263238;stroke-linecap:round;stroke-linejoin:round;stroke-miterlimit:10;" d="M132.873,296.845
			l16.133,14.271c0,0,8.687,6.205,12.1,4.964c1.206-0.439,6.234-4.504,12.226-9.573c0.027-1.478-0.242-4.006-1.573-7.998
			c-0.991-2.973-2.605-5.089-4.17-6.568l-4.931,2.732c0,0-17.684-20.787-19.546-22.028c-1.861-1.241-15.683-5.391-15.683-5.391"/>
		<path style="fill:#92E3A9;stroke:#263238;stroke-linecap:round;stroke-linejoin:round;stroke-miterlimit:10;" d="M164.582,292.604
			c0,0,0.922-1.248,3.575,2.068c2.653,3.316,3.979,11.054,3.979,12.159c0,1.105,1.769,0.663,2.874-0.663
			c1.105-1.327,4.643-1.769,5.085-5.306c0.442-3.537-1.105-8.401-3.095-11.496c-1.99-3.095-1.769-3.095-3.758-2.653
			C171.252,287.155,165.208,290.978,164.582,292.604z"/>
		<g>
			<path style="fill:#92E3A9;stroke:#263238;stroke-linecap:round;stroke-linejoin:round;stroke-miterlimit:10;" d="
				M162.657,294.673c0,0,2.053,2.865,1.229,8.431"/>
			<path style="fill:#92E3A9;stroke:#263238;stroke-linecap:round;stroke-linejoin:round;stroke-miterlimit:10;" d="
				M165.947,300.218c0,0,0.825,2.062-0.825,6.597"/>
		</g>
		<path style="fill:#FFFFFF;stroke:#263238;stroke-linecap:round;stroke-linejoin:round;stroke-miterlimit:10;" d="M205.978,281.68
			c0,0,0.842-2.02,0.673-3.198"/>
	</g>
</g>
<g id="Floor">
	<line style="fill:none;stroke:#263238;stroke-miterlimit:10;" x1="20.786" y1="483.385" x2="482.627" y2="483.385"/>
</g>
</svg>
